<svg id="Layer_1" data-name="Layer 1" xmlns="http://www.w3.org/2000/svg" viewBox="0 0 512 512"><defs><style>.cls-1{fill:#fff;}</style></defs><title>facebookwhite</title><path class="cls-1" d="M469.33,0H42.67A42.25,42.25,0,0,0,0,42.67V469.33A42.25,42.25,0,0,0,42.67,512H469.33A42.25,42.25,0,0,0,512,469.33V42.67A42.25,42.25,0,0,0,469.33,0ZM256,494.93V324.27H187.73V256H256V196.27c0-48.64,37.55-89.6,85.33-93.87h76.8v68.27H349.87a25.14,25.14,0,0,0-25.6,25.6V256H409.6v68.27H324.27V494.93Zm238.93-25.6a25.14,25.14,0,0,1-25.6,25.6h-128V341.33h85.34V238.93H341.33V196.27c0-5.12,3.42-8.54,8.54-8.54H435.2V85.33H340.48c-57.17,5.12-101.55,53.76-101.55,110.94v42.66H170.67v102.4h68.26v153.6H42.67a25.14,25.14,0,0,1-25.6-25.6V42.67a25.14,25.14,0,0,1,25.6-25.6H469.33a25.14,25.14,0,0,1,25.6,25.6V469.33Z"/></svg>