<svg id="Layer_1" data-name="Layer 1" xmlns="http://www.w3.org/2000/svg" viewBox="0 0 512 512"><defs><style>.cls-1{fill:#fff;}</style></defs><title>instagramwhite</title><path class="cls-1" d="M366.08,0H145.92C65.71,0,0,65.71,0,145.92V366.08C0,446.29,65.71,512,145.92,512H366.08C446.29,512,512,446.29,512,366.08V145.92C512,65.71,446.29,0,366.08,0ZM494.93,366.08c0,70.83-58,128.85-128.85,128.85H145.92c-70.83,0-128.85-58-128.85-128.85V145.92c0-70.83,58-128.85,128.85-128.85H366.08c70.83,0,128.85,58,128.85,128.85Z"/><path class="cls-1" d="M366.08,51.2H145.92c-52,0-94.72,42.67-94.72,94.72V366.08c0,52.05,42.67,94.72,94.72,94.72H366.08c52.05,0,94.72-42.67,94.72-94.72V145.92C460.8,93.87,418.13,51.2,366.08,51.2Zm77.65,314.88a77.93,77.93,0,0,1-77.65,77.65H145.92a77.93,77.93,0,0,1-77.65-77.65V145.92a77.93,77.93,0,0,1,77.65-77.65H366.08a77.93,77.93,0,0,1,77.65,77.65V366.08Z"/><path class="cls-1" d="M256,119.47c-75.09,0-136.53,61.44-136.53,136.53S180.91,392.53,256,392.53,392.53,331.09,392.53,256,331.09,119.47,256,119.47Zm0,256c-65.71,0-119.47-53.76-119.47-119.47S190.29,136.53,256,136.53,375.47,190.29,375.47,256,321.71,375.47,256,375.47Z"/><path class="cls-1" d="M256,162.13A93.87,93.87,0,1,0,349.87,256,93.61,93.61,0,0,0,256,162.13Zm0,170.67A76.8,76.8,0,1,1,332.8,256,76.48,76.48,0,0,1,256,332.8Z"/><path class="cls-1" d="M392.53,93.87a25.6,25.6,0,1,0,25.6,25.6A25.15,25.15,0,0,0,392.53,93.87Z"/></svg>