<svg id="Layer_1" data-name="Layer 1" xmlns="http://www.w3.org/2000/svg" viewBox="0 0 511.27 511.27"><defs><style>.cls-1{fill:#fff;}</style></defs><title>twitterwhite</title><path class="cls-1" d="M508.34,94.24a11.4,11.4,0,0,0-10.41-2.6l-17.36,6.07a118.7,118.7,0,0,0,21.7-37.31c1.73-4.34.87-7.81-1.74-10.41a9.21,9.21,0,0,0-10.41-1.74c-24.3,10.41-45.13,19.09-62.48,24.3,0,.87-.87,0-1.74,0-13.88-7.81-47.73-25.17-72-25.17-61.61.87-111.07,52.94-111.07,116.29v3.47c-90.26-17.36-139.72-43.39-193.52-99.8L40.6,58.66,35.39,69.08c-29.5,56.4-8.68,107.6,25.17,142.32-15.62-2.61-26-7.81-35.58-15.62-3.47-2.61-7.81-3.47-12.15-.87-3.47,1.73-5.21,6.94-4.34,11.28C20.64,247,51,280,84,299.91c-15.62,0-28.64-1.73-41.66-10.41-3.47-1.74-8.67-1.74-12.14.87s-5.21,6.94-3.48,11.28c15.62,44.25,46,67.68,94.59,73.76C96.14,390.16,63.16,402.31,12,403.18A12.36,12.36,0,0,0,.68,411c-1.73,5.21,0,9.55,3.47,13,31.24,25.16,100.67,39.92,186.58,39.92,152.73,0,277.69-136.25,277.69-303.73v-2.61c19.1-9.54,34.72-27.77,42.53-52.93A11.42,11.42,0,0,0,508.34,94.24Zm-52.07,49.47-5.2,1.73V160.2c0,157.94-117.16,286.37-260.34,286.37-79,0-131.91-13-160.54-26.9,59.87-4.34,94.59-23.43,121.49-44.26l21.69-15.62h-26c-49.47,0-79.84-13.89-97.19-46.86,15.62,5.2,32.1,5.2,50.33,4.34a166.68,166.68,0,0,1,20.82-.87L123.91,299c-33-9.54-72-39.05-91.12-79,17.35,7.81,36.45,9.55,53.8,9.55h26.9L91.8,214c-18.22-13-72-59-46-125,55.54,54.67,108.47,79.83,203.93,97.19L260.15,188V163.67c0-53.81,41.66-98.06,93.73-98.93,19.95-.87,52.93,17.35,62.48,22.56,5.2,2.6,10.41,3.47,15.62,1.74,13-4.34,28.63-10.42,46-17.36a138.71,138.71,0,0,1-32.11,36.45c-3.47,2.6-4.34,7.81-2.6,12.15s6.94,6.07,11.28,4.34l33.84-11.28C482.31,124.62,472.76,137.63,456.27,143.71Z"/></svg>