<svg id="Layer_1" data-name="Layer 1" xmlns="http://www.w3.org/2000/svg" viewBox="0 0 506.96 506.96"><defs><style>.cls-1{fill:#fff;}</style></defs><title>whatsappwhite</title><path class="cls-1" d="M254.32,0c-138.49,0-251,112.47-251,250.13,0,43.64,11.75,85.61,33.57,124.22L0,507l135.13-36.09c39.45,21,80.58,32.74,119.19,32.74C391.13,503.61,507,387.78,507,250.12S393.65,0,254.32,0Zm0,486.82c-36.93,0-76.38-11.75-114.15-32.73l-3.36-1.68-113.31,31L54.56,371.83l-1.68-3.36c-21-36.09-32.74-77.22-32.74-118.34,0-128.42,104.92-233.34,234.18-233.34,130.1,0,235.86,104.92,235.86,233.34S381.9,486.82,254.32,486.82Z"/><path class="cls-1" d="M254.32,42c-115,0-209,93.16-209,208.15,0,41.13,11.76,79.74,32.74,114.15l3.36,4.2L58.75,448.21l82.26-21,4.2,2.51c34.41,21,72.18,31.9,109.11,31.9C370.15,461.64,465,366.79,465,250.12,465,135.13,370.15,42,254.32,42Zm-.84,403.72c-33.57,0-68-10.91-99.88-30.21l-10.07-6.72L82.26,423.87,99,365.11,92.33,354.2c-20.15-31.05-30.22-67.14-30.22-104.08,0-104.91,86.45-191.37,192.21-191.37,106.6,0,193.89,86.46,193.89,191.37C448.21,357.56,360.92,444.85,253.48,445.69Z"/><path class="cls-1" d="M380.22,296.29,327.34,272c-7.55-3.36-15.1-.84-20.14,5l-20.14,26C272,297.13,230,278.66,205.64,233.34l18.47-21.83a16.88,16.88,0,0,0,2.51-17.62L204,140.17c-2.52-5.87-7.55-10.07-14.27-10.07l-15.95-.84c-6.71,0-14.26,1.68-19.3,6.71-7.55,6.72-21.82,21-26,40.29-5.88,27.7,3.36,60.44,26.86,92.33,14.27,20.15,57.91,79.74,141.85,103.24a84.8,84.8,0,0,0,24.34,3.36,79.55,79.55,0,0,0,39.45-10.91c13.43-8.4,22.66-22.67,26-37.77l2.52-11.76C391.13,307.2,386.94,299.65,380.22,296.29Zm-10.91,26c-2.52,10.91-9.23,21-18.46,26.86-14.27,9.23-31.06,10.91-49.53,5.87-78-21.82-119.18-78.06-132.61-96.52-20.15-27.7-28.54-56.24-23.5-78.9,3.35-15.11,14.27-26,21-31.9a9.57,9.57,0,0,1,6.71-2.51l16.79,1.68,22.66,52.87-20.14,22.67a15.54,15.54,0,0,0-1.68,15.94c27.7,53.72,78.06,74.71,93.17,79.74a14.8,14.8,0,0,0,15.95-5l20.14-26.86,52.88,24.34Z"/></svg>