<?xml version="1.0" encoding="iso-8859-1"?>
<!-- Generator: Adobe Illustrator 22.1.0, SVG Export Plug-In . SVG Version: 6.00 Build 0)  -->
<svg version="1.1" id="Layer_1" xmlns="http://www.w3.org/2000/svg" xmlns:xlink="http://www.w3.org/1999/xlink" x="0px" y="0px"
	 viewBox="-96 187.865 418.135 418.135" style="enable-background:new -96 187.865 418.135 418.135;" xml:space="preserve">
<g>
	<path style="fill:#FFFFFF;" d="M102.929,188.107C-7.5,193.365-94.644,285.331-94.309,395.885
		c0.102,33.672,8.231,65.454,22.571,93.536l-22.017,106.873c-1.191,5.781,4.023,10.843,9.766,9.483l104.723-24.811
		c26.905,13.402,57.125,21.143,89.108,21.631c112.869,1.724,206.982-87.897,210.5-200.724
		C324.113,280.93,224.295,182.327,102.929,188.107z M227.886,510.062c-30.669,30.669-71.446,47.559-114.818,47.559
		c-25.396,0-49.71-5.698-72.269-16.935l-14.584-7.265l-64.206,15.212l13.515-65.607l-7.185-14.07
		c-11.711-22.935-17.649-47.736-17.649-73.713c0-43.373,16.89-84.149,47.559-114.819c30.395-30.395,71.837-47.56,114.822-47.56
		c43.372,0.001,84.147,16.891,114.816,47.559c30.669,30.669,47.559,71.445,47.56,114.817
		C275.446,438.226,258.281,479.668,227.886,510.062z"/>
	<path style="fill:#FFFFFF;" d="M213.712,440.216l-40.169-11.534c-5.281-1.516-10.968-0.018-14.816,3.903l-9.823,10.008
		c-4.142,4.22-10.427,5.576-15.909,3.358c-19.002-7.69-58.974-43.23-69.182-61.007c-2.945-5.128-2.458-11.539,1.158-16.218
		l8.576-11.095c3.36-4.347,4.069-10.185,1.847-15.21l-16.9-38.223c-4.048-9.155-15.747-11.82-23.39-5.356
		c-11.211,9.482-24.513,23.891-26.13,39.854c-2.851,28.144,9.219,63.622,54.862,106.222c52.73,49.215,94.956,55.717,122.449,49.057
		c15.594-3.777,28.056-18.919,35.921-31.317C227.568,454.205,223.334,442.979,213.712,440.216z"/>
</g>
</svg>
