<?xml version="1.0" encoding="iso-8859-1"?>
<!-- Generator: Adobe Illustrator 22.1.0, SVG Export Plug-In . SVG Version: 6.00 Build 0)  -->
<svg version="1.1" id="Layer_1" xmlns="http://www.w3.org/2000/svg" xmlns:xlink="http://www.w3.org/1999/xlink" x="0px" y="0px"
	 viewBox="0 0 340.157 226.772" style="enable-background:new 0 0 340.157 226.772;" xml:space="preserve">
<g>
	<path style="fill:#FFFFFF;" d="M170.682,100.043c13.244,0,24.042-10.798,24.042-24.042s-10.798-24.042-24.042-24.042
		c-13.244,0-24.025,10.798-24.025,24.042S157.437,100.043,170.682,100.043L170.682,100.043z M170.682,58.834
		c9.472,0,17.167,7.695,17.167,17.167s-7.695,17.167-17.167,17.167c-9.472,0-17.167-7.695-17.167-17.167
		S161.21,58.834,170.682,58.834L170.682,58.834z M170.682,58.834"/>
	<path style="fill:#FFFFFF;" d="M236.868,137.792h-24.578l10.463-15.102c19.746-26.338,16.896-69.624-6.12-92.64
		c-12.437-12.424-28.969-19.278-46.556-19.278c-17.583,0-34.114,6.854-46.552,19.278c-23.02,23.016-25.887,66.302-6.206,92.537
		l10.545,15.223h-25.797l-37.604,78.962h210.008L236.868,137.792z M122.903,118.583c-17.853-23.806-15.287-62.899,5.485-83.67
		c11.128-11.15,25.935-17.287,41.689-17.287c15.759,0,30.561,6.137,41.711,17.287c20.772,20.772,23.321,59.864,5.399,83.769
		l-47.11,68.014l-33.861-48.904L122.903,118.583z M106.405,144.667h26.205l37.466,54.096l37.453-54.096h24.995l31.063,65.229H75.342
		L106.405,144.667z M106.405,144.667"/>
</g>
</svg>
