<?xml version="1.0" encoding="utf-8"?>
<!-- Generator: Adobe Illustrator 22.1.0, SVG Export Plug-In . SVG Version: 6.00 Build 0)  -->
<svg version="1.1" id="Capa_1" xmlns="http://www.w3.org/2000/svg" xmlns:xlink="http://www.w3.org/1999/xlink" x="0px" y="0px"
	 viewBox="0 0 512 359" style="enable-background:new 0 0 512 359;" xml:space="preserve">
<style type="text/css">
	.st0{fill:#FFFFFF;}
</style>
<path class="st0" d="M460.6,36H50.5C40.3,36,32,44.3,32,54.5v250.7c0,10.2,8.2,18.4,18.4,18.4h410.1c10.2,0,18.4-8.2,18.4-18.4V54.5
	C479,44.3,470.8,36,460.6,36z M464.5,282.8L313.9,164l150.6-93.3V282.8z M50.5,50.5h410.1c1.7,0,3.3,1.1,3.8,2.8L255.5,183.7
	L46.7,53.3C47.2,51.6,48.7,50.5,50.5,50.5z M46.5,69.8l150.2,93.8L46.5,282.8V69.8z M460.6,309H50.5c-2.2,0-4-1.8-4-4v-3.9
	l163.2-129l41.9,26.2c2.4,1.5,5.4,1.5,7.7,0l41.9-26.2l163.2,129v3.9C464.5,307.2,462.8,309,460.6,309z"/>
</svg>
