<svg xmlns="http://www.w3.org/2000/svg" viewBox="0 0 792 612"><defs><style>.cls-1{fill:#fff;}</style></defs><title>LogoVeritas</title><g id="Foreground"><path class="cls-1" d="M464.91,424.14H48.66V180.38h422c.76-.89,1.51-1.8,2.32-2.66H46V426.79H466.84C466.2,425.91,465.52,425.05,464.91,424.14Z"/><path class="cls-1" d="M648,177.72c.81.86,1.56,1.77,2.33,2.66h93V424.14H656.1c-.6.9-1.21,1.78-1.86,2.65H746V177.72Z"/><path class="cls-1" d="M656.22,188c-10.07-15.22-26.34-27.46-43.88-33.56a182.12,182.12,0,0,0-103.72,0c-17.53,6.1-33.78,18.34-43.83,33.56-16.62,24.29-31.68,71.19-32.33,117.91v.14c.65,46.71,15.71,93.62,32.33,117.9,10,15.24,26.3,27.42,43.83,33.52a178,178,0,0,0,51.49,7.59h.74A174.76,174.76,0,0,0,612,457.52c17.53-6.07,34.18-18.31,44.25-33.55,16.57-24.28,31.63-71.19,32.26-117.9v-.14C687.85,259.21,672.79,212.31,656.22,188Zm1.91,218.59c-11.44,26-28.93,41.78-54.61,48.79a177.22,177.22,0,0,1-86.59,0c-25.67-7-43.15-22.81-54.57-48.79C452,383.89,441.29,341.17,441.86,306c-.57-35.18,10.15-77.88,20.5-100.6,11.42-26,28.9-41.78,54.57-48.8a177.86,177.86,0,0,1,86.59,0c25.68,7,43.17,22.82,54.61,48.8,10.34,22.72,21.06,65.42,20.49,100.6C679.19,341.17,668.47,383.89,658.13,406.61Z"/><path class="cls-1" d="M578.08,233.58a30.48,30.48,0,0,1-2.09-3.67Z"/><path class="cls-1" d="M623.49,216.63a41.57,41.57,0,0,0-26.91-23.06,139.29,139.29,0,0,0-35.89-4.77h-.39a139.17,139.17,0,0,0-35.89,4.77,41.63,41.63,0,0,0-26.93,23.06c-10.83,23.21-17.91,56.58-17.91,89.36s7.08,66.17,17.91,89.37a41.64,41.64,0,0,0,26.93,23.07,139.6,139.6,0,0,0,35.89,4.75h.39a139.72,139.72,0,0,0,35.89-4.75,41.59,41.59,0,0,0,26.91-23.07c10.8-23.2,17.91-56.56,17.91-89.37S634.29,239.84,623.49,216.63Zm-20.81,66.49c.32,0,1.91-.33,1.94-1.33v-20.7c2.86-.67,5.72-1.64,8.41-2.19v12.47c1.64-.18,2.44-.39,4.43-.7v16.46l-5.12.77-1.6,6.63H592.49l-2.73-5.9c-4.41-.42-4.74-.42-9.18-.73,4.18-5.4,8.48-10.77,11.38-16.68v-8.41l8.24-1.05v19.95c0,.7,1,1.41,2,1.41ZM592,207a7.29,7.29,0,0,1,6.57,1.2,6.89,6.89,0,0,1,2.46,7.2c-1.64,5.75-8.05,6.8-13.24,8.17l-2.84-3.88C586,214.74,586.51,209,592,207Zm-16,22.92,2.09,3.67-5.23,5.7c-1.41-1.35-1.53-1.48-2.92-2.95C572.61,233.52,572.88,233.22,576,229.91Zm-64.63-7.79v0a9.78,9.78,0,0,0,5.34,5.94c-.3-1.45-1.57-2.74-2-4.28-1.19-3-1.06-7.22.87-9.8,1.37-2,3.34-2.88,5.5-3.57a11.69,11.69,0,0,0-.06,7.87,20,20,0,0,0,2.59-2.22,8.22,8.22,0,0,1,1-.79c2,4.3,4.29,10.2,3,15.22l-.82,2.15c-.32-3.54-.9-5.22-3.28-6.5-.3,2,1,3.52,1.32,6.19,1,4.16.2,8.27-2.36,10.67h-6.62C510.74,237.56,510.38,229.45,511.36,222.12Zm15.25,27.32h-3.55l-1.53,12.64a14.14,14.14,0,0,0-5.13-2.95c-.9-5.36-1-5.75-1.48-9.69h-3.41v-3.75c5.89,0,9.18,0,15.09,0Zm-25.67,50.29,40.58,0v11.81l-40.58,0Zm15.7-23.68c1.69-.45,3.33.61,4.64,1.58-.21,6.84-.21,6.76-.34,14h-3.78v-1.15C517,285,516.77,281.43,516.64,276.05Zm-2.54,83.32a12.48,12.48,0,0,1-2.89-.35,9.18,9.18,0,0,1-5.7-3.75l-.3-.56L505,354l-.33-.75-.12-1.19V330c-.19-2.78-1.22-2.83-3.49-4.52l.81-.27,8.93-2.93a7.72,7.72,0,0,1,1.67,5v17.24c0,1.12,1,1.75,2.24,1.81,1.53,0,2.17-.57,2.27-1.78.12-7.72-.1-9.89,0-16.9a6.58,6.58,0,0,1,4.3-5.26,9.07,9.07,0,0,1,7.68.39c4,1.87,3.79,9.66,3.75,16a8.72,8.72,0,0,0-3.37-1.58,4.84,4.84,0,0,0-3.91.79c-1.29,1.16-1.42,2.31-1.45,4.36-.11,7.32.7,12.36-3,15.24A10.83,10.83,0,0,1,514.1,359.37ZM526,383.24c-1.93-1.27-2.38-2.53-3.06-4.29-1.64-7.49,7.4-10.18,9.55-16.4,1.68-10.4,2.19-21.38,9.42-29.47.71-15.29,5.66-28.81,16.52-39.92-.5-3.45-1.91-6.44-2.95-9.65a5.1,5.1,0,0,1-3.68-1.47,8.08,8.08,0,0,1-1.56-4c-3.78,4.7-8.48,9.94-13.63,13.12-1,.52-2.16-.59-3.87-2.18-6.33-5-7.41-16.31-17.05-15.82-4.38-1.47-4.16-6.63-4.89-10.49,1.62-1.2,4.28-1.13,6.2-.38,6,3.23,10.06,10,15.74,14.55,1.52,1.2,2.89,2.8,4.28,3.39,3.75-3.21,6.72-6,9.26-10.94a8.94,8.94,0,0,1,7.87-4.08l2.3-2.71-1.21-6.74a48.21,48.21,0,0,1-5.88-9.52c.81-3.85,1.33-8.36,5.24-10.51,2.56-1.58,4.64,2,6.74-.25a4.54,4.54,0,0,1,3.92,1c1.6,2.76,3.47,5.51,3.57,8.73a58.45,58.45,0,0,1-3.92,8.93c-.34.63-1.25.85-1.83,1.31a9.47,9.47,0,0,0,1.58,3.83,9,9,0,0,0,3.65.2c1.14-3.42,4.81-4.94,7.88-5.87l6.72-4.38c-1.07-5.1,2.2-9.59.37-14.67-3.84-1.82-4.94-6.15-5.77-9.56a17.36,17.36,0,0,1,3.17-6.17l.24.27c3.66,4.26,7.05,8.67,8.21,14,.66,6.78,1.32,13.72.87,20.81-3.62,3.62-8,5.76-12.13,8.45l-3.07,5.88c-.37,6-2.13,11.52-3.08,17.38,2.63,7.1,5.72,16.53,3.44,23.1-1.75,3.91-5.43,6-8.16,8.21l-6.89,5.52c6.93,7.61,5.26,16.25,5.54,27.3-.07,2.66,4.72,4.88,2.17,7.93-2.14,3.4-5.45,6.17-4.9,10.64-2.12,3.55-7.17,4.33-9.57,4.29a.85.85,0,0,1-.92-.87c.5-1.83,1.92-3.26,2.69-5,2.46-3.77,1.33-9,4.38-12.48-2.49-8.2-6.31-15.8-7.36-24.56l0-.57c-2.07,4-.93,8,.14,11.15-6.79,8.57-14.14,16.79-14.14,28-2.92,5.15-7,9.85-9.19,15.3C528.17,384.52,526.8,383.72,526,383.24Zm45-27.07c4,.17,8,3.48,9.54,7.18a12.53,12.53,0,0,1-1.49,11.89c-3.06,3.71-7.29,5.67-12.22,4.79a12.58,12.58,0,0,1-8-5.5c2.54-.85,6.16-2.32,6.87-4.78-.19-3.85,2.45-6.94,4.42-10A3.75,3.75,0,0,0,571,356.17Zm3.77-3.42,0-34.81c5-.07,6.58.06,11.75,0v34.83Zm-25.3,53.13c-3.22,2.33-8.56,2.88-12.13.87a12.4,12.4,0,0,1-5-4.91,9.61,9.61,0,0,1-1.27-4.43h23.22A10.89,10.89,0,0,1,549.48,405.88Zm15.9.87h-8V392.42H545v-5.77h12.49l3.93-4.64c1.9,2.22,2,2.39,4,4.64h12.49v5.77h-12.5Zm25-4.91a12.35,12.35,0,0,1-5,4.91c-3.56,2-8.93,1.46-12.13-.87a10.82,10.82,0,0,1-4.78-8.46h23.19A9.41,9.41,0,0,1,590.39,401.84ZM608,371.3c-1.26,1.38-1.71,1.89-3.17,3.34l-3-3.58v-9.93c-4.18,2.05-3.16,8-3.16,13.12-2.48-2-3.72-3.15-6.09-5.39-1.35-5.94,2.19-9.3,4.89-13.48L608,365.45ZM599.38,330c5.33,5.28,10.15,10.08,14.93,14.79,1.8,1.92,3.2,4.68,2.05,7.22a20.9,20.9,0,0,1-2.15,3.72,6.86,6.86,0,0,0-2.48-5.3c-6.52-6.41-17.8-15.33-18.72-19.12-1-2.53-.66-5.61-.72-8.55,1.9-1.48,3.43-2.77,5.7-4.55C597.83,322.75,597.2,327.33,599.38,330Zm11.08-11.81c2.49,2,3.74,3.17,6.11,5.41,1.34,5.94-2.22,9.3-4.87,13.47L601.18,327v-5.86c1.25-1.37,1.69-1.88,3.15-3.3l3,3.56v9.9C611.48,329.3,610.46,323.36,610.46,318.21Zm6.38,51.5c-1.88,1.49-3.45,2.76-5.71,4.52.17-4.51.81-9.1-1.38-11.78-5.32-5.27-10.12-10.07-14.94-14.79-1.77-1.92-3.21-4.68-2-7.22a20.65,20.65,0,0,1,2.15-3.72,6.91,6.91,0,0,0,2.49,5.29c6.52,6.41,17.81,15.34,18.72,19.12C617.09,363.69,616.81,366.73,616.84,369.71Zm4.08-58.11-40.58-.07v-11.8l40.58,0Z"/><path class="cls-1" d="M564.59,452.46c-.12-6.44,6.19-9.69,10.15-13.95a4.38,4.38,0,0,0,.69-4.75,2.87,2.87,0,0,0-2-1.82,3.81,3.81,0,0,0-3.45.66,5.23,5.23,0,0,0-1.48,4.25l-4.42.26a8.45,8.45,0,0,1,1.71-6.66c2-2.19,5.15-2.8,8.14-2.61,2.41.39,5.22,1.85,6.21,4.36a8.05,8.05,0,0,1-1.17,8.53c-2.6,2.77-6,4.28-8.15,7.4l11.11-.66c.1,1.36.19,2.71.24,4Z"/><path class="cls-1" d="M525.07,424.63l-.07.21-7.26,22.25-4.63-1.54,5-15.19.09-.27c-1.87-.65-4.08-1.28-5.88-1.92l1-2.89c2.34.63,4.73,1,6.8-.67a7.45,7.45,0,0,0,1.26-1.19Z"/><path class="cls-1" d="M607.6,441.34a5.46,5.46,0,0,1-2.79,1.48,5.39,5.39,0,0,1-3.17,0,3.67,3.67,0,0,1-.93-6.38,8.34,8.34,0,0,1,2.26-1,7.82,7.82,0,0,1,2.45-.13,3.68,3.68,0,0,1,2.18,6.07Zm-9.72-10.73a3,3,0,0,1,.42-3.55,4.88,4.88,0,0,1,2.3-1.26,4.47,4.47,0,0,1,2.64.05,3.09,3.09,0,0,1,2,2.95,2.85,2.85,0,0,1-.95,2.06,5,5,0,0,1-2.21,1.07,5.29,5.29,0,0,1-2.43.08,2.87,2.87,0,0,1-1.8-1.4Zm15.3,6.35a6,6,0,0,0-4.24-4.65l-1.41-.3c1.45-1,2.79-3.1,2.3-5.11a5.8,5.8,0,0,0-4.07-4.52,11,11,0,0,0-6,.07,11.24,11.24,0,0,0-5.33,2.71,5.8,5.8,0,0,0-1.46,5.91c.5,2,2.62,3.2,4.38,3.43l-1.11.93a6,6,0,0,0-1.58,6.1,7,7,0,0,0,4.92,5.11,13.37,13.37,0,0,0,6.12-.09,12.37,12.37,0,0,0,5.45-2.78A7.05,7.05,0,0,0,613.18,437Z"/><path class="cls-1" d="M546.44,447.82a5.34,5.34,0,0,1-3.11.61,5.54,5.54,0,0,1-3-1,3.69,3.69,0,0,1,1-6.39,7.69,7.69,0,0,1,2.46-.27,7.17,7.17,0,0,1,2.39.57,3.66,3.66,0,0,1,.25,6.44Zm-6.09-13.11a3.09,3.09,0,0,1,1.49-3.28,4.53,4.53,0,0,1,2.56-.5,4.74,4.74,0,0,1,2.49.82,3.11,3.11,0,0,1,1.07,3.42,2.93,2.93,0,0,1-1.53,1.7,5.21,5.21,0,0,1-2.43.34,4.79,4.79,0,0,1-2.32-.65,2.84,2.84,0,0,1-1.33-1.85Zm12.72,10.6a6,6,0,0,0-2.66-5.69l-1.25-.71c1.68-.54,3.56-2.11,3.7-4.18a5.89,5.89,0,0,0-2.52-5.57,11.23,11.23,0,0,0-5.72-1.7,11.05,11.05,0,0,0-5.89,1,5.84,5.84,0,0,0-3.2,5.21c-.1,2.06,1.58,3.85,3.2,4.6l-1.35.56a5.86,5.86,0,0,0-3.32,5.34,7,7,0,0,0,3.18,6.32,13.23,13.23,0,0,0,11.91.72A7,7,0,0,0,553.07,445.31Z"/><path class="cls-1" d="M85.63,326.05h4.73a6.73,6.73,0,0,0,3.46-.67,3.27,3.27,0,0,0,1.31-3,3.32,3.32,0,0,0-1.31-3.07,6.85,6.85,0,0,0-3.46-.66H85.63v7.44Zm0-12.09h4.73c2.61,0,3.92-1.09,3.92-3.3s-1.31-3.29-3.92-3.29H85.63V314Zm4.59,16.74H79.58v-28H90.14a13.64,13.64,0,0,1,7,1.59,6.13,6.13,0,0,1,3.19,5.66,5.81,5.81,0,0,1-1.41,3.87,8.52,8.52,0,0,1-3.54,2.32,8.25,8.25,0,0,1,4.44,2.37,7.16,7.16,0,0,1,1.75,4.92q0,3.72-4.06,5.7A16.36,16.36,0,0,1,90.22,330.7Z"/><path class="cls-1" d="M124.26,302.72h6v17.52a10.09,10.09,0,0,1-3.56,8.28,13,13,0,0,1-8.64,2.76,13,13,0,0,1-8.66-2.76,10.14,10.14,0,0,1-3.54-8.28V302.72h6v15.2q0,4.5.85,6.27,1.33,2.74,5.31,2.75t5.29-2.75q.85-1.77.86-6.27Z"/><path class="cls-1" d="M141.64,307.37v7.41h5.09c2.8,0,4.21-1.28,4.21-3.83,0-2.38-1.41-3.58-4.21-3.58Zm0,12.06V330.7h-6v-28h12a12.94,12.94,0,0,1,6.7,1.51,6.3,6.3,0,0,1,3.09,5.77,6.39,6.39,0,0,1-1.56,4.43,8.22,8.22,0,0,1-4.31,2.44c2.06.22,3.43,1,4.12,2.32a21.73,21.73,0,0,1,1,4.89c.27,2.05.43,3.18.45,3.4a8.13,8.13,0,0,0,1.19,3.22h-6.67c-.37-1.75-.73-4.26-1.07-7.51-.25-2.52-1.1-3.76-2.53-3.76Z"/><polygon class="cls-1" points="161.54 330.7 161.54 302.72 180.41 302.72 180.41 307.37 167.57 307.37 167.57 313.92 179.59 313.92 179.59 318.57 167.57 318.57 167.57 326.05 180.84 326.05 180.84 330.7 161.54 330.7"/><path class="cls-1" d="M189.37,330.7H183.6l10.17-28h7.17l9.79,28h-6.08l-2-5.92H191.46l-2.09,5.92ZM193,320.13h8.08l-3.94-11.94Z"/><path class="cls-1" d="M232.56,302.72h6.06v17.52a10.1,10.1,0,0,1-3.57,8.28,14.93,14.93,0,0,1-17.3,0,10.16,10.16,0,0,1-3.53-8.28V302.72h6v15.2c0,3,.28,5.09.86,6.27q1.32,2.74,5.3,2.75t5.29-2.75c.58-1.18.86-3.27.86-6.27Z"/><polygon class="cls-1" points="263.2 330.7 252.84 302.72 259.42 302.72 266.83 324.78 274.2 302.72 280.15 302.72 269.78 330.7 263.2 330.7"/><polygon class="cls-1" points="282.82 330.7 282.82 302.72 301.7 302.72 301.7 307.37 288.86 307.37 288.86 313.92 300.88 313.92 300.88 318.57 288.86 318.57 288.86 326.05 302.13 326.05 302.13 330.7 282.82 330.7"/><path class="cls-1" d="M312.75,307.37v7.41h5.08q4.21,0,4.21-3.83c0-2.38-1.4-3.58-4.21-3.58Zm0,12.06V330.7h-6v-28h12a13,13,0,0,1,6.7,1.51,7,7,0,0,1,1.52,10.2,8.19,8.19,0,0,1-4.3,2.44c2.06.22,3.43,1,4.11,2.32a20.61,20.61,0,0,1,1,4.89c.28,2.05.43,3.18.46,3.4a8.3,8.3,0,0,0,1.18,3.22h-6.66c-.37-1.75-.73-4.26-1.07-7.51-.26-2.52-1.1-3.76-2.53-3.76Z"/><rect class="cls-1" x="332.8" y="302.72" width="6.03" height="27.98"/><polygon class="cls-1" points="341.73 307.37 341.73 302.72 364.54 302.72 364.54 307.37 356.14 307.37 356.14 330.7 350.1 330.7 350.1 307.37 341.73 307.37"/><path class="cls-1" d="M371.31,330.7h-5.77l10.16-28h7.18l9.79,28H386.6l-2-5.92H373.4l-2.09,5.92ZM375,320.13H383l-3.94-11.94Z"/><path class="cls-1" d="M416.7,310.7h-5.82c-.24-2.82-1.79-4.22-4.68-4.22a5.14,5.14,0,0,0-3.08.89,3.16,3.16,0,0,0-1.39,2.71A3,3,0,0,0,403.4,313a18.2,18.2,0,0,0,3.47,1.08,33.87,33.87,0,0,1,6.89,2.25q3.71,2,3.71,5.65a8.14,8.14,0,0,1-3.79,7.28,15.21,15.21,0,0,1-8.33,2.06q-10.8,0-10.8-9.07v-.45h6.15a4,4,0,0,0,0,.62,4.42,4.42,0,0,0,1.15,3.14,4.58,4.58,0,0,0,3.61,1.42,8.17,8.17,0,0,0,3.71-.73,3.18,3.18,0,0,0,1.91-3,3.28,3.28,0,0,0-2.31-3.1c-.13-.05-1.52-.41-4.17-1.07a20.75,20.75,0,0,1-6.07-2.34,6.18,6.18,0,0,1-3.2-5.35,8,8,0,0,1,3.7-7,13.84,13.84,0,0,1,8-2.19,10.59,10.59,0,0,1,6.89,2.15A7.84,7.84,0,0,1,416.7,310.7Z"/><path class="cls-1" d="M99.82,357.78h-6v-.2a6.51,6.51,0,0,0-1.28-4.1,4.57,4.57,0,0,0-3.77-1.65c-1.8,0-3.13,1.36-4,4.08a26.85,26.85,0,0,0,0,14.73c.88,2.71,2.21,4.07,4,4.07a4.55,4.55,0,0,0,3.8-1.74,6.21,6.21,0,0,0,1.25-4v-.17h6c-.13,3.73-1.26,6.49-3.37,8.31a11.25,11.25,0,0,1-7.71,2.48,9.32,9.32,0,0,1-8.4-4.74c-1.77-2.88-2.67-6.73-2.67-11.56s.9-8.67,2.67-11.56a9.33,9.33,0,0,1,8.4-4.72c3.27,0,5.84.81,7.71,2.45C98.56,351.27,99.69,354,99.82,357.78Z"/><path class="cls-1" d="M120,369.77H108a10.47,10.47,0,0,0,.49,3.73,2.66,2.66,0,0,0,2.67,1.73,3.24,3.24,0,0,0,3.34-2.81h4.93q-.6,7.14-8.27,7.15-8.82,0-8.82-11.49a13.6,13.6,0,0,1,2.31-8.23,7.57,7.57,0,0,1,6.51-3.34,7.76,7.76,0,0,1,7.81,5.2,23,23,0,0,1,1.06,8.06Zm-12-4.33h6.36c0-3.06-1.07-4.6-3.2-4.6S108.1,362.38,108,365.44Z"/><path class="cls-1" d="M123.06,357.16h5l.18,3.93a5.77,5.77,0,0,1,6-4.18h.3v5.74h-2.38a3,3,0,0,0-2.67,1.62,8.87,8.87,0,0,0-.73,3.85v10.79h-5.44l0-17.41C123.24,361.26,123.19,359.81,123.06,357.16Z"/><path class="cls-1" d="M135.38,357.16h3.69v-4.29l5.48-2.33v6.62h4.14v4.34h-4.14v10.09a7.75,7.75,0,0,0,.29,2.64,1.91,1.91,0,0,0,2,1l1.75-.13v3.81a8.67,8.67,0,0,1-2.07.49c-1,.11-1.74.17-2.22.17-2,0-3.43-.64-4.22-1.91a11.29,11.29,0,0,1-1-5.46V361.5h-3.69Z"/><path class="cls-1" d="M151.9,357.16h5.48v21.75H151.9V357.16Zm-.18-9.53h5.85v5.6h-5.85Z"/><path class="cls-1" d="M171.74,347.28v4a7,7,0,0,0-1.07-.08,2.31,2.31,0,0,0-2.26,1.1,6.36,6.36,0,0,0-.51,3.05c0,.45,0,1,0,1.78h3.32v4.34h-3.32v17.41h-5.48V361.5h-2.74v-4.34h2.74v-1.07c0-3,.28-5.11.84-6.33q1.33-2.77,5.45-2.77A18.59,18.59,0,0,1,171.74,347.28Z"/><path class="cls-1" d="M174.22,357.16h5.48v21.75h-5.48V357.16Zm-.18-9.53h5.85v5.6H174Z"/><path class="cls-1" d="M199.54,364.78h-5.41c0-2.62-1-3.94-2.79-3.94-1,0-1.68.94-2.06,2.82a24.36,24.36,0,0,0-.37,4.08,43.43,43.43,0,0,0,.44,4.51c.38,2,1.07,3,2.07,3a2.32,2.32,0,0,0,2.16-1.48,6.51,6.51,0,0,0,.62-2.77h5.34a9.49,9.49,0,0,1-2.23,6.38,7.69,7.69,0,0,1-5.89,2.21,7,7,0,0,1-6.14-3.6,16.45,16.45,0,0,1,0-15.87,6.94,6.94,0,0,1,6.14-3.59,7.72,7.72,0,0,1,8.12,8.27Z"/><path class="cls-1" d="M212.88,368.7h-.41q-5.4,0-5.4,3.4a3.24,3.24,0,0,0,.77,2.22,2.31,2.31,0,0,0,1.89.91,2.74,2.74,0,0,0,2.7-2.3,15,15,0,0,0,.45-4.23Zm-5-5.38h-5.26a6.2,6.2,0,0,1,2.48-5.42,9.31,9.31,0,0,1,5.4-1.39q7.84,0,7.84,8.14v11.87l.25,2.39h-4.92c-.14-1.1-.22-2.07-.28-2.9a5.85,5.85,0,0,1-5.61,3.56,5.64,5.64,0,0,1-4.29-1.69A6.84,6.84,0,0,1,201.8,373a8.65,8.65,0,0,1,.69-3.37,6.83,6.83,0,0,1,3.22-3.51,13.66,13.66,0,0,1,6.17-1.19h1v-2a2.87,2.87,0,0,0-.55-1.69,2.29,2.29,0,0,0-2-1,2.18,2.18,0,0,0-2,1.18,3.14,3.14,0,0,0-.49,1.67Z"/><path class="cls-1" d="M220.66,357.16h3.69v-4.29l5.49-2.33v6.62H234v4.34h-4.14v10.09a7.83,7.83,0,0,0,.28,2.64,1.93,1.93,0,0,0,2,1l1.75-.13v3.81a8.67,8.67,0,0,1-2.07.49c-1,.11-1.75.17-2.23.17-2,0-3.43-.64-4.22-1.91a11.29,11.29,0,0,1-1-5.46V361.5h-3.69Z"/><path class="cls-1" d="M237.19,357.16h5.48v21.75h-5.48V357.16Zm-.18-9.53h5.84v5.6H237Z"/><path class="cls-1" d="M265.75,368a13,13,0,0,1-2.55,8.37,9.37,9.37,0,0,1-14,0,15,15,0,0,1,0-16.71,9.37,9.37,0,0,1,14,0,12.87,12.87,0,0,1,2.55,8.36Zm-13.47,0c0,4.79,1.31,7.19,3.9,7.19s3.91-2.4,3.91-7.19-1.3-7.2-3.91-7.2S252.28,363.24,252.28,368Z"/><path class="cls-1" d="M275.17,357.16v2.52l.07.12a6.09,6.09,0,0,1,9.07-2.07,5.44,5.44,0,0,1,2.6,3.53,17.14,17.14,0,0,1,.36,3.48v14.17h-5.48V365.84q0-5-3.29-5a2.8,2.8,0,0,0-2.3,1.34,6.09,6.09,0,0,0-1,3.66v13.07h-5.47V357.16Z"/><polygon class="cls-1" points="657.78 219.69 636.12 229.03 634.19 224.54 655.83 215.18 657.78 219.69"/><path class="cls-1" d="M576.21,182.28,570.66,158l5.13.52c1,6,2.09,12.81,3.3,17.87,2.21-4.72,4.61-11.17,6.8-16.83l5.07.5L580.7,182.73Z"/><polygon class="cls-1" points="484.14 196.15 478.89 205.57 474.45 203.1 480.45 192.3 477.08 190.39 468.65 205.51 489.21 217 497.66 201.88 494.24 199.96 488.2 210.79 482.43 207.56 487.72 198.14 484.14 196.15"/><path class="cls-1" d="M468.54,307h-6.61c.11-5.23-.7-8.31,2.42-8.92a3.33,3.33,0,0,1,3.22.65c1.34,1.29.94,3.43,1,8.27Zm-10.16,0h-5.79c.18-5.37-.7-8.27,2.6-8.61,2-.16,2.48.27,2.93,1.46s.26,2.48.26,7.15Zm13.3-10.66c-1.12-2.55-3.85-3.55-6.67-3.41a6.5,6.5,0,0,0-5.18,4.34,4.79,4.79,0,0,0-4-3.49c-2.36-.29-4.63.36-5.76,2.35-1.56,2-.88,10.75-1,15.8l23.41,0v-1.7C472.33,300.86,472.88,299.73,471.68,296.3Z"/><polygon class="cls-1" points="657.97 232.8 661.71 231.83 666.47 250.25 662.71 251.22 660.96 244.41 642.02 249.29 640.82 244.52 659.72 239.64 657.97 232.8"/><path class="cls-1" d="M539,183.63a10.88,10.88,0,0,1-7.49-1.13,5.67,5.67,0,0,1-2.89-4.21l-2.72-16.83,4.79-.79,2.73,16.84a3.35,3.35,0,0,0,2.77,2.49,5.62,5.62,0,0,0,2.24,0Z"/><path class="cls-1" d="M539.05,183.63a11,11,0,0,0,6.75-3.44,5.66,5.66,0,0,0,1.42-4.89l-2.7-16.86-4.81.77,2.72,16.85a3.51,3.51,0,0,1-1.86,3.23,5.34,5.34,0,0,1-2.14.73Z"/><path class="cls-1" d="M655.24,273.62l-.82-5.84,10.17,1.55h0l-9.35,4.28Zm13.6-7.44-24.47-4.9.69,4.77,5.3,1,1.17,8.43-4.82,2.4.63,4.79,22.22-11.43Z"/><path class="cls-1" d="M665.31,306.68l.43-.08.54-.14.38-.15c1.57-.84,1.94-2.91,1.83-4.58s-.56-3.43-2.16-4.07a2.08,2.08,0,0,0-2.43.57c-2.67,3.93-.82,12.28-7.66,13.72a6.94,6.94,0,0,1-7.18-3.18c-2.12-3.78-2.28-9.72.14-13.42a7.32,7.32,0,0,1,5.84-3.11l.29,4.52a4.41,4.41,0,0,0-3.58,2.41c-1,2.36-.77,6.1,1,7.49a2.66,2.66,0,0,0,2.88.2c2.74-2,2.17-6.82,3.54-10.1a6.84,6.84,0,0,1,3-3.48,6.93,6.93,0,0,1,7.45,1.24c3.14,3,3.26,8.77,1.83,12.3a7,7,0,0,1-6.21,4.37l-.3-4.5Z"/><path class="cls-1" d="M475.65,271.14a10.91,10.91,0,0,1-3.41,6.74,5.65,5.65,0,0,1-4.89,1.46l-16.84-2.65.73-4.78,16.85,2.61a3.38,3.38,0,0,0,3.22-1.85,5.28,5.28,0,0,0,.75-2.12Z"/><path class="cls-1" d="M475.65,271.08a10.72,10.72,0,0,0-1.16-7.47,5.64,5.64,0,0,0-4.22-2.9l-16.84-2.62-.77,4.77,16.86,2.68a3.39,3.39,0,0,1,2.49,2.74,6,6,0,0,1,.05,2.27Z"/><path class="cls-1" d="M504.66,185.63,502,175.7v0h0v0l0,.05,7.62,6.88-5,3.07Zm-2.87-15.25L497.48,173l5.16,24.4,4.14-2.49-1.21-5.28,7.25-4.42,4.15,3.51,4.11-2.51Z"/><polygon class="cls-1" points="616.15 178.04 606.25 173.88 608.2 169.19 619.59 173.96 621.11 170.37 605.14 163.68 596.03 185.43 612 192.09 613.52 188.49 602.08 183.71 604.62 177.63 614.61 181.83 616.15 178.04"/><path class="cls-1" d="M468,238.68l-5.91-1.75c1.3-4,1.87-8.07,4.7-7.84a3.78,3.78,0,0,1,2.59,1.33c1.1,1.35-.31,4.37-1.38,8.26Zm4.69-8.44c0-1.6-.09-3-1.44-4.24a6.81,6.81,0,0,0-5.36-1.81c-5.25.8-5.93,6.82-8.86,16.36l22.57,6.73,1.42-4.72-8.93-2.64-.35-.1a30,30,0,0,1,1.91-5.54c1.61-3.72,7.6-.07,10-.4l1.39-4.69C481,229.4,475.57,225.79,472.69,230.24Z"/><path class="cls-1" d="M640.9,198a3.7,3.7,0,0,1-2.59,1.28c-1.78.1-3.36-2.83-5.87-6l4.88-3.76c2.51,3.41,5.44,6.28,3.58,8.45Zm-3.54-14.65-18.69,14.27,3,3.91,7.4-5.64.34-.22a29.32,29.32,0,0,1,3.29,4.79c2.09,3.5-4.43,6.17-5.5,8.31l3,3.87c2.2-3.42,8.28-5.64,6.37-10.57,1.32.95,2.46,1.67,4.3,1.33a6.78,6.78,0,0,0,4.62-3.29C647.84,195.4,643.38,191.31,637.36,183.36Z"/></g></svg>