<?xml version="1.0" encoding="iso-8859-1"?>
<!-- Generator: Adobe Illustrator 22.1.0, SVG Export Plug-In . SVG Version: 6.00 Build 0)  -->
<svg version="1.1" id="Layer_1" xmlns="http://www.w3.org/2000/svg" xmlns:xlink="http://www.w3.org/1999/xlink" x="0px" y="0px"
	 viewBox="0 0 870 691" style="enable-background:new 0 0 870 691;" xml:space="preserve">
<rect style="display:none;fill:#0000FF;" width="870" height="691"/>
<g style="display:none;">
	<g style="display:inline;">
		<path style="fill:#FFFFFF;" d="M58.805,690.809c-8.833,0-15.994-7.161-15.994-15.994V18.114c0-8.833,7.16-15.994,15.994-15.994
			s15.994,7.16,15.994,15.994v656.701C74.799,683.648,67.638,690.809,58.805,690.809z"/>
	</g>
	<g style="display:inline;">
		<path style="fill:#FFFFFF;" d="M854.006,651.239H15.935c-8.833,0-15.994-7.161-15.994-15.994c0-8.832,7.16-15.994,15.994-15.994
			h838.071c8.833,0,15.994,7.161,15.994,15.994C870,644.077,862.84,651.239,854.006,651.239z"/>
	</g>
	<g style="display:inline;">
		<path style="fill:#FFFFFF;" d="M818.524,634.704c-3.865,0-6.997-3.134-6.997-6.997V78.027H62.395
			c-3.865,0-6.997-3.133-6.997-6.997s3.133-6.997,6.997-6.997h763.126v563.674C825.521,631.571,822.389,634.704,818.524,634.704z"/>
	</g>
	<g style="display:inline;">
		<path style="fill:#FFFFFF;" d="M250.444,642.242c-3.865,0-6.997-3.134-6.997-6.997V71.03c0-3.865,3.133-6.997,6.997-6.997
			c3.865,0,6.997,3.133,6.997,6.997v564.215C257.441,639.109,254.308,642.242,250.444,642.242z"/>
	</g>
	<g style="display:inline;">
		<path style="fill:#FFFFFF;" d="M440.46,642.242c-3.865,0-6.997-3.134-6.997-6.997V71.03c0-3.865,3.133-6.997,6.997-6.997
			c3.865,0,6.997,3.133,6.997,6.997v564.215C447.457,639.109,444.325,642.242,440.46,642.242z"/>
	</g>
	<g style="display:inline;">
		<path style="fill:#FFFFFF;" d="M629.689,642.242c-3.865,0-6.997-3.134-6.997-6.997V71.03c0-3.865,3.133-6.997,6.997-6.997
			s6.997,3.133,6.997,6.997v564.215C636.686,639.109,633.553,642.242,629.689,642.242z"/>
	</g>
	<g style="display:inline;">
		<path style="fill:#FFFFFF;" d="M818.524,262.257H62.139c-3.865,0-6.997-3.133-6.997-6.997c0-3.865,3.133-6.997,6.997-6.997
			h756.385c3.865,0,6.997,3.133,6.997,6.997C825.521,259.125,822.389,262.257,818.524,262.257z"/>
	</g>
	<g style="display:inline;">
		<path style="fill:#FFFFFF;" d="M818.524,450.251H62.139c-3.865,0-6.997-3.134-6.997-6.997c0-3.864,3.133-6.997,6.997-6.997
			h756.385c3.865,0,6.997,3.134,6.997,6.997C825.521,447.117,822.389,450.251,818.524,450.251z"/>
	</g>
	<g style="display:inline;">
		<path style="fill:#FFFFFF;" d="M182.963,229.568h-40.496c-6.268,0-11.367-5.099-11.367-11.366V111.439
			c0-6.267,5.099-11.366,11.367-11.366h40.496c6.267,0,11.366,5.099,11.366,11.366v106.763
			C194.329,224.469,189.23,229.568,182.963,229.568z M142.467,106.071c-2.961,0-5.369,2.408-5.369,5.368v106.763
			c0,2.96,2.408,5.368,5.369,5.368h40.496c2.96,0,5.368-2.408,5.368-5.368V111.439c0-2.96-2.408-5.368-5.368-5.368H142.467z"/>
	</g>
	<g style="display:inline;">
		<path style="fill:#FFFFFF;" d="M386.49,605.548h-32.713c-5.855,0-10.618-4.764-10.618-10.619v-64.672l-26.954,42.712
			c-1.42,2.06-3.554,3.29-5.923,3.481c-2.374,0.168-4.673-0.681-6.32-2.397l-16.726-19.434v42.973c0,4.387-3.57,7.956-7.957,7.956
			h-10.383c-4.387,0-7.956-3.569-7.956-7.956V485.261c0-4.387,3.569-7.956,7.956-7.956h14.826c1.481,0,3.94,0.002,36.586,35.351
			l24.689-30.701c2.025-3.053,5.923-4.651,8.78-4.651h32.713c5.855,0,10.618,4.764,10.618,10.619v107.005
			C397.108,600.784,392.345,605.548,386.49,605.548z M349.157,509.515v85.414c0,2.548,2.072,4.621,4.62,4.621h32.713
			c2.548,0,4.62-2.073,4.62-4.621V487.924c0-2.548-2.072-4.621-4.62-4.621h-32.713c-1.174,0-3.095,0.881-3.811,2.015l-0.199,0.279
			l-29.15,36.246l-2.359-2.563c-14.786-16.064-31.602-33.495-35.19-35.976h-14.171c-1.08,0-1.958,0.879-1.958,1.958v112.331
			c0,1.08,0.879,1.958,1.958,1.958h10.383c1.081,0,1.959-0.879,1.959-1.958v-59.137l27.159,31.564
			c0.429,0.441,1.069,0.476,1.403,0.453c0.333-0.027,0.959-0.168,1.402-0.808L349.157,509.515z"/>
	</g>
	<g style="display:inline;">
		<path style="fill:#FFFFFF;" d="M776.536,229.568h-99.327c-6.267,0-11.366-5.099-11.366-11.366V111.439
			c0-6.267,5.099-11.366,11.366-11.366h95.88c4.104,0,7.442,3.339,7.442,7.442v13.116c0,4.104-3.339,7.442-7.442,7.442h-44.017
			v19.326h44.017c4.104,0,7.442,3.339,7.442,7.442v13.116c0,4.104-3.339,7.442-7.442,7.442h-44.017v30.857h47.465
			c3.863,0,7.005,3.142,7.005,7.005v9.299C783.541,226.425,780.398,229.568,776.536,229.568z M677.208,106.071
			c-2.96,0-5.368,2.408-5.368,5.368v106.763c0,2.96,2.408,5.368,5.368,5.368h99.327c0.555,0,1.007-0.452,1.007-1.007v-9.299
			c0-0.555-0.452-1.007-1.007-1.007h-53.462v-42.852h50.015c0.797,0,1.445-0.648,1.445-1.445v-13.116
			c0-0.797-0.648-1.445-1.445-1.445h-50.015v-31.322h50.015c0.797,0,1.445-0.648,1.445-1.445v-13.116
			c0-0.797-0.648-1.445-1.445-1.445H677.208z"/>
	</g>
	<g style="display:inline;">
		<path style="fill:#FFFFFF;" d="M410.521,231.911h-14.778c-4.931,0-66.163-43.769-71.68-47.816l-7.574-4.896v43.997
			c0,4.805-3.91,8.714-8.714,8.714h-14.778c-4.805,0-8.714-3.91-8.714-8.714V108.788c0-4.805,3.91-8.714,8.714-8.714h14.778
			c0.957,0,3.497,0,44.103,30.285c19.494,14.54,29.753,22.641,35.151,27.328v-48.899c0-4.805,3.91-8.714,8.714-8.714h14.778
			c4.805,0,8.714,3.91,8.714,8.714v114.408C419.235,228.001,415.325,231.911,410.521,231.911z M396.179,225.913h14.342
			c1.498,0,2.717-1.218,2.717-2.717V108.788c0-1.498-1.218-2.717-2.717-2.717h-14.778c-1.498,0-2.717,1.218-2.717,2.717v56.033
			h-5.998c0,0.815,0.354,1.32,0.358,1.325c-3.368-4.703-72.221-56.289-80.114-60.074h-14.277c-1.498,0-2.717,1.218-2.717,2.717
			v114.408c0,1.498,1.218,2.717,2.717,2.717h14.778c1.498,0,2.717-1.218,2.717-2.717v-55.019l16.975,10.981
			C350.901,196.341,391.072,223.658,396.179,225.913z M306.994,105.947L306.994,105.947L306.994,105.947z"/>
	</g>
	<g style="display:inline;">
		<path style="fill:#FFFFFF;" d="M544.494,234.02c-33.934,0-60.498-15.529-72.88-42.604c-10.715-23.427-8.07-50.553,6.581-67.499
			c13.259-15.337,35.577-24.556,61.229-25.294c24.146-0.706,46.405,6.366,58.109,18.426l0,0c1.907,1.966,2.606,4.471,1.966,7.054
			c-1.205,4.855-7.271,9.71-15.455,12.37c-10.17,3.3-16.819-3.176-18.444-6.833c-0.645-1.452-1.987-4.471-11.333-4.471
			c-16.719,0-22.95,7.669-22.95,12.503c0,2.211-0.079,4.621-0.184,7.797c-0.195,5.934-0.491,14.902-0.491,30.622
			c0,22.149,3.383,27.889,7.482,29.277v-42.083c0-1.589-0.026-2.98-0.05-4.2c-0.089-4.702-0.142-7.54,1.841-9.561
			c1.855-1.89,4.696-2.044,7.948-2.044c3.468,0,7.497-0.062,12.085-0.133c6.184-0.096,13.193-0.204,21.278-0.204
			c2.64,0,4.862-0.12,6.824-0.225c4.718-0.254,8.122-0.436,10.559,1.873c2.343,2.22,2.802,5.883,2.802,11.46v53.584
			C601.413,231.216,584.633,234.02,544.494,234.02z M542.581,104.575c-0.994,0-1.986,0.015-2.984,0.043
			c-23.976,0.69-44.702,9.154-56.864,23.221c-13.144,15.203-15.421,39.75-5.665,61.083c11.365,24.849,35.94,39.101,67.426,39.101
			c43.846,0,50.921-4.183,50.921-14.188v-53.584c0-5.418-0.582-6.779-0.929-7.107c-0.566-0.535-3.383-0.384-6.111-0.238
			c-1.937,0.104-4.347,0.234-7.148,0.234c-8.038,0-15.022,0.107-21.185,0.203c-4.624,0.071-8.683,0.134-12.178,0.134
			c-2.397,0-3.299,0.151-3.638,0.269c-0.238,0.747-0.195,3.021-0.154,5.225c0.023,1.251,0.051,2.682,0.051,4.313v48.494h-2.999
			c-13.676,0-16.479-14.266-16.479-35.687c0-15.819,0.298-24.846,0.494-30.819c0.102-3.095,0.181-5.444,0.181-7.6
			c0-7.437,7.709-18.501,28.948-18.501c11.872,0,15.282,4.584,16.814,8.033c0.028,0.062,3.403,6.07,11.111,3.564
			c6.451-2.096,10.906-5.769,11.486-8.109c0.119-0.477,0.085-0.883-0.449-1.434C583.288,110.982,563.638,104.575,542.581,104.575z"
			/>
	</g>
	<g style="display:inline;">
		<path style="fill:#FFFFFF;" d="M740.911,607.814c-36.716,0-66.587-29.276-66.587-65.262s29.871-65.262,66.587-65.262
			c1.888,0,3.603-0.027,5.161-0.053c7.197-0.117,11.537-0.187,14.612,2.839c3.237,3.184,3.759,8.626,3.759,20.414
			c0,2.355-0.727,4.213-2.16,5.521c-2.612,2.386-6.459,2.038-10.18,1.702c-2.04-0.185-5.123-0.465-5.884,0.23
			c-0.202,0.184-0.322,0.724-0.322,1.445c0,15.25-0.097,29.166-0.183,41.445c-0.063,9.221-0.12,17.339-0.12,24.034
			c0,1.552,0.216,3.594,1.245,4.504c1.38,1.224,4.57,0.836,7.384,0.492c3.338-0.41,6.489-0.793,8.676,1.146
			c0.802,0.711,1.759,2.027,1.759,4.26c0,1.421,0.012,2.733,0.022,3.944c0.078,8.659,0.125,13.883-5.683,16.142
			C751.889,607.707,747.912,607.814,740.911,607.814z M749.74,483.195c-1.082,0-2.273,0.02-3.572,0.039
			c-1.587,0.027-3.334,0.055-5.258,0.055c-33.409,0-60.59,26.585-60.59,59.264c0,32.679,27.181,59.264,60.59,59.264
			c7.179,0,10.212-0.172,16.059-2.103c1.546-0.605,1.79-1.98,1.714-10.445c-0.011-1.152-0.021-2.392-0.023-3.729
			c-0.88-0.07-2.543,0.135-3.711,0.277c-3.872,0.471-8.684,1.06-12.086-1.954c-2.167-1.919-3.266-4.945-3.266-8.995
			c0-6.706,0.057-14.838,0.121-24.075c0.085-12.269,0.182-26.175,0.182-41.404c0-2.519,0.765-4.494,2.276-5.873
			c2.714-2.479,6.833-2.103,10.471-1.777c1.844,0.166,4.933,0.449,5.593-0.156c0.084-0.076,0.208-0.43,0.208-1.093
			c0-8.995-0.322-14.52-1.969-16.14C755.501,483.39,753.186,483.195,749.74,483.195z"/>
	</g>
	<g style="display:inline;">
		<path style="fill:#FFFFFF;" d="M480.872,606.625c-0.609,0-1.26-0.018-1.958-0.047c-1.185-0.051-2.568-0.109-4.209-0.109
			c-4.221,0-10.003,0-12.37-4.188c-2.297-4.063,0.348-9.442,2.585-13.178c26.765-54.795,38.225-79.631,43.735-91.568
			c3.123-6.769,4.548-9.857,5.959-12.392c4.052-7.286,7.607-7.77,12.581-7.675c0.422,0.008,0.86,0.016,1.318,0.016
			c9.325,0,12.523,6.663,13.04,7.909c8.885,18.653,22.156,47.109,32.822,69.98c8.361,17.927,14.964,32.085,16.049,34.217
			c1.182,2.321,3.642,7.15,1.089,11.189c-2.295,3.631-7.801,5.211-17.335,4.94c-20.378,0.002-29.297,0.019-32.59,0.027l-1.446,0.002
			c-3.656,0-5.207-4.092-6.944-12.15c-1.171-5.439-1.24-5.775-11.788-5.511c-14.553,0-19.397,0.105-21.998,0.162
			c-0.99,0.021-1.666,0.035-2.41,0.035c-0.36,0-1.109,0-1.31,0.072c-0.028,0.037-0.504,0.525-1.342,3.106
			C489.416,604.175,488.163,606.625,480.872,606.625z M525.992,483.451c-2.718,0-3.821,0.443-6.138,4.61
			c-1.3,2.337-2.696,5.361-5.755,11.987c-5.521,11.966-17.012,36.865-43.848,91.804l-0.125,0.23
			c-3.399,5.65-2.606,7.185-2.571,7.247c0.645,1.142,5.541,1.142,7.15,1.142c1.741,0,3.207,0.063,4.463,0.115
			c3.466,0.143,4.07,0.08,4.638-0.502c1.187-1.218,2.642-4.83,4.896-10.635c1.789-5.521,3.665-7.163,8.3-7.163
			c0.704,0,1.344-0.014,2.28-0.035c2.624-0.057,7.51-0.162,22.056-0.162c12.843-0.295,15.822,1.414,17.724,10.246
			c1,4.639,1.732,6.605,2.124,7.413h0.389c3.294-0.008,12.217-0.025,32.685-0.025c10.12,0.277,11.926-1.742,12.183-2.148
			c0.73-1.154-0.845-4.246-1.363-5.264c-1.133-2.224-7.756-16.425-16.141-34.405c-10.677-22.893-23.965-51.388-32.84-70.016
			l-0.102-0.242c-0.194-0.48-1.868-4.168-7.484-4.168c-0.498,0-0.973-0.01-1.43-0.018
			C526.69,483.457,526.328,483.451,525.992,483.451z"/>
	</g>
	<g style="display:inline;">
		<path style="fill:#FFFFFF;" d="M523.923,570.057h-23.092c-1.037,0-2.001-0.537-2.548-1.417c-0.547-0.88-0.6-1.982-0.14-2.911
			l12.031-24.307c0.513-1.039,1.598-1.636,2.736-1.669c1.158,0.019,2.201,0.703,2.681,1.757l11.06,24.307
			c0.423,0.927,0.345,2.007-0.208,2.864C525.893,569.54,524.943,570.057,523.923,570.057z M505.661,564.06h13.602l-6.515-14.319
			L505.661,564.06z"/>
	</g>
	<g style="display:inline;">
		<path style="fill:#FFFFFF;" d="M150.291,584.757c-6.107,0-11.076-4.969-11.076-11.076v-68.536c0-6.107,4.969-11.076,11.076-11.076
			c6.108,0,11.077,4.969,11.077,11.076v68.536C161.367,579.788,156.398,584.757,150.291,584.757z M150.291,500.067
			c-2.8,0-5.078,2.278-5.078,5.078v68.536c0,2.8,2.278,5.078,5.078,5.078c2.801,0,5.079-2.278,5.079-5.078v-68.536
			C155.37,502.346,153.091,500.067,150.291,500.067z"/>
	</g>
	<g style="display:inline;">
		<path style="fill:#FFFFFF;" d="M150.291,605.548c-35.125,0-63.701-29.615-63.701-66.019s28.576-66.019,63.701-66.019
			s63.701,29.615,63.701,66.019S185.415,605.548,150.291,605.548z M150.291,479.507c-31.818,0-57.703,26.925-57.703,60.021
			s25.885,60.021,57.703,60.021s57.703-26.925,57.703-60.021S182.108,479.507,150.291,479.507z"/>
	</g>
	<g style="display:inline;">
		<path style="fill:#FFFFFF;" d="M661.915,327.316c-60.295-52.287-120.214-80.596-178.091-84.143
			c-53.997-3.312-103.231,15.63-142.367,54.768c-33.672,33.672-104.472,110.296-168.221,180.018
			c10.101,4.058,18.964,10.702,25.822,19.158c62.897-68.774,132.054-143.595,165.017-176.558
			c70.155-70.149,173.66-58.59,276.884,30.923c6.672,5.786,16.773,5.067,22.561-1.605
			C669.307,343.204,668.589,333.102,661.915,327.316z"/>
		<path style="fill:#FFFFFF;" d="M155.37,505.145c0-1.987-1.159-3.694-2.827-4.528c-2.462,2.699-4.909,5.382-7.33,8.038v47.514
			c3.32-3.651,6.709-7.376,10.157-11.164V505.145z"/>
		<path style="fill:#FFFFFF;" d="M92.318,566.836c-26.905,29.665-44.763,49.464-45.391,50.16c-5.915,6.56-5.392,16.673,1.168,22.589
			c3.058,2.757,6.888,4.116,10.706,4.116c4.371,0,8.725-1.781,11.883-5.283c0.597-0.662,16.814-18.641,41.579-45.958
			C103.696,585.833,96.802,577.02,92.318,566.836z"/>
	</g>
</g>
<g>
	<g>
		<path style="fill:#FF0707;" d="M58.86,689.821c-8.833,0-15.993-7.161-15.993-15.993V17.172c0-8.833,7.16-15.993,15.993-15.993
			s15.993,7.16,15.993,15.993v656.656C74.852,682.66,67.693,689.821,58.86,689.821z"/>
	</g>
	<g>
		<path style="fill:#FF0707;" d="M854.007,650.253H15.993C7.16,650.253,0,643.092,0,634.26s7.16-15.993,15.993-15.993h838.015
			c8.833,0,15.993,7.161,15.993,15.993S862.84,650.253,854.007,650.253z"/>
	</g>
	<g>
		<path style="fill:#FF0707;" d="M818.528,633.72c-3.864,0-6.997-3.133-6.997-6.997V77.081H62.45c-3.864,0-6.997-3.132-6.997-6.997
			c0-3.864,3.132-6.997,6.997-6.997h763.075v563.636C825.524,630.586,822.392,633.72,818.528,633.72z"/>
	</g>
	<g>
		<path style="fill:#FF0707;" d="M250.486,641.257c-3.864,0-6.997-3.133-6.997-6.997V70.084c0-3.864,3.132-6.997,6.997-6.997
			c3.864,0,6.997,3.132,6.997,6.997V634.26C257.482,638.124,254.35,641.257,250.486,641.257z"/>
	</g>
	<g>
		<path style="fill:#FF0707;" d="M440.489,641.257c-3.864,0-6.997-3.133-6.997-6.997V70.084c0-3.864,3.132-6.997,6.997-6.997
			c3.864,0,6.997,3.132,6.997,6.997V634.26C447.486,638.124,444.354,641.257,440.489,641.257z"/>
	</g>
	<g>
		<path style="fill:#FF0707;" d="M629.705,641.257c-3.864,0-6.997-3.133-6.997-6.997V70.084c0-3.864,3.132-6.997,6.997-6.997
			c3.864,0,6.997,3.132,6.997,6.997V634.26C636.702,638.124,633.569,641.257,629.705,641.257z"/>
	</g>
	<g>
		<path style="fill:#FF0707;" d="M818.528,261.298H62.194c-3.864,0-6.997-3.132-6.997-6.997s3.132-6.997,6.997-6.997h756.333
			c3.864,0,6.997,3.132,6.997,6.997S822.392,261.298,818.528,261.298z"/>
	</g>
	<g>
		<path style="fill:#FF0707;" d="M818.528,449.279H62.194c-3.864,0-6.997-3.133-6.997-6.997s3.132-6.997,6.997-6.997h756.333
			c3.864,0,6.997,3.133,6.997,6.997S822.392,449.279,818.528,449.279z"/>
	</g>
	<g>
		<path d="M183.01,228.611h-40.493c-6.268,0-11.366-5.098-11.366-11.365V110.49c0-6.267,5.098-11.365,11.366-11.365h40.493
			c6.267,0,11.365,5.098,11.365,11.365v106.756C194.375,223.513,189.276,228.611,183.01,228.611z M142.517,105.123
			c-2.961,0-5.369,2.408-5.369,5.368v106.756c0,2.96,2.408,5.368,5.369,5.368h40.493c2.96,0,5.368-2.408,5.368-5.368V110.49
			c0-2.96-2.408-5.368-5.368-5.368H142.517z"/>
	</g>
	<g>
		<path d="M386.523,604.565h-32.711c-5.855,0-10.617-4.763-10.617-10.618v-64.668l-26.952,42.709c-1.42,2.06-3.554,3.29-5.923,3.481
			c-2.374,0.168-4.673-0.681-6.319-2.397l-16.725-19.432v42.971c0,4.387-3.57,7.955-7.956,7.955h-10.382
			c-4.387,0-7.955-3.569-7.955-7.955V484.286c0-4.387,3.569-7.955,7.955-7.955h14.825c1.481,0,3.94,0.002,36.584,35.349
			l24.687-30.699c2.024-3.053,5.923-4.65,8.779-4.65h32.711c5.855,0,10.617,4.763,10.617,10.618v106.998
			C397.14,599.802,392.377,604.565,386.523,604.565z M349.192,508.539v85.408c0,2.548,2.072,4.621,4.62,4.621h32.711
			c2.548,0,4.62-2.073,4.62-4.621V486.949c0-2.548-2.072-4.621-4.62-4.621h-32.711c-1.174,0-3.095,0.88-3.811,2.015l-0.199,0.279
			l-29.148,36.243l-2.359-2.563c-14.785-16.063-31.6-33.492-35.188-35.974h-14.17c-1.08,0-1.958,0.878-1.958,1.958V596.61
			c0,1.08,0.878,1.958,1.958,1.958h10.382c1.081,0,1.959-0.878,1.959-1.958v-59.133l27.157,31.562
			c0.429,0.441,1.069,0.476,1.403,0.453c0.333-0.027,0.959-0.168,1.402-0.808L349.192,508.539z"/>
	</g>
	<g>
		<path d="M776.542,228.611h-99.321c-6.267,0-11.365-5.098-11.365-11.365V110.49c0-6.267,5.098-11.365,11.365-11.365h95.873
			c4.104,0,7.442,3.338,7.442,7.442v13.115c0,4.104-3.338,7.442-7.442,7.442H729.08v19.325h44.014c4.104,0,7.442,3.338,7.442,7.442
			v13.115c0,4.104-3.338,7.442-7.442,7.442H729.08v30.855h47.462c3.862,0,7.005,3.142,7.005,7.005v9.298
			C783.547,225.469,780.404,228.611,776.542,228.611z M677.221,105.123c-2.96,0-5.368,2.408-5.368,5.368v106.756
			c0,2.96,2.408,5.368,5.368,5.368h99.321c0.555,0,1.007-0.452,1.007-1.007v-9.298c0-0.555-0.452-1.007-1.007-1.007h-53.459v-42.849
			h50.011c0.797,0,1.445-0.648,1.445-1.445v-13.115c0-0.797-0.648-1.445-1.445-1.445h-50.011v-31.32h50.011
			c0.797,0,1.445-0.648,1.445-1.445v-13.115c0-0.797-0.648-1.445-1.445-1.445H677.221z"/>
	</g>
	<g>
		<path d="M410.552,230.953h-14.777c-4.93,0-66.158-43.766-71.675-47.813l-7.574-4.895v43.994c0,4.804-3.909,8.714-8.714,8.714
			h-14.777c-4.804,0-8.714-3.909-8.714-8.714V107.839c0-4.804,3.909-8.714,8.714-8.714h14.777c0.957,0,3.496,0,44.1,30.283
			c19.493,14.539,29.751,22.639,35.149,27.326v-48.896c0-4.804,3.909-8.714,8.714-8.714h14.777c4.804,0,8.714,3.909,8.714,8.714
			V222.24C419.266,227.044,415.356,230.953,410.552,230.953z M396.211,224.956h14.341c1.498,0,2.717-1.218,2.717-2.717V107.839
			c0-1.498-1.218-2.717-2.717-2.717h-14.777c-1.498,0-2.717,1.218-2.717,2.717v56.029h-5.997c0,0.815,0.354,1.32,0.358,1.325
			c-3.368-4.703-72.216-56.285-80.109-60.07h-14.276c-1.498,0-2.717,1.218-2.717,2.717V222.24c0,1.498,1.218,2.717,2.717,2.717
			h14.777c1.498,0,2.717-1.218,2.717-2.717v-55.015l16.974,10.98C350.937,195.387,391.105,222.701,396.211,224.956z
			 M307.032,104.999L307.032,104.999L307.032,104.999z"/>
	</g>
	<g>
		<path d="M544.516,233.063c-33.932,0-60.494-15.528-72.875-42.602c-10.714-23.426-8.07-50.55,6.581-67.494
			c13.259-15.336,35.574-24.554,61.225-25.292c24.144-0.706,46.402,6.365,58.105,18.425l0,0c1.907,1.966,2.606,4.471,1.966,7.053
			c-1.205,4.854-7.27,9.709-15.454,12.369c-10.169,3.3-16.818-3.175-18.443-6.833c-0.645-1.451-1.986-4.471-11.333-4.471
			c-16.718,0-22.948,7.668-22.948,12.502c0,2.211-0.079,4.621-0.183,7.796c-0.195,5.934-0.491,14.901-0.491,30.62
			c0,22.147,3.383,27.888,7.482,29.275v-42.08c0-1.589-0.026-2.98-0.05-4.199c-0.089-4.702-0.142-7.54,1.841-9.56
			c1.855-1.89,4.696-2.044,7.948-2.044c3.468,0,7.497-0.062,12.084-0.133c6.184-0.096,13.192-0.204,21.276-0.204
			c2.639,0,4.862-0.12,6.824-0.225c4.718-0.254,8.121-0.436,10.559,1.873c2.343,2.22,2.801,5.883,2.801,11.46v53.58
			C601.431,230.258,584.652,233.063,544.516,233.063z M542.603,103.626c-0.994,0-1.985,0.015-2.984,0.043
			c-23.974,0.69-44.699,9.153-56.861,23.22c-13.143,15.202-15.42,39.747-5.664,61.078c11.364,24.847,35.938,39.098,67.421,39.098
			c43.843,0,50.918-4.183,50.918-14.187v-53.58c0-5.417-0.582-6.778-0.929-7.106c-0.566-0.535-3.383-0.384-6.11-0.238
			c-1.937,0.104-4.347,0.234-7.147,0.234c-8.037,0-15.021,0.107-21.184,0.203c-4.624,0.071-8.682,0.134-12.177,0.134
			c-2.396,0-3.299,0.151-3.638,0.269c-0.238,0.747-0.195,3.021-0.154,5.224c0.023,1.251,0.051,2.681,0.051,4.312v48.49h-2.999
			c-13.675,0-16.478-14.265-16.478-35.685c0-15.818,0.298-24.844,0.494-30.817c0.102-3.095,0.181-5.444,0.181-7.599
			c0-7.436,7.708-18.499,28.946-18.499c11.871,0,15.281,4.584,16.813,8.032c0.028,0.062,3.403,6.069,11.11,3.564
			c6.45-2.096,10.905-5.769,11.485-8.109c0.119-0.477,0.085-0.883-0.449-1.434C583.307,110.033,563.658,103.626,542.603,103.626z"/>
	</g>
	<g>
		<path d="M740.92,606.832c-36.714,0-66.583-29.274-66.583-65.257s29.869-65.257,66.583-65.257c1.888,0,3.603-0.027,5.161-0.053
			c7.197-0.117,11.537-0.187,14.611,2.839c3.237,3.184,3.759,8.625,3.759,20.413c0,2.354-0.727,4.213-2.16,5.521
			c-2.612,2.386-6.459,2.038-10.179,1.702c-2.04-0.185-5.123-0.465-5.884,0.23c-0.202,0.184-0.322,0.724-0.322,1.445
			c0,15.249-0.097,29.164-0.182,41.442c-0.063,9.22-0.12,17.338-0.12,24.032c0,1.552,0.216,3.594,1.245,4.504
			c1.38,1.224,4.569,0.836,7.383,0.492c3.337-0.41,6.488-0.793,8.676,1.146c0.802,0.711,1.759,2.026,1.759,4.26
			c0,1.421,0.012,2.733,0.022,3.943c0.078,8.658,0.125,13.882-5.683,16.141C751.897,606.724,747.92,606.832,740.92,606.832z
			 M749.749,482.221c-1.082,0-2.273,0.02-3.572,0.039c-1.587,0.027-3.333,0.055-5.257,0.055c-33.407,0-60.585,26.583-60.585,59.26
			s27.179,59.26,60.585,59.26c7.178,0,10.211-0.172,16.058-2.103c1.546-0.605,1.79-1.98,1.714-10.444
			c-0.011-1.152-0.021-2.391-0.023-3.729c-0.879-0.07-2.543,0.135-3.711,0.277c-3.871,0.47-8.683,1.06-12.085-1.954
			c-2.167-1.919-3.266-4.945-3.266-8.994c0-6.706,0.057-14.837,0.121-24.073c0.085-12.268,0.182-26.174,0.182-41.401
			c0-2.518,0.765-4.494,2.275-5.872c2.714-2.479,6.833-2.103,10.47-1.777c1.844,0.166,4.932,0.449,5.592-0.156
			c0.084-0.076,0.208-0.43,0.208-1.093c0-8.994-0.322-14.519-1.969-16.139C755.509,482.416,753.194,482.221,749.749,482.221z"/>
	</g>
	<g>
		<path d="M480.898,605.643c-0.609,0-1.26-0.018-1.958-0.047c-1.185-0.051-2.568-0.109-4.209-0.109c-4.221,0-10.002,0-12.369-4.188
			c-2.297-4.063,0.348-9.441,2.585-13.178c26.763-54.791,38.223-79.626,43.732-91.561c3.123-6.768,4.548-9.857,5.958-12.391
			c4.052-7.286,7.607-7.77,12.58-7.674c0.422,0.008,0.86,0.016,1.318,0.016c9.325,0,12.523,6.663,13.039,7.908
			c8.885,18.652,22.155,47.105,32.82,69.976c8.36,17.925,14.963,32.083,16.048,34.215c1.182,2.321,3.642,7.149,1.089,11.188
			c-2.295,3.631-7.8,5.211-17.334,4.939c-20.376,0.002-29.295,0.02-32.588,0.027l-1.446,0.002c-3.656,0-5.207-4.092-6.943-12.149
			c-1.171-5.439-1.24-5.775-11.788-5.511c-14.552,0-19.395,0.105-21.997,0.162c-0.99,0.021-1.666,0.035-2.41,0.035
			c-0.36,0-1.109,0-1.31,0.072c-0.028,0.037-0.504,0.525-1.342,3.106C489.441,603.193,488.189,605.643,480.898,605.643z
			 M526.015,482.477c-2.717,0-3.82,0.443-6.138,4.609c-1.3,2.337-2.696,5.361-5.754,11.987
			c-5.521,11.965-17.011,36.862-43.845,91.798l-0.125,0.23c-3.399,5.65-2.606,7.184-2.571,7.247c0.645,1.142,5.54,1.142,7.149,1.142
			c1.74,0,3.207,0.062,4.463,0.115c3.466,0.143,4.069,0.08,4.638-0.502c1.187-1.218,2.641-4.83,4.895-10.634
			c1.789-5.521,3.664-7.163,8.3-7.163c0.704,0,1.344-0.014,2.28-0.035c2.624-0.057,7.509-0.162,22.054-0.162
			c12.842-0.295,15.821,1.413,17.722,10.245c1,4.638,1.732,6.604,2.124,7.413h0.389c3.293-0.008,12.216-0.025,32.682-0.025
			c10.119,0.277,11.925-1.741,12.182-2.147c0.73-1.154-0.845-4.246-1.363-5.263c-1.133-2.224-7.755-16.424-16.14-34.402
			c-10.677-22.892-23.964-51.385-32.837-70.011l-0.102-0.242c-0.194-0.48-1.868-4.168-7.484-4.168c-0.498,0-0.973-0.01-1.43-0.018
			C526.713,482.483,526.351,482.477,526.015,482.477z"/>
	</g>
	<g>
		<path d="M523.946,569.078h-23.09c-1.037,0-2.001-0.537-2.548-1.417c-0.547-0.88-0.6-1.982-0.14-2.911l12.031-24.305
			c0.513-1.039,1.598-1.636,2.736-1.669c1.158,0.02,2.201,0.703,2.68,1.757l11.059,24.305c0.423,0.927,0.345,2.007-0.208,2.864
			C525.916,568.56,524.966,569.078,523.946,569.078z M505.686,563.08h13.601l-6.515-14.318L505.686,563.08z"/>
	</g>
	<g>
		<path d="M150.339,583.776c-6.107,0-11.075-4.968-11.075-11.075V504.17c0-6.107,4.968-11.075,11.075-11.075
			c6.108,0,11.076,4.968,11.076,11.075v68.531C161.415,578.807,156.447,583.776,150.339,583.776z M150.339,499.092
			c-2.799,0-5.078,2.278-5.078,5.078v68.531c0,2.799,2.278,5.078,5.078,5.078c2.8,0,5.079-2.278,5.079-5.078V504.17
			C155.418,501.37,153.14,499.092,150.339,499.092z"/>
	</g>
	<g>
		<path d="M150.339,604.565c-35.123,0-63.696-29.613-63.696-66.015s28.574-66.015,63.696-66.015s63.696,29.613,63.696,66.015
			S185.462,604.565,150.339,604.565z M150.339,478.533c-31.815,0-57.699,26.923-57.699,60.017s25.884,60.017,57.699,60.017
			s57.699-26.923,57.699-60.017S182.155,478.533,150.339,478.533z"/>
	</g>
	<g>
		<path style="fill:none;" d="M161.415,572.701c0,6.107-4.968,11.075-11.076,11.075c-6.107,0-11.075-4.968-11.075-11.075v-10.913
			c-8.152,8.97-15.842,17.442-22.904,25.228c9.539,7.256,21.283,11.553,33.979,11.553c31.815,0,57.699-26.923,57.699-60.017
			c0-14.378-4.89-27.588-13.026-37.935c-11.533,12.617-22.817,24.988-33.597,36.824V572.701z"/>
		<path style="fill:none;" d="M150.339,577.779c2.8,0,5.079-2.278,5.079-5.078v-28.674c-3.448,3.788-6.837,7.513-10.156,11.164
			v17.51C145.261,575.5,147.54,577.779,150.339,577.779z"/>
		<path style="fill:none;" d="M150.339,499.092c-2.799,0-5.078,2.278-5.078,5.078v3.51c2.421-2.656,4.868-5.339,7.329-8.038
			C151.909,499.302,151.152,499.092,150.339,499.092z"/>
		<path style="fill:none;" d="M92.64,538.551c0,7.916,1.495,15.471,4.184,22.397c12.633-13.923,27.028-29.765,42.441-46.685V504.17
			c0-6.107,4.968-11.075,11.075-11.075c2.372,0,4.568,0.756,6.372,2.031c4.031-4.417,8.107-8.88,12.218-13.379
			c-5.837-2.073-12.086-3.214-18.589-3.214C118.524,478.533,92.64,505.456,92.64,538.551z"/>
		<path style="fill:#FF0707;" d="M661.93,326.352c-60.291-52.284-120.206-80.591-178.079-84.137
			c-53.994-3.312-103.224,15.629-142.357,54.764c-33.67,33.669-104.465,110.289-168.21,180.005
			c10.101,4.057,18.963,10.702,25.82,19.157c62.892-68.77,132.045-143.585,165.006-176.546
			c70.15-70.145,173.648-58.586,276.865,30.921c6.672,5.785,16.772,5.067,22.56-1.605
			C669.321,342.239,668.602,332.138,661.93,326.352z"/>
		<path style="fill:#FF0707;" d="M155.418,504.17c0-1.987-1.159-3.694-2.827-4.528c-2.462,2.699-4.909,5.382-7.329,8.038v47.511
			c3.32-3.651,6.709-7.376,10.156-11.164V504.17z"/>
		<path style="fill:#FF0707;" d="M92.37,565.857c-26.903,29.663-44.76,49.461-45.388,50.156c-5.914,6.56-5.392,16.672,1.167,22.587
			c3.058,2.757,6.887,4.115,10.705,4.115c4.371,0,8.725-1.78,11.882-5.283c0.597-0.662,16.813-18.64,41.576-45.954
			C103.748,584.852,96.854,576.04,92.37,565.857z"/>
	</g>
</g>
<g>
</g>
<g>
</g>
<g>
</g>
<g>
</g>
<g>
</g>
<g>
</g>
<g>
</g>
<g>
</g>
<g>
</g>
<g>
</g>
<g>
</g>
<g>
</g>
<g>
</g>
<g>
</g>
<g>
</g>
</svg>
