<?xml version="1.0" encoding="iso-8859-1"?>
<!-- Generator: Adobe Illustrator 22.1.0, SVG Export Plug-In . SVG Version: 6.00 Build 0)  -->
<svg version="1.1" xmlns="http://www.w3.org/2000/svg" xmlns:xlink="http://www.w3.org/1999/xlink" x="0px" y="0px"
	 viewBox="0 0 900 2413" style="enable-background:new 0 0 900 2413;" xml:space="preserve">
<g id="Layer_1">
	
		<rect x="-756.58" y="756.252" transform="matrix(1.419783e-04 1 -1 1.419783e-04 1655.8578 755.9105)" style="fill:#FFFFFF;" width="2413" height="899.5"/>
</g>
<g id="Layer_2">
	<polygon style="opacity:0.15;fill:#999999;" points="-0.136,1581.977 -0.136,176.502 449.864,590.222 899.864,176.502 
		899.864,1581.977 449.864,2004.5 	"/>
</g>
<g id="Layer_3">
	<g style="opacity:0.34;">
		<image style="overflow:visible;" width="682" height="162" xlink:href="C6CD3E07.png"  transform="matrix(1 0 0 1 109 2209.5)">
		</image>
	</g>
	<polygon style="fill:#FF0000;" points="669.132,2328.857 147.177,2328.857 237.532,2234.195 752.551,2234.195 	"/>
	<g>
		<path style="fill:#FFFFFF;" d="M324.043,2264.013v8h-3.234v-25h7.094c2.01,0.271,3.708,1.1,5.094,2.484
			c1.656,1.667,2.484,3.667,2.484,6c0,2.354-0.828,4.362-2.484,6.023c-1.656,1.662-3.656,2.492-6,2.492H324.043z M324.043,2250.263
			v10.5h2.953c1.438,0,2.669-0.513,3.695-1.539c1.026-1.025,1.539-2.268,1.539-3.727c0-1.447-0.513-2.682-1.539-3.703
			c-1.026-1.021-2.258-1.531-3.695-1.531H324.043z"/>
		<path style="fill:#FFFFFF;" d="M351.2,2257.06v-1.125h3.25v16.094h-3.25v-2.016c-1.563,1.615-3.375,2.422-5.438,2.422
			c-2.458,0-4.555-0.867-6.289-2.602s-2.602-3.83-2.602-6.289c0-2.458,0.867-4.555,2.602-6.289s3.831-2.602,6.289-2.602
			C347.825,2254.653,349.637,2255.456,351.2,2257.06z M351.2,2264.731v-2.375c-0.188-1.01-0.688-1.927-1.5-2.75
			c-1.094-1.083-2.406-1.625-3.938-1.625c-1.542,0-2.857,0.542-3.945,1.625c-1.089,1.084-1.633,2.396-1.633,3.938
			c0,1.531,0.544,2.842,1.633,3.93c1.088,1.089,2.403,1.633,3.945,1.633c1.531,0,2.844-0.541,3.938-1.625
			C350.512,2266.659,351.012,2265.742,351.2,2264.731z"/>
		<path style="fill:#FFFFFF;" d="M362.387,2258.106c1.208-1.635,2.692-2.494,4.453-2.578v3.359
			c-1.177,0.063-2.115,0.443-2.813,1.141c-1.052,1.042-1.599,2.281-1.641,3.719v8.266h-3.234v-16.078h3.234V2258.106z"/>
		<path style="fill:#FFFFFF;" d="M372.559,2255.935v-6.031h3.234v6.031h2.891v3.234h-2.891v12.844h-3.234v-12.844h-2.891v-3.234
			H372.559z"/>
		<path style="fill:#FFFFFF;" d="M387.45,2268.372c0.542,0.479,1.526,0.719,2.953,0.719c1.542,0,2.859-0.541,3.953-1.625
			c0.135-0.146,0.411-0.469,0.828-0.969l3.234,1.156c-0.792,1.094-1.365,1.818-1.719,2.172c-1.74,1.74-3.839,2.609-6.297,2.609
			c-2.448,0-4.542-0.869-6.281-2.609c-1.74-1.739-2.609-3.838-2.609-6.297c0-2.458,0.87-4.557,2.609-6.297
			c1.739-1.739,3.833-2.609,6.281-2.609c2.104,0,3.948,0.636,5.531,1.906c0.26,0.219,0.516,0.453,0.766,0.703
			c0.104,0.104,0.401,0.433,0.891,0.984l-1.625,1.641L387.45,2268.372z M392.856,2258.372c-0.365-0.281-1.183-0.422-2.453-0.422
			c-1.531,0-2.841,0.545-3.93,1.633c-1.089,1.089-1.633,2.404-1.633,3.945c0,1.261,0.141,2.078,0.422,2.453L392.856,2258.372z"/>
		<path style="fill:#FFFFFF;" d="M405.418,2268.56c0.385,0.375,0.844,0.563,1.375,0.563s0.987-0.188,1.367-0.563
			c0.38-0.375,0.57-0.838,0.57-1.391c0-0.531-0.188-0.984-0.563-1.359c-0.261-0.26-0.818-0.661-1.672-1.203
			c-1.167-0.635-1.995-1.197-2.484-1.688c-0.854-0.854-1.281-1.88-1.281-3.078c0-1.208,0.427-2.242,1.281-3.102
			c0.854-0.859,1.885-1.289,3.094-1.289c1.208,0,2.213,0.406,3.016,1.219c0.573,0.573,0.938,1.214,1.094,1.922l-3.141,0.906
			c-0.073-0.26-0.146-0.432-0.219-0.516c-0.188-0.188-0.438-0.281-0.75-0.281s-0.581,0.112-0.805,0.336
			c-0.224,0.225-0.336,0.492-0.336,0.805s0.109,0.578,0.328,0.797c0.198,0.188,0.646,0.506,1.344,0.953
			c1.292,0.709,2.229,1.354,2.813,1.938c1.01,1.021,1.516,2.234,1.516,3.641c0,1.438-0.503,2.664-1.508,3.68
			c-1.005,1.016-2.227,1.523-3.664,1.523c-1.427,0-2.646-0.51-3.656-1.531c-0.698-0.697-1.156-1.567-1.375-2.609l3.219-0.688
			C405.075,2268.023,405.22,2268.362,405.418,2268.56z"/>
		<path style="fill:#FFFFFF;" d="M430.497,2249.981c0.448,0.438,0.672,0.975,0.672,1.609c0,0.636-0.224,1.172-0.672,1.609
			c-0.448,0.438-0.984,0.656-1.609,0.656c-0.615,0-1.146-0.219-1.594-0.656c-0.448-0.438-0.672-0.974-0.672-1.609
			c0-0.635,0.224-1.172,0.672-1.609c0.448-0.438,0.979-0.656,1.594-0.656C429.512,2249.325,430.048,2249.544,430.497,2249.981z
			 M430.512,2255.935v16.078h-3.234v-16.078H430.512z"/>
		<path style="fill:#FFFFFF;" d="M438.715,2260.247v11.766h-3.25v-16.078h3.25v1.875c0.677-1.833,2.036-2.75,4.078-2.75
			c1.739,0,3.122,0.617,4.148,1.852c1.026,1.234,1.555,2.784,1.586,4.648v10.453h-3.234v-10.328c0-0.927-0.339-1.721-1.016-2.383
			c-0.677-0.661-1.484-0.992-2.422-0.992c-0.927,0-1.729,0.323-2.406,0.969C439.075,2259.664,438.83,2259.987,438.715,2260.247z"/>
		<path style="fill:#FFFFFF;" d="M455.216,2255.935v-6.031h3.234v6.031h2.891v3.234h-2.891v12.844h-3.234v-12.844h-2.891v-3.234
			H455.216z"/>
		<path style="fill:#FFFFFF;" d="M470.106,2268.372c0.541,0.479,1.525,0.719,2.953,0.719c1.541,0,2.859-0.541,3.953-1.625
			c0.135-0.146,0.411-0.469,0.828-0.969l3.234,1.156c-0.792,1.094-1.365,1.818-1.719,2.172c-1.74,1.74-3.839,2.609-6.297,2.609
			c-2.448,0-4.542-0.869-6.281-2.609c-1.74-1.739-2.609-3.838-2.609-6.297c0-2.458,0.869-4.557,2.609-6.297
			c1.739-1.739,3.833-2.609,6.281-2.609c2.104,0,3.947,0.636,5.531,1.906c0.26,0.219,0.516,0.453,0.766,0.703
			c0.104,0.104,0.4,0.433,0.891,0.984l-1.625,1.641L470.106,2268.372z M475.513,2258.372c-0.365-0.281-1.183-0.422-2.453-0.422
			c-1.531,0-2.842,0.545-3.93,1.633c-1.089,1.089-1.633,2.404-1.633,3.945c0,1.261,0.141,2.078,0.422,2.453L475.513,2258.372z"/>
		<path style="fill:#FFFFFF;" d="M488.06,2258.106c1.208-1.635,2.692-2.494,4.453-2.578v3.359c-1.178,0.063-2.115,0.443-2.813,1.141
			c-1.053,1.042-1.6,2.281-1.641,3.719v8.266h-3.234v-16.078h3.234V2258.106z"/>
		<path style="fill:#FFFFFF;" d="M500.591,2268.372c0.541,0.479,1.525,0.719,2.953,0.719c1.541,0,2.859-0.541,3.953-1.625
			c0.135-0.146,0.411-0.469,0.828-0.969l3.234,1.156c-0.792,1.094-1.365,1.818-1.719,2.172c-1.74,1.74-3.839,2.609-6.297,2.609
			c-2.448,0-4.542-0.869-6.281-2.609c-1.74-1.739-2.609-3.838-2.609-6.297c0-2.458,0.869-4.557,2.609-6.297
			c1.739-1.739,3.833-2.609,6.281-2.609c2.104,0,3.947,0.636,5.531,1.906c0.26,0.219,0.516,0.453,0.766,0.703
			c0.104,0.104,0.4,0.433,0.891,0.984l-1.625,1.641L500.591,2268.372z M505.997,2258.372c-0.365-0.281-1.183-0.422-2.453-0.422
			c-1.531,0-2.842,0.545-3.93,1.633c-1.089,1.089-1.633,2.404-1.633,3.945c0,1.261,0.141,2.078,0.422,2.453L505.997,2258.372z"/>
		<path style="fill:#FFFFFF;" d="M518.56,2268.56c0.385,0.375,0.844,0.563,1.375,0.563s0.986-0.188,1.367-0.563
			c0.38-0.375,0.57-0.838,0.57-1.391c0-0.531-0.188-0.984-0.563-1.359c-0.261-0.26-0.818-0.661-1.672-1.203
			c-1.167-0.635-1.995-1.197-2.484-1.688c-0.854-0.854-1.281-1.88-1.281-3.078c0-1.208,0.427-2.242,1.281-3.102
			c0.854-0.859,1.885-1.289,3.094-1.289c1.208,0,2.213,0.406,3.016,1.219c0.572,0.573,0.938,1.214,1.094,1.922l-3.141,0.906
			c-0.073-0.26-0.146-0.432-0.219-0.516c-0.188-0.188-0.438-0.281-0.75-0.281s-0.581,0.112-0.805,0.336
			c-0.225,0.225-0.336,0.492-0.336,0.805s0.109,0.578,0.328,0.797c0.197,0.188,0.646,0.506,1.344,0.953
			c1.291,0.709,2.229,1.354,2.813,1.938c1.01,1.021,1.516,2.234,1.516,3.641c0,1.438-0.503,2.664-1.508,3.68
			c-1.006,1.016-2.227,1.523-3.664,1.523c-1.428,0-2.646-0.51-3.656-1.531c-0.698-0.697-1.156-1.567-1.375-2.609l3.219-0.688
			C518.216,2268.023,518.361,2268.362,518.56,2268.56z"/>
		<path style="fill:#FFFFFF;" d="M543.028,2257.06v-1.125h3.25v16.094h-3.25v-2.016c-1.563,1.615-3.375,2.422-5.438,2.422
			c-2.459,0-4.555-0.867-6.289-2.602s-2.602-3.83-2.602-6.289c0-2.458,0.867-4.555,2.602-6.289s3.83-2.602,6.289-2.602
			C539.653,2254.653,541.466,2255.456,543.028,2257.06z M543.028,2264.731v-2.375c-0.188-1.01-0.688-1.927-1.5-2.75
			c-1.094-1.083-2.406-1.625-3.938-1.625c-1.542,0-2.857,0.542-3.945,1.625c-1.089,1.084-1.633,2.396-1.633,3.938
			c0,1.531,0.544,2.842,1.633,3.93c1.088,1.089,2.403,1.633,3.945,1.633c1.531,0,2.844-0.541,3.938-1.625
			C542.341,2266.659,542.841,2265.742,543.028,2264.731z"/>
		<path style="fill:#FFFFFF;" d="M564.935,2257.044v-10.031h3.25v25h-3.25v-2c-1.563,1.615-3.381,2.422-5.453,2.422
			c-2.459,0-4.555-0.869-6.289-2.609c-1.734-1.739-2.602-3.838-2.602-6.297c0-2.458,0.867-4.557,2.602-6.297
			c1.734-1.739,3.83-2.609,6.289-2.609C561.554,2254.622,563.372,2255.43,564.935,2257.044z M564.935,2264.731v-2.391
			c-0.188-1.01-0.693-1.927-1.516-2.75c-1.084-1.094-2.396-1.641-3.938-1.641c-1.542,0-2.857,0.547-3.945,1.641
			c-1.089,1.094-1.633,2.406-1.633,3.938c0,1.542,0.544,2.854,1.633,3.938c1.088,1.084,2.403,1.625,3.945,1.625
			c1.541,0,2.854-0.541,3.938-1.625C564.241,2266.644,564.747,2265.731,564.935,2264.731z"/>
		<path style="fill:#FFFFFF;" d="M586.81,2257.06v-1.125h3.25v16.094h-3.25v-2.016c-1.563,1.615-3.375,2.422-5.438,2.422
			c-2.459,0-4.555-0.867-6.289-2.602s-2.602-3.83-2.602-6.289c0-2.458,0.867-4.555,2.602-6.289s3.83-2.602,6.289-2.602
			C583.435,2254.653,585.247,2255.456,586.81,2257.06z M586.81,2264.731v-2.375c-0.188-1.01-0.688-1.927-1.5-2.75
			c-1.094-1.083-2.406-1.625-3.938-1.625c-1.542,0-2.857,0.542-3.945,1.625c-1.089,1.084-1.633,2.396-1.633,3.938
			c0,1.531,0.544,2.842,1.633,3.93c1.088,1.089,2.403,1.633,3.945,1.633c1.531,0,2.844-0.541,3.938-1.625
			C586.122,2266.659,586.622,2265.742,586.81,2264.731z"/>
		<path style="fill:#FFFFFF;" d="M598.013,2268.56c0.385,0.375,0.844,0.563,1.375,0.563s0.986-0.188,1.367-0.563
			c0.38-0.375,0.57-0.838,0.57-1.391c0-0.531-0.188-0.984-0.563-1.359c-0.261-0.26-0.818-0.661-1.672-1.203
			c-1.167-0.635-1.995-1.197-2.484-1.688c-0.854-0.854-1.281-1.88-1.281-3.078c0-1.208,0.427-2.242,1.281-3.102
			c0.854-0.859,1.885-1.289,3.094-1.289c1.208,0,2.213,0.406,3.016,1.219c0.572,0.573,0.938,1.214,1.094,1.922l-3.141,0.906
			c-0.073-0.26-0.146-0.432-0.219-0.516c-0.188-0.188-0.438-0.281-0.75-0.281s-0.581,0.112-0.805,0.336
			c-0.225,0.225-0.336,0.492-0.336,0.805s0.109,0.578,0.328,0.797c0.197,0.188,0.646,0.506,1.344,0.953
			c1.291,0.709,2.229,1.354,2.813,1.938c1.01,1.021,1.516,2.234,1.516,3.641c0,1.438-0.503,2.664-1.508,3.68
			c-1.006,1.016-2.227,1.523-3.664,1.523c-1.428,0-2.646-0.51-3.656-1.531c-0.698-0.697-1.156-1.567-1.375-2.609l3.219-0.688
			C597.669,2268.023,597.814,2268.362,598.013,2268.56z"/>
		<path style="fill:#FFFFFF;" d="M388.708,2297.585c-1.771-0.594-3.206-1.439-4.305-2.539c-1.099-1.099-1.648-2.461-1.648-4.086
			c0-1.594,0.57-2.963,1.711-4.109c1.141-1.146,2.523-1.719,4.148-1.719c1.604,0,2.979,0.568,4.125,1.703
			c0.646,0.625,1.188,1.62,1.625,2.984l-2.938,1.156c-0.354-0.958-0.677-1.583-0.969-1.875c-0.511-0.5-1.125-0.75-1.844-0.75
			c-0.729,0-1.349,0.253-1.859,0.758c-0.511,0.506-0.766,1.123-0.766,1.852c0,0.729,0.255,1.35,0.766,1.859
			c0.573,0.563,1.364,1.078,2.375,1.547c1.958,0.636,3.62,1.636,4.984,3c1.531,1.511,2.297,3.344,2.297,5.5
			s-0.763,3.998-2.289,5.523c-1.526,1.526-3.362,2.289-5.508,2.289c-2.156,0-3.995-0.766-5.516-2.297
			c-1.219-1.219-1.99-2.9-2.313-5.047l3.141-1.141c0.198,1.844,0.682,3.151,1.453,3.922c0.896,0.896,1.974,1.344,3.234,1.344
			c1.26,0,2.338-0.447,3.234-1.344c0.896-0.896,1.344-1.979,1.344-3.25c0-1.26-0.448-2.338-1.344-3.234
			C390.994,2298.778,389.947,2298.096,388.708,2297.585z"/>
		<path style="fill:#FFFFFF;" d="M413.489,2295.46v-1.125h3.25v16.094h-3.25v-2.016c-1.563,1.615-3.375,2.422-5.438,2.422
			c-2.458,0-4.555-0.867-6.289-2.602s-2.602-3.83-2.602-6.289c0-2.458,0.867-4.555,2.602-6.289s3.831-2.602,6.289-2.602
			C410.114,2293.054,411.926,2293.856,413.489,2295.46z M413.489,2303.132v-2.375c-0.188-1.01-0.688-1.927-1.5-2.75
			c-1.094-1.083-2.406-1.625-3.938-1.625c-1.542,0-2.857,0.542-3.945,1.625c-1.089,1.084-1.633,2.396-1.633,3.938
			c0,1.531,0.544,2.842,1.633,3.93c1.088,1.089,2.403,1.633,3.945,1.633c1.531,0,2.844-0.541,3.938-1.625
			C412.801,2305.06,413.301,2304.143,413.489,2303.132z"/>
		<path style="fill:#FFFFFF;" d="M423.473,2294.335v-6.031h3.234v6.031h2.891v3.234h-2.891v12.844h-3.234v-12.844h-2.891v-3.234
			H423.473z"/>
		<path style="fill:#FFFFFF;" d="M436.848,2288.382c0.448,0.438,0.672,0.975,0.672,1.609c0,0.636-0.224,1.172-0.672,1.609
			c-0.448,0.438-0.984,0.656-1.609,0.656c-0.615,0-1.146-0.219-1.594-0.656c-0.448-0.438-0.672-0.974-0.672-1.609
			c0-0.635,0.224-1.172,0.672-1.609c0.448-0.438,0.979-0.656,1.594-0.656C435.864,2287.726,436.4,2287.944,436.848,2288.382z
			 M436.864,2294.335v16.078h-3.234v-16.078H436.864z"/>
		<path style="fill:#FFFFFF;" d="M445.067,2306.96c0.385,0.375,0.844,0.563,1.375,0.563s0.987-0.188,1.367-0.563
			c0.38-0.375,0.57-0.838,0.57-1.391c0-0.531-0.188-0.984-0.563-1.359c-0.261-0.26-0.818-0.661-1.672-1.203
			c-1.167-0.635-1.995-1.197-2.484-1.688c-0.854-0.854-1.281-1.88-1.281-3.078c0-1.208,0.427-2.242,1.281-3.102
			c0.854-0.859,1.885-1.289,3.094-1.289c1.208,0,2.213,0.406,3.016,1.219c0.573,0.573,0.938,1.214,1.094,1.922l-3.141,0.906
			c-0.073-0.26-0.146-0.432-0.219-0.516c-0.188-0.188-0.438-0.281-0.75-0.281s-0.581,0.112-0.805,0.336
			c-0.224,0.225-0.336,0.492-0.336,0.805s0.109,0.578,0.328,0.797c0.198,0.188,0.646,0.506,1.344,0.953
			c1.292,0.709,2.229,1.354,2.813,1.938c1.01,1.021,1.516,2.234,1.516,3.641c0,1.438-0.503,2.664-1.508,3.68
			s-2.227,1.523-3.664,1.523c-1.427,0-2.646-0.51-3.656-1.531c-0.698-0.697-1.156-1.567-1.375-2.609l3.219-0.688
			C444.723,2306.424,444.869,2306.763,445.067,2306.96z"/>
		<path style="fill:#FFFFFF;" d="M459.349,2297.554v12.875h-3.25v-12.875h-1.438v-3.234h1.438v-2.891
			c0.072-1.333,0.583-2.479,1.531-3.438c0.979-0.916,2.114-1.375,3.406-1.375c0.646,0,1.625,0.225,2.938,0.672l-1.078,3.063
			c-0.917-0.385-1.495-0.578-1.734-0.578c-0.438,0-0.859,0.183-1.266,0.547c-0.344,0.344-0.526,0.756-0.547,1.234v2.766h2.891v3.234
			H459.349z"/>
		<path style="fill:#FFFFFF;" d="M470.38,2306.772c0.541,0.479,1.525,0.719,2.953,0.719c1.541,0,2.859-0.541,3.953-1.625
			c0.135-0.146,0.411-0.469,0.828-0.969l3.234,1.156c-0.792,1.094-1.365,1.818-1.719,2.172c-1.74,1.74-3.839,2.609-6.297,2.609
			c-2.448,0-4.542-0.869-6.281-2.609c-1.74-1.739-2.609-3.838-2.609-6.297c0-2.458,0.869-4.557,2.609-6.297
			c1.739-1.739,3.833-2.609,6.281-2.609c2.104,0,3.947,0.636,5.531,1.906c0.26,0.219,0.516,0.453,0.766,0.703
			c0.104,0.104,0.4,0.433,0.891,0.984l-1.625,1.641L470.38,2306.772z M475.786,2296.772c-0.365-0.281-1.183-0.422-2.453-0.422
			c-1.531,0-2.842,0.545-3.93,1.633c-1.089,1.089-1.633,2.404-1.633,3.945c0,1.261,0.141,2.078,0.422,2.453L475.786,2296.772z"/>
		<path style="fill:#FFFFFF;" d="M497.833,2304.897l3.234,1.156c-0.792,1.094-1.365,1.818-1.719,2.172
			c-1.74,1.74-3.839,2.609-6.297,2.609c-2.448,0-4.542-0.869-6.281-2.609c-1.74-1.739-2.609-3.838-2.609-6.297
			c0-2.458,0.869-4.557,2.609-6.297c1.739-1.739,3.833-2.609,6.281-2.609c2.458,0,4.557,0.87,6.297,2.609
			c0.354,0.354,0.927,1.068,1.719,2.141l-3.234,1.188c-0.417-0.51-0.698-0.838-0.844-0.984c-1.084-1.083-2.396-1.625-3.938-1.625
			c-1.531,0-2.842,0.545-3.93,1.633c-1.089,1.089-1.633,2.404-1.633,3.945c0,1.531,0.544,2.842,1.633,3.93
			c1.088,1.089,2.398,1.633,3.93,1.633c1.541,0,2.859-0.541,3.953-1.625C497.14,2305.721,497.416,2305.397,497.833,2304.897z"/>
		<path style="fill:#FFFFFF;" d="M504.817,2285.413h3.25v10.656c0.906-1.739,2.219-2.609,3.938-2.609s3.091,0.617,4.117,1.852
			c1.025,1.234,1.555,2.784,1.586,4.648v10.453h-3.234v-10.328c0-0.927-0.264-1.721-0.789-2.383
			c-0.526-0.661-1.357-0.992-2.492-0.992c-1.344,0-2.386,0.719-3.125,2.156v11.547h-3.25V2285.413z"/>
		<path style="fill:#FFFFFF;" d="M536.333,2295.46v-1.125h3.25v16.094h-3.25v-2.016c-1.563,1.615-3.375,2.422-5.438,2.422
			c-2.459,0-4.555-0.867-6.289-2.602s-2.602-3.83-2.602-6.289c0-2.458,0.867-4.555,2.602-6.289s3.83-2.602,6.289-2.602
			C532.958,2293.054,534.771,2293.856,536.333,2295.46z M536.333,2303.132v-2.375c-0.188-1.01-0.688-1.927-1.5-2.75
			c-1.094-1.083-2.406-1.625-3.938-1.625c-1.542,0-2.857,0.542-3.945,1.625c-1.089,1.084-1.633,2.396-1.633,3.938
			c0,1.531,0.544,2.842,1.633,3.93c1.088,1.089,2.403,1.633,3.945,1.633c1.531,0,2.844-0.541,3.938-1.625
			C535.646,2305.06,536.146,2304.143,536.333,2303.132z"/>
		<path style="fill:#FFFFFF;" d="M547.536,2306.96c0.385,0.375,0.844,0.563,1.375,0.563s0.986-0.188,1.367-0.563
			c0.38-0.375,0.57-0.838,0.57-1.391c0-0.531-0.188-0.984-0.563-1.359c-0.261-0.26-0.818-0.661-1.672-1.203
			c-1.167-0.635-1.995-1.197-2.484-1.688c-0.854-0.854-1.281-1.88-1.281-3.078c0-1.208,0.427-2.242,1.281-3.102
			c0.854-0.859,1.885-1.289,3.094-1.289c1.208,0,2.213,0.406,3.016,1.219c0.572,0.573,0.938,1.214,1.094,1.922l-3.141,0.906
			c-0.073-0.26-0.146-0.432-0.219-0.516c-0.188-0.188-0.438-0.281-0.75-0.281s-0.581,0.112-0.805,0.336
			c-0.225,0.225-0.336,0.492-0.336,0.805s0.109,0.578,0.328,0.797c0.197,0.188,0.646,0.506,1.344,0.953
			c1.291,0.709,2.229,1.354,2.813,1.938c1.01,1.021,1.516,2.234,1.516,3.641c0,1.438-0.503,2.664-1.508,3.68
			c-1.006,1.016-2.227,1.523-3.664,1.523c-1.428,0-2.646-0.51-3.656-1.531c-0.698-0.697-1.156-1.567-1.375-2.609l3.219-0.688
			C547.192,2306.424,547.338,2306.763,547.536,2306.96z"/>
	</g>
	<g>
		<path style="fill:#444444;" d="M236.707,45.594l12.216,21.113l12.169-21.113h4.449v37.66h-4.873V56.044l-11.745,20.336
			l-11.792-20.336v27.209h-4.873v-37.66H236.707z"/>
		<path style="fill:#444444;" d="M294.751,60.729v-1.695h4.896v24.244h-4.896v-3.036c-2.354,2.432-5.084,3.648-8.191,3.648
			c-3.703,0-6.861-1.307-9.474-3.919c-2.612-2.612-3.919-5.77-3.919-9.474c0-3.703,1.307-6.861,3.919-9.474s5.771-3.919,9.474-3.919
			C289.667,57.104,292.397,58.312,294.751,60.729z M294.751,72.285v-3.578c-0.282-1.522-1.036-2.903-2.26-4.143
			c-1.647-1.632-3.625-2.448-5.932-2.448c-2.322,0-4.304,0.816-5.943,2.448c-1.64,1.632-2.459,3.609-2.459,5.932
			c0,2.307,0.819,4.28,2.459,5.919c1.64,1.64,3.621,2.46,5.943,2.46c2.307,0,4.284-0.816,5.932-2.448
			C293.715,75.188,294.468,73.808,294.751,72.285z"/>
		<path style="fill:#444444;" d="M312.075,80.241v11.157h-4.873V59.034h4.873v2.189c2.354-2.762,5.092-4.143,8.214-4.143
			c3.703,0,6.861,1.306,9.475,3.919c2.612,2.613,3.919,5.771,3.919,9.474s-1.307,6.865-3.919,9.485
			c-2.613,2.621-5.771,3.931-9.475,3.931C317.167,83.89,314.428,82.673,312.075,80.241z M312.075,68.59v3.79
			c0.298,1.491,1.059,2.84,2.283,4.048c1.632,1.632,3.608,2.448,5.931,2.448s4.304-0.82,5.943-2.46
			c1.64-1.639,2.46-3.621,2.46-5.943c0-2.307-0.82-4.284-2.46-5.932c-1.64-1.648-3.621-2.472-5.943-2.472s-4.299,0.824-5.931,2.472
			C313.134,65.75,312.373,67.099,312.075,68.59z"/>
		<path style="fill:#444444;" d="M360.562,60.729v-1.695h4.896v24.244h-4.896v-3.036c-2.354,2.432-5.084,3.648-8.191,3.648
			c-3.703,0-6.861-1.307-9.474-3.919c-2.612-2.612-3.919-5.77-3.919-9.474c0-3.703,1.307-6.861,3.919-9.474s5.771-3.919,9.474-3.919
			C355.478,57.104,358.209,58.312,360.562,60.729z M360.562,72.285v-3.578c-0.282-1.522-1.036-2.903-2.26-4.143
			c-1.647-1.632-3.625-2.448-5.932-2.448c-2.322,0-4.304,0.816-5.943,2.448c-1.64,1.632-2.459,3.609-2.459,5.932
			c0,2.307,0.819,4.28,2.459,5.919c1.64,1.64,3.621,2.46,5.943,2.46c2.307,0,4.284-0.816,5.932-2.448
			C359.526,75.188,360.28,73.808,360.562,72.285z"/>
		<path style="fill:#444444;" d="M410.226,60.705V45.594h4.896v37.66h-4.896v-3.013c-2.354,2.432-5.092,3.648-8.215,3.648
			c-3.703,0-6.861-1.31-9.474-3.931c-2.612-2.62-3.919-5.782-3.919-9.485s1.307-6.865,3.919-9.486s5.771-3.931,9.474-3.931
			C405.134,57.057,407.873,58.272,410.226,60.705z M410.226,72.285v-3.601c-0.282-1.522-1.044-2.903-2.283-4.143
			c-1.632-1.648-3.609-2.472-5.932-2.472s-4.304,0.824-5.943,2.472c-1.64,1.647-2.459,3.625-2.459,5.932
			c0,2.322,0.819,4.299,2.459,5.931c1.64,1.632,3.621,2.448,5.943,2.448s4.3-0.816,5.932-2.448
			C409.182,75.165,409.944,73.792,410.226,72.285z"/>
		<path style="fill:#444444;" d="M429.716,77.77c0.816,0.722,2.299,1.083,4.449,1.083c2.321,0,4.307-0.816,5.955-2.448
			c0.203-0.219,0.619-0.706,1.247-1.459l4.872,1.742c-1.192,1.647-2.056,2.738-2.589,3.271c-2.621,2.621-5.782,3.931-9.485,3.931
			c-3.688,0-6.842-1.31-9.463-3.931c-2.62-2.62-3.931-5.782-3.931-9.485s1.311-6.865,3.931-9.486
			c2.621-2.621,5.774-3.931,9.463-3.931c3.169,0,5.946,0.957,8.332,2.872c0.392,0.329,0.776,0.683,1.153,1.059
			c0.156,0.157,0.604,0.651,1.342,1.483l-2.448,2.471L429.716,77.77z M437.86,62.706c-0.55-0.424-1.781-0.636-3.695-0.636
			c-2.307,0-4.28,0.82-5.92,2.46s-2.46,3.621-2.46,5.943c0,1.898,0.212,3.13,0.636,3.695L437.86,62.706z"/>
		<path style="fill:#444444;" d="M473.426,71.203v12.051h-4.873v-37.66h10.687c3.028,0.408,5.586,1.656,7.673,3.742
			c2.495,2.511,3.743,5.524,3.743,9.039c0,3.546-1.248,6.571-3.743,9.074c-2.494,2.503-5.508,3.754-9.038,3.754H473.426z
			 M473.426,50.489v15.817h4.448c2.165,0,4.021-0.772,5.566-2.318c1.546-1.545,2.318-3.417,2.318-5.614
			c0-2.181-0.772-4.041-2.318-5.579c-1.546-1.538-3.401-2.307-5.566-2.307H473.426z"/>
		<path style="fill:#444444;" d="M499.529,62.305c1.819-2.463,4.056-3.758,6.708-3.884v5.061c-1.773,0.094-3.186,0.667-4.237,1.718
			c-1.585,1.569-2.408,3.437-2.471,5.602v12.452h-4.873v-24.22h4.873V62.305z"/>
		<path style="fill:#444444;" d="M522.478,57.057c3.703,0,6.861,1.31,9.474,3.931s3.919,5.783,3.919,9.486s-1.307,6.865-3.919,9.485
			c-2.612,2.621-5.771,3.931-9.474,3.931c-3.688,0-6.842-1.31-9.463-3.931c-2.62-2.62-3.931-5.782-3.931-9.485
			s1.311-6.865,3.931-9.486C515.636,58.367,518.79,57.057,522.478,57.057z M516.535,64.542c-1.641,1.647-2.46,3.625-2.46,5.932
			c0,2.322,0.819,4.299,2.46,5.931c1.64,1.632,3.62,2.448,5.943,2.448c2.321,0,4.303-0.816,5.943-2.448
			c1.639-1.632,2.459-3.609,2.459-5.931c0-2.307-0.82-4.284-2.459-5.932c-1.641-1.648-3.622-2.472-5.943-2.472
			C520.155,62.07,518.175,62.894,516.535,64.542z"/>
		<path style="fill:#444444;" d="M560.703,74.945l4.872,1.742c-1.192,1.647-2.056,2.738-2.589,3.271
			c-2.621,2.621-5.782,3.931-9.485,3.931c-3.688,0-6.842-1.31-9.463-3.931c-2.62-2.62-3.931-5.782-3.931-9.485
			s1.311-6.865,3.931-9.486c2.621-2.621,5.774-3.931,9.463-3.931c3.703,0,6.864,1.31,9.485,3.931
			c0.533,0.534,1.396,1.608,2.589,3.225l-4.872,1.789c-0.628-0.769-1.052-1.263-1.271-1.483c-1.632-1.632-3.609-2.448-5.931-2.448
			c-2.307,0-4.28,0.82-5.92,2.46s-2.46,3.621-2.46,5.943c0,2.307,0.82,4.28,2.46,5.919c1.64,1.64,3.613,2.46,5.92,2.46
			c2.321,0,4.307-0.816,5.955-2.448C559.659,76.185,560.075,75.698,560.703,74.945z"/>
		<path style="fill:#444444;" d="M578.757,77.77c0.816,0.722,2.299,1.083,4.449,1.083c2.321,0,4.307-0.816,5.955-2.448
			c0.203-0.219,0.619-0.706,1.247-1.459l4.872,1.742c-1.192,1.647-2.056,2.738-2.589,3.271c-2.621,2.621-5.782,3.931-9.485,3.931
			c-3.688,0-6.842-1.31-9.463-3.931c-2.62-2.62-3.931-5.782-3.931-9.485s1.311-6.865,3.931-9.486
			c2.621-2.621,5.774-3.931,9.463-3.931c3.169,0,5.946,0.957,8.332,2.872c0.392,0.329,0.776,0.683,1.153,1.059
			c0.156,0.157,0.604,0.651,1.342,1.483l-2.448,2.471L578.757,77.77z M586.901,62.706c-0.55-0.424-1.781-0.636-3.695-0.636
			c-2.307,0-4.28,0.82-5.92,2.46s-2.46,3.621-2.46,5.943c0,1.898,0.212,3.13,0.636,3.695L586.901,62.706z"/>
		<path style="fill:#444444;" d="M605.825,78.052c0.58,0.565,1.271,0.847,2.071,0.847c0.8,0,1.486-0.282,2.06-0.847
			c0.572-0.565,0.858-1.263,0.858-2.095c0-0.8-0.282-1.483-0.847-2.047c-0.393-0.392-1.232-0.997-2.519-1.813
			c-1.758-0.957-3.005-1.805-3.742-2.542c-1.287-1.287-1.931-2.833-1.931-4.637c0-1.82,0.644-3.377,1.931-4.672
			c1.286-1.294,2.84-1.942,4.66-1.942s3.334,0.612,4.543,1.836c0.862,0.863,1.412,1.829,1.647,2.896l-4.731,1.365
			c-0.109-0.392-0.22-0.651-0.329-0.777c-0.282-0.283-0.659-0.424-1.13-0.424s-0.875,0.169-1.212,0.506
			c-0.338,0.337-0.507,0.741-0.507,1.212s0.165,0.871,0.494,1.201c0.299,0.282,0.974,0.761,2.024,1.436
			c1.946,1.067,3.358,2.04,4.237,2.919c1.521,1.538,2.283,3.366,2.283,5.484c0,2.166-0.758,4.013-2.271,5.543
			c-1.515,1.53-3.354,2.295-5.52,2.295c-2.15,0-3.986-0.769-5.508-2.307c-1.052-1.051-1.742-2.362-2.071-3.931l4.849-1.036
			C605.306,77.244,605.526,77.754,605.825,78.052z"/>
		<path style="fill:#444444;" d="M633.671,57.057c3.703,0,6.861,1.31,9.474,3.931s3.919,5.783,3.919,9.486s-1.307,6.865-3.919,9.485
			c-2.612,2.621-5.771,3.931-9.474,3.931c-3.688,0-6.842-1.31-9.463-3.931c-2.62-2.62-3.931-5.782-3.931-9.485
			s1.311-6.865,3.931-9.486C626.829,58.367,629.982,57.057,633.671,57.057z M627.727,64.542c-1.641,1.647-2.46,3.625-2.46,5.932
			c0,2.322,0.819,4.299,2.46,5.931c1.64,1.632,3.62,2.448,5.943,2.448c2.321,0,4.303-0.816,5.943-2.448
			c1.639-1.632,2.459-3.609,2.459-5.931c0-2.307-0.82-4.284-2.459-5.932c-1.641-1.648-3.622-2.472-5.943-2.472
			C631.347,62.07,629.367,62.894,627.727,64.542z"/>
		<path style="fill:#444444;" d="M657.608,78.052c0.58,0.565,1.271,0.847,2.071,0.847c0.8,0,1.486-0.282,2.06-0.847
			c0.572-0.565,0.858-1.263,0.858-2.095c0-0.8-0.282-1.483-0.847-2.047c-0.393-0.392-1.232-0.997-2.519-1.813
			c-1.758-0.957-3.005-1.805-3.742-2.542c-1.287-1.287-1.931-2.833-1.931-4.637c0-1.82,0.644-3.377,1.931-4.672
			c1.286-1.294,2.84-1.942,4.66-1.942s3.334,0.612,4.543,1.836c0.862,0.863,1.412,1.829,1.647,2.896l-4.731,1.365
			c-0.109-0.392-0.22-0.651-0.329-0.777c-0.282-0.283-0.659-0.424-1.13-0.424s-0.875,0.169-1.212,0.506
			c-0.338,0.337-0.507,0.741-0.507,1.212s0.165,0.871,0.494,1.201c0.299,0.282,0.974,0.761,2.024,1.436
			c1.946,1.067,3.358,2.04,4.237,2.919c1.521,1.538,2.283,3.366,2.283,5.484c0,2.166-0.758,4.013-2.271,5.543
			c-1.515,1.53-3.354,2.295-5.52,2.295c-2.15,0-3.986-0.769-5.508-2.307c-1.052-1.051-1.742-2.362-2.071-3.931l4.849-1.036
			C657.09,77.244,657.309,77.754,657.608,78.052z"/>
	</g>
	<g style="opacity:0.34;">
		<image style="overflow:visible;" width="682" height="162" xlink:href="C6CD3E05.png"  transform="matrix(1 0 0 1 109 499.5)">
		</image>
	</g>
	<polygon style="fill:#FF0000;" points="669.132,618.857 147.177,618.857 237.532,524.195 752.551,524.195 	"/>
	<g>
		<g>
			<path style="fill:#323244;" d="M477.605,291.716c0,7.065-12.872,12.792-28.751,12.792c-15.879,0-28.751-5.727-28.751-12.792
				c0-7.065,12.872-12.792,28.751-12.792C464.733,278.924,477.605,284.651,477.605,291.716z"/>
			<path style="fill:#6B2A18;" d="M392.633,511v-1.452c0-5.821,4.719-10.54,10.54-10.54h8.956c2.072,0,3.752-1.68,3.752-3.752
				v-0.076c0-2.072,1.68-3.753,3.753-3.753h18.27c2.073,0,3.753,1.68,3.753,3.753V511h-16.647v-1.978L420.848,511H392.633z"/>
			<path style="fill:#6B2A18;" d="M505.455,510.709v-1.452c0-5.821-4.719-10.54-10.54-10.54h-8.956c-2.073,0-3.753-1.68-3.753-3.753
				v-0.076c0-2.073-1.68-3.753-3.753-3.753h-18.27c-2.073,0-3.753,1.68-3.753,3.753v15.82h16.647v-1.978l4.161,1.978H505.455z"/>
			<polygon style="fill:#252533;" points="442.731,493.589 442.777,371.222 454.775,371.222 455.096,493.589 482.633,493.162 
				477.711,345.848 419.896,345.848 415.455,493.162 			"/>
			<g>
				<polygon style="fill:#131516;" points="419.903,349.196 477.719,349.196 479.629,403.267 454.859,403.267 454.783,374.57 
					442.785,374.57 442.765,403.267 418.165,403.267 				"/>
			</g>
			<path style="fill:#252533;" d="M448.779,277.954c-39.272,0-34.4,23.96-34.4,23.96v93.396h68.478v-93.298
				C482.858,302.012,488.051,277.954,448.779,277.954z"/>
			<path style="fill:#FFB37B;" d="M416.593,364.914c0,0,3.171,0.502,7.066,1.932c3.858,1.417,6.834-3.465,0.125-5.792
				c-2.146-0.744-3.958-1.293-5.532-1.599c2.499-1.42,6.23-3.88,5.695-5.653c-1.354-4.486-6.434-1.77-9.997,1.876
				c-2.656,2.717-4.226,6.882-5.15,9.326c-0.248,0.552-0.494,1.135-0.74,1.778c-3.542,9.27,9.784,14.522,12.986,12.289
				c4.99-3.479-7.216-7.365-7.216-7.365s8.928,5.217,11.383,1.372C427.145,370.051,419.529,366.245,416.593,364.914z"/>
			
				<line style="fill:none;stroke:#FFFFFF;stroke-width:5.3201;stroke-miterlimit:10;" x1="411.446" y1="352.237" x2="403.242" y2="366.799"/>
			<g>
				<path style="fill:#252533;" d="M402.939,368.946c-1.491-0.769-36.469-19.193-32.61-50.147
					c4.002-32.101,52.371-44.1,84.274-40.123l-2.574,20.648c-12.777-1.593-28.389,0.196-40.744,4.669
					c-5.713,2.068-19.126,7.901-20.308,17.38c-2.029,16.272,21.293,28.972,21.53,29.096L402.939,368.946z"/>
			</g>
			<g>
				<path style="fill:#FFB37B;" d="M483.135,364.914c0,0-3.171,0.502-7.066,1.932c-3.858,1.417-6.834-3.465-0.125-5.792
					c2.146-0.744,3.958-1.293,5.532-1.599c-2.499-1.42-6.23-3.88-5.695-5.653c1.354-4.486,6.434-1.77,9.997,1.876
					c2.656,2.717,4.226,6.882,5.15,9.326c0.248,0.552,0.494,1.135,0.74,1.778c3.542,9.27-9.784,14.522-12.986,12.289
					c-4.99-3.479,7.216-7.365,7.216-7.365s-8.928,5.217-11.383,1.372C472.583,370.051,480.199,366.245,483.135,364.914z"/>
				
					<line style="fill:none;stroke:#FFFFFF;stroke-width:5.3201;stroke-miterlimit:10;" x1="488.282" y1="352.237" x2="496.486" y2="366.799"/>
				<g>
					<path style="fill:#252533;" d="M496.789,368.946c1.491-0.769,36.469-19.193,32.61-50.147
						c-4.002-32.101-52.371-44.1-84.274-40.123l2.574,20.648c12.777-1.593,28.389,0.196,40.744,4.669
						c5.713,2.068,19.126,7.901,20.308,17.38c2.029,16.272-21.293,28.972-21.53,29.096L496.789,368.946z"/>
				</g>
			</g>
			<polygon style="fill:#FFFFFF;" points="431.309,281.552 448.779,332.693 466.401,281.552 			"/>
			<path style="fill:#AFA2A0;" d="M466.319,287.203l-0.188-0.09c-10.979-5.285-23.767-5.283-34.744,0.006l-0.175,0.084l4.816,13.978
				l12.738-9.427l12.737,9.427L466.319,287.203z"/>
			<polygon style="fill:#070404;" points="452.371,322.229 448.764,332.697 445.188,322.227 448.84,281.555 448.84,281.555 			"/>
			<path style="fill:#070404;" d="M448.749,296.102h0.061c1.778,0,3.343-1.17,3.847-2.875l1.999-6.77
				c0.759-2.57-1.167-5.147-3.847-5.147h-4.058c-2.679,0-4.606,2.577-3.847,5.147l1.999,6.77
				C445.405,294.932,446.971,296.102,448.749,296.102z"/>
			<path style="fill:#FFFFFF;" d="M466.401,281.552l-0.188-0.09c-10.979-5.285-23.767-5.283-34.744,0.006l-0.176,0.085l4.816,13.978
				l12.738-8.385l12.737,8.385L466.401,281.552z"/>
			<polygon style="fill:#323244;" points="448.764,332.697 466.401,278.351 479.058,283.907 471.408,294.119 466.401,296.075 
				468.507,302.82 			"/>
			<polygon style="fill:#323244;" points="448.764,332.698 431.127,278.353 418.47,283.167 426.12,294.121 431.127,296.076 
				429.021,302.821 			"/>
			<g>
				<path style="fill:#323244;" d="M447.739,335.19c0,19.485,0,38.97,0,58.455c0,1.339,2.081,1.341,2.081,0
					c0-19.485,0-38.97,0-58.455C449.82,333.851,447.739,333.849,447.739,335.19L447.739,335.19z"/>
			</g>
			<path style="fill:#774320;" d="M408.19,250.918c0,0-28.84-48.511,0.039-61.705c6.802-26.12,42.332-19.527,51.013-17.073
				c8.681,2.454,13.828-2.001,13.828-2.001c2.905,2.627,3.189,8.139,3.189,8.139l6.712-8.778c8.898,5.57,13.847,19.912,1.364,40.337
				L408.19,250.918z"/>
			<path style="fill:#FF9E5C;" d="M458.038,278.375c0,4.578-3.711,8.289-8.289,8.289h-2.072c-4.578,0-8.289-3.711-8.289-8.289
				v-14.063c0-4.578,3.711-8.289,8.289-8.289h2.072c4.578,0,8.289,3.711,8.289,8.289V278.375z"/>
			<path style="fill:#FFB37B;" d="M454.634,187.311l-23.563,1.908c-15.295,1.238-26.645,15.213-25.349,31.213l0.558,6.89
				c0.006,0.075-0.052,0.137-0.123,0.132c-0.483-0.031-0.971-0.038-1.466,0.002l-0.276,0.022c-6.022,0.487-10.491,5.99-9.981,12.29
				l0.019,0.23c0.51,6.295,5.801,11.003,11.819,10.516l0.284-0.023c0.506-0.041,0.997-0.129,1.478-0.24
				c0.068-0.016,0.132,0.033,0.14,0.105c1.82,15.356,14.926,26.68,29.79,25.477l23.682-1.917
				c15.295-1.238,26.644-15.213,25.349-31.213l-2.321-28.663C483.378,198.039,469.929,186.072,454.634,187.311z"/>
			<g>
				<path style="fill:#774320;" d="M416.098,235.791c-1.104-13.633-5.34-30.556,5.923-40.799c5.704-5.187,12.421-5.708,19.559-6.286
					c5.813-0.471,11.619-1.047,17.44-1.412c6.28-0.394,5.503-10.41-0.819-10.11c-6.375,0.302-12.721,1.03-19.082,1.545
					c-9.081,0.735-17.313,2.688-24.225,9.368c-7.692,7.434-10.93,17.986-10.055,28.794c0.531,6.56,1.062,13.121,1.593,19.681
					C406.962,243.093,416.626,242.31,416.098,235.791L416.098,235.791z"/>
			</g>
			<path style="fill:#774320;" d="M481.843,179.078c0,0,1.685,15.312-28.862,17.785c-30.548,2.473-41.881,1.736-39.614,29.727
				c0,0-9.39-40.595,16.975-46.585C456.707,174.015,467.321,186.284,481.843,179.078z"/>
			<g>
				<path style="fill:#131516;" d="M441.319,228.617c0.025,2.262-1.282,4.111-2.92,4.129c-1.637,0.018-2.986-1.801-3.011-4.063
					c-0.025-2.262,1.282-4.111,2.92-4.129C439.946,224.536,441.294,226.354,441.319,228.617z"/>
				<path style="fill:#131516;" d="M471.153,227.243c0.025,2.231-1.264,4.054-2.88,4.072c-1.615,0.018-2.945-1.776-2.969-4.007
					c-0.025-2.231,1.264-4.055,2.88-4.072C469.799,223.217,471.128,225.012,471.153,227.243z"/>
				<g>
					<path style="fill:#774320;" d="M444.342,218.213c-4.254,0.343-8.509,0.686-12.763,1.029c-2.112,0.17-1.605,3.419,0.492,3.25
						c4.254-0.343,8.509-0.686,12.764-1.029C446.946,221.293,446.439,218.044,444.342,218.213L444.342,218.213z"/>
				</g>
				<g>
					<path style="fill:#774320;" d="M463.186,220.143c4.315,0.289,8.631,0.578,12.946,0.866c2.099,0.14,2.519-3.12,0.401-3.262
						c-4.315-0.289-8.631-0.578-12.946-0.866C461.488,216.74,461.068,220.001,463.186,220.143L463.186,220.143z"/>
				</g>
			</g>
		</g>
		<g>
			<path style="fill:#774320;" d="M441.712,251.1c7.759,6.409,18.361,5.866,25.24-1.563c0.939-1.014-0.578-2.538-1.52-1.52
				c-6.029,6.511-15.308,7.255-22.2,1.563C442.174,248.706,440.644,250.218,441.712,251.1L441.712,251.1z"/>
		</g>
	</g>
	<g>
		<g style="opacity:0.4;">
			<image style="overflow:visible;" width="611" height="253" xlink:href="C6CD3E0B.png"  transform="matrix(1 0 0 1 129 644.5)">
			</image>
		</g>
		<path style="fill:#808080;" d="M734.935,833.764H280.634c-16.892,0-30.586-13.694-30.586-30.586l-22.143-115.52h448.85
			c20.543,0,37.196,16.653,37.196,37.196L734.935,833.764z"/>
		<g>
			<path style="fill:#FFFFFF;" d="M406.976,740.485v4.272h-13.518v10.092h13.518v4.272h-13.518v10.092h13.518v4.293h-17.79v-33.022
				H406.976z"/>
			<path style="fill:#FFFFFF;" d="M416.945,768.946c0.508,0.495,1.114,0.743,1.816,0.743c0.701,0,1.303-0.248,1.806-0.743
				c0.502-0.495,0.753-1.108,0.753-1.837c0-0.702-0.247-1.3-0.742-1.796c-0.344-0.344-1.08-0.874-2.209-1.589
				c-1.541-0.839-2.634-1.582-3.282-2.229c-1.128-1.128-1.692-2.484-1.692-4.066c0-1.596,0.564-2.962,1.692-4.097
				c1.129-1.135,2.491-1.703,4.087-1.703s2.923,0.537,3.983,1.61c0.756,0.757,1.239,1.603,1.445,2.539l-4.148,1.197
				c-0.096-0.344-0.193-0.571-0.289-0.681c-0.247-0.248-0.577-0.372-0.991-0.372c-0.412,0-0.767,0.148-1.062,0.444
				c-0.297,0.296-0.444,0.65-0.444,1.063s0.145,0.763,0.434,1.052c0.261,0.248,0.852,0.667,1.774,1.259
				c1.706,0.936,2.945,1.789,3.716,2.559c1.334,1.349,2.002,2.952,2.002,4.809c0,1.899-0.664,3.519-1.992,4.86
				c-1.329,1.342-2.941,2.013-4.839,2.013c-1.885,0-3.496-0.674-4.831-2.023c-0.922-0.922-1.527-2.07-1.816-3.446l4.252-0.908
				C416.491,768.238,416.683,768.685,416.945,768.946z"/>
			<path style="fill:#FFFFFF;" d="M433.744,752.27v-7.966h4.272v7.966h3.818v4.272h-3.818v16.965h-4.272v-16.965h-3.818v-4.272
				H433.744z"/>
			<path style="fill:#FFFFFF;" d="M451.081,755.139c1.595-2.16,3.556-3.295,5.881-3.405v4.437c-1.555,0.083-2.793,0.585-3.714,1.507
				c-1.39,1.376-2.113,3.013-2.167,4.912v10.918h-4.272V752.27h4.272V755.139z"/>
			<path style="fill:#FFFFFF;" d="M479.522,753.756v-1.486h4.293v21.258h-4.293v-2.662c-2.063,2.133-4.458,3.199-7.182,3.199
				c-3.249,0-6.017-1.146-8.308-3.437c-2.29-2.291-3.435-5.06-3.435-8.307c0-3.247,1.146-6.016,3.435-8.308
				c2.291-2.29,5.06-3.436,8.308-3.436C475.064,750.577,477.459,751.637,479.522,753.756z M479.522,763.89v-3.137
				c-0.247-1.334-0.908-2.546-1.981-3.633c-1.445-1.431-3.178-2.146-5.2-2.146c-2.036,0-3.775,0.716-5.212,2.146
				c-1.437,1.431-2.157,3.165-2.157,5.201c0,2.022,0.719,3.753,2.157,5.19c1.437,1.438,3.176,2.157,5.212,2.157
				c2.022,0,3.755-0.716,5.2-2.146C478.614,766.435,479.275,765.224,479.522,763.89z"/>
			<path style="fill:#FFFFFF;" d="M492.709,752.27v-7.966h4.272v7.966h3.818v4.272h-3.818v16.965h-4.272v-16.965h-3.818v-4.272
				H492.709z"/>
			<path style="fill:#FFFFFF;" d="M512.38,768.698c0.714,0.633,2.015,0.949,3.9,0.949c2.036,0,3.777-0.715,5.222-2.146
				c0.178-0.192,0.543-0.619,1.093-1.279l4.272,1.527c-1.046,1.445-1.802,2.401-2.269,2.869c-2.299,2.298-5.071,3.447-8.318,3.447
				c-3.233,0-5.999-1.149-8.297-3.447c-2.298-2.298-3.447-5.07-3.447-8.318c0-3.247,1.149-6.019,3.447-8.317
				c2.298-2.297,5.064-3.447,8.297-3.447c2.78,0,5.214,0.84,7.306,2.518c0.344,0.289,0.682,0.598,1.012,0.929
				c0.137,0.138,0.529,0.571,1.176,1.3l-2.146,2.167L512.38,768.698z M519.52,755.489c-0.483-0.371-1.562-0.557-3.241-0.557
				c-2.022,0-3.753,0.719-5.19,2.157c-1.439,1.438-2.157,3.176-2.157,5.211c0,1.665,0.186,2.745,0.557,3.241L519.52,755.489z
				 M516.96,744.468h5.202l-5.614,5.758h-4.066L516.96,744.468z"/>
			<path style="fill:#FFFFFF;" d="M550.251,753.735v-1.466h4.293v15.789c0,4.128-1.121,7.313-3.364,9.556
				c-2.299,2.022-5.071,3.034-8.318,3.034c-3.247,0-6.02-1.011-8.317-3.034c-0.467-0.468-1.217-1.418-2.249-2.849l4.251-1.527
				c0.55,0.66,0.922,1.087,1.115,1.279c1.445,1.431,3.178,2.146,5.2,2.146c3.4,0,5.752-2.229,7.059-6.687
				c-1.335,2.587-3.626,3.88-6.872,3.88c-3.249,0-6.017-1.114-8.308-3.343c-2.29-2.229-3.435-4.967-3.435-8.215
				c0-3.247,1.146-6.016,3.435-8.307c2.291-2.291,5.06-3.437,8.308-3.437C545.786,750.556,548.187,751.616,550.251,753.735z
				 M550.23,760.649c-0.261-1.307-0.922-2.491-1.981-3.55c-1.431-1.445-3.165-2.168-5.2-2.168c-2.036,0-3.775,0.723-5.212,2.168
				c-1.437,1.444-2.157,3.178-2.157,5.2c0,2.037,0.719,3.774,2.157,5.211c1.437,1.438,3.176,2.157,5.212,2.157
				c2.035,0,3.769-0.716,5.2-2.146c1.06-1.06,1.72-2.229,1.981-3.509V760.649z"/>
			<path style="fill:#FFFFFF;" d="M565.422,744.406c0.591,0.578,0.886,1.287,0.886,2.126c0,0.839-0.296,1.547-0.886,2.125
				c-0.593,0.578-1.3,0.867-2.126,0.867c-0.813,0-1.514-0.289-2.106-0.867c-0.591-0.578-0.887-1.286-0.887-2.125
				c0-0.839,0.296-1.548,0.887-2.126c0.591-0.578,1.293-0.867,2.106-0.867C564.122,743.54,564.829,743.828,565.422,744.406z
				 M565.442,752.27v21.238h-4.273V752.27H565.442z"/>
			<path style="fill:#FFFFFF;" d="M588.803,766.222l4.272,1.527c-1.046,1.445-1.802,2.401-2.269,2.869
				c-2.299,2.298-5.071,3.447-8.318,3.447c-3.233,0-5.999-1.149-8.297-3.447c-2.297-2.298-3.447-5.07-3.447-8.318
				c0-3.247,1.149-6.019,3.447-8.317c2.297-2.297,5.063-3.447,8.297-3.447c3.247,0,6.02,1.149,8.318,3.447
				c0.467,0.468,1.224,1.411,2.269,2.827l-4.272,1.569c-0.55-0.674-0.922-1.107-1.114-1.3c-1.431-1.43-3.165-2.146-5.202-2.146
				c-2.022,0-3.753,0.719-5.19,2.157c-1.439,1.438-2.157,3.176-2.157,5.211c0,2.023,0.718,3.753,2.157,5.191
				c1.437,1.438,3.168,2.157,5.19,2.157c2.036,0,3.777-0.715,5.222-2.146C587.888,767.309,588.253,766.882,588.803,766.222z"/>
			<path style="fill:#FFFFFF;" d="M608.535,750.536c3.247,0,6.017,1.149,8.307,3.447c2.291,2.298,3.437,5.071,3.437,8.317
				c0,3.248-1.146,6.02-3.437,8.318c-2.29,2.298-5.06,3.447-8.307,3.447c-3.233,0-5.999-1.149-8.297-3.447
				c-2.298-2.298-3.447-5.07-3.447-8.318c0-3.247,1.149-6.019,3.447-8.317C602.536,751.685,605.302,750.536,608.535,750.536z
				 M603.324,757.099c-1.439,1.444-2.157,3.178-2.157,5.2c0,2.037,0.718,3.771,2.157,5.201c1.437,1.432,3.174,2.146,5.211,2.146
				s3.773-0.715,5.212-2.146c1.437-1.43,2.157-3.164,2.157-5.201c0-2.022-0.719-3.756-2.157-5.2
				c-1.439-1.445-3.176-2.168-5.212-2.168S604.762,755.654,603.324,757.099z"/>
		</g>
		<circle style="fill:#FFFFFF;" cx="258.926" cy="760.467" r="94.132"/>
		<g>
			<path style="fill:#FF0000;" d="M272.393,714.358v90.155h-11.664v-74.941h-8.621l11.833-15.214H272.393z"/>
		</g>
	</g>
	<g>
		<g style="opacity:0.4;">
			<image style="overflow:visible;" width="611" height="253" xlink:href="C6CD3E0D.png"  transform="matrix(1 0 0 1 129 859.5)">
			</image>
		</g>
		<path style="fill:#808080;" d="M734.935,1049.734H280.634c-16.892,0-30.586-13.694-30.586-30.586l-22.143-115.52h448.85
			c20.543,0,37.196,16.653,37.196,37.196L734.935,1049.734z"/>
		<g>
			<path style="fill:#FFFFFF;" d="M414.735,981.613l3.2,2.869c-3.909,3.563-8.043,5.345-12.404,5.345
				c-4.665,0-8.641-1.644-11.93-4.932c-3.288-3.289-4.932-7.265-4.932-11.93c0-4.65,1.643-8.627,4.932-11.929
				c3.289-3.302,7.265-4.953,11.93-4.953c4.361,0,8.495,1.782,12.404,5.346l-3.2,2.91c-2.944-2.614-6.013-3.921-9.204-3.921
				c-3.455,0-6.409,1.224-8.865,3.673c-2.456,2.449-3.684,5.407-3.684,8.875c0,3.481,1.227,6.446,3.684,8.896
				c2.456,2.449,5.41,3.673,8.865,3.673C408.722,985.535,411.791,984.228,414.735,981.613z"/>
			<path style="fill:#FFFFFF;" d="M441.484,969.725v-1.486h4.293v21.258h-4.293v-2.662c-2.063,2.133-4.458,3.199-7.182,3.199
				c-3.249,0-6.017-1.146-8.308-3.437c-2.29-2.291-3.435-5.06-3.435-8.307c0-3.247,1.146-6.016,3.435-8.307
				c2.291-2.29,5.06-3.436,8.308-3.436C437.026,966.547,439.42,967.607,441.484,969.725z M441.484,979.859v-3.137
				c-0.247-1.334-0.908-2.546-1.981-3.633c-1.445-1.431-3.178-2.146-5.2-2.146c-2.036,0-3.775,0.716-5.212,2.146
				s-2.157,3.165-2.157,5.201c0,2.022,0.719,3.753,2.157,5.19c1.437,1.438,3.176,2.157,5.212,2.157c2.022,0,3.755-0.716,5.2-2.146
				C440.576,982.404,441.237,981.194,441.484,979.859z"/>
			<path style="fill:#FFFFFF;" d="M456.282,956.434v33.043h-4.293v-33.043H456.282z"/>
			<path style="fill:#FFFFFF;" d="M467.076,960.376c0.591,0.578,0.887,1.287,0.887,2.126c0,0.839-0.296,1.547-0.887,2.125
				c-0.593,0.578-1.3,0.867-2.126,0.867c-0.813,0-1.514-0.289-2.106-0.867s-0.887-1.286-0.887-2.125
				c0-0.839,0.296-1.548,0.887-2.126s1.293-0.867,2.106-0.867C465.776,959.509,466.484,959.798,467.076,960.376z M467.097,968.239
				v21.238h-4.272v-21.238H467.097z"/>
			<path style="fill:#FFFFFF;" d="M492.07,969.705v-13.25h4.293v33.022h-4.293v-2.642c-2.063,2.133-4.464,3.199-7.202,3.199
				c-3.249,0-6.017-1.149-8.308-3.447c-2.29-2.298-3.435-5.07-3.435-8.318c0-3.247,1.146-6.019,3.435-8.317
				c2.291-2.298,5.06-3.447,8.308-3.447C487.605,966.506,490.007,967.572,492.07,969.705z M492.07,979.859v-3.158
				c-0.247-1.335-0.915-2.546-2.002-3.633c-1.431-1.445-3.165-2.168-5.2-2.168c-2.036,0-3.775,0.723-5.212,2.168
				c-1.437,1.444-2.157,3.178-2.157,5.2c0,2.037,0.719,3.771,2.157,5.201c1.437,1.432,3.176,2.146,5.212,2.146
				c2.035,0,3.769-0.715,5.2-2.146C491.155,982.384,491.823,981.18,492.07,979.859z"/>
			<path style="fill:#FFFFFF;" d="M520.965,969.725v-1.486h4.293v21.258h-4.293v-2.662c-2.063,2.133-4.458,3.199-7.182,3.199
				c-3.249,0-6.017-1.146-8.308-3.437c-2.29-2.291-3.435-5.06-3.435-8.307c0-3.247,1.146-6.016,3.435-8.307
				c2.291-2.29,5.06-3.436,8.308-3.436C516.507,966.547,518.901,967.607,520.965,969.725z M520.965,979.859v-3.137
				c-0.247-1.334-0.907-2.546-1.981-3.633c-1.445-1.431-3.178-2.146-5.2-2.146c-2.036,0-3.775,0.716-5.212,2.146
				s-2.157,3.165-2.157,5.201c0,2.022,0.719,3.753,2.157,5.19c1.437,1.438,3.176,2.157,5.212,2.157c2.022,0,3.755-0.716,5.2-2.146
				C520.057,982.404,520.718,981.194,520.965,979.859z"/>
			<path style="fill:#FFFFFF;" d="M549.899,969.705v-13.25h4.293v33.022h-4.293v-2.642c-2.063,2.133-4.464,3.199-7.202,3.199
				c-3.249,0-6.017-1.149-8.308-3.447c-2.29-2.298-3.435-5.07-3.435-8.318c0-3.247,1.146-6.019,3.435-8.317
				c2.291-2.298,5.06-3.447,8.308-3.447C545.435,966.506,547.836,967.572,549.899,969.705z M549.899,979.859v-3.158
				c-0.247-1.335-0.915-2.546-2.002-3.633c-1.431-1.445-3.165-2.168-5.2-2.168c-2.036,0-3.775,0.723-5.212,2.168
				c-1.437,1.444-2.157,3.178-2.157,5.2c0,2.037,0.719,3.771,2.157,5.201c1.437,1.432,3.176,2.146,5.212,2.146
				c2.035,0,3.769-0.715,5.2-2.146C548.984,982.384,549.652,981.18,549.899,979.859z"/>
		</g>
		<circle style="fill:#FFFFFF;" cx="258.926" cy="976.437" r="94.132"/>
		<g>
			<path style="fill:#FF0000;" d="M243.036,992.056c6.122-4.564,11.344-8.46,15.664-11.692c4.32-3.231,8.179-6.706,11.58-10.425
				c3.398-3.719,5.099-7.851,5.099-12.396c0-4.544-1.606-8.414-4.818-11.607c-3.213-3.192-7.091-4.79-11.636-4.79
				c-4.471,0-8.321,1.597-11.552,4.79c-2.742,2.742-4.45,7.476-5.127,14.199l-11.663-4.226c1.202-7.813,4-13.936,8.395-18.369
				c5.522-5.559,12.171-8.34,19.947-8.34c7.851,0,14.527,2.761,20.031,8.283c5.503,5.522,8.254,12.209,8.254,20.059
				c0,7.739-2.667,14.481-8.001,20.229c-3.38,3.644-7.316,7.147-11.805,10.508c-4.489,3.362-9.475,7.109-14.96,11.241
				c-4.809,3.569-7.494,6.649-8.057,9.241h42.823v11.72h-56.515C232.799,1006.096,236.913,996.62,243.036,992.056z"/>
		</g>
	</g>
	<g style="opacity:0.34;">
		<image style="overflow:visible;" width="835" height="333" xlink:href="C6CD3E0F.png"  transform="matrix(1 0 0 1 30 1083.5)">
		</image>
	</g>
	<path style="fill:#FF0000;" d="M833.617,1355.235H191.646c-23.87,0-43.221-19.351-43.221-43.221l-31.29-163.241h634.268
		c29.029,0,52.562,23.532,52.562,52.561L833.617,1355.235z"/>
	<g>
		<path style="fill:#FFFFFF;" d="M384.791,1270.087v-46.663h6.036v40.597h16.683v6.066H384.791z"/>
		<path style="fill:#FFFFFF;" d="M438.688,1242.176v-2.1h6.066v30.041h-6.066v-3.763c-2.917,3.015-6.3,4.52-10.15,4.52
			c-4.589,0-8.502-1.618-11.738-4.856c-3.237-3.237-4.856-7.15-4.856-11.738c0-4.589,1.619-8.502,4.856-11.739
			c3.237-3.238,7.15-4.856,11.738-4.856C432.388,1237.686,435.771,1239.183,438.688,1242.176z M438.688,1256.497v-4.434
			c-0.351-1.885-1.283-3.596-2.801-5.132c-2.041-2.022-4.491-3.034-7.349-3.034c-2.878,0-5.332,1.012-7.364,3.034
			c-2.033,2.022-3.048,4.472-3.048,7.349c0,2.859,1.015,5.304,3.048,7.335c2.031,2.031,4.486,3.048,7.364,3.048
			c2.859,0,5.309-1.012,7.349-3.034C437.404,1260.094,438.337,1258.383,438.688,1256.497z"/>
		<path style="fill:#FFFFFF;" d="M459.715,1266.354v3.733h-6.036v-46.663h6.036v18.724c2.917-3.015,6.309-4.521,10.179-4.521
			c4.589,0,8.502,1.624,11.74,4.871c3.237,3.247,4.856,7.165,4.856,11.753c0,4.589-1.619,8.506-4.856,11.754
			c-3.238,3.248-7.151,4.87-11.74,4.87C466.024,1270.874,462.631,1269.369,459.715,1266.354z M459.715,1251.918v4.695
			c0.37,1.828,1.302,3.491,2.801,4.987c2.041,2.023,4.5,3.034,7.378,3.034s5.332-1.01,7.365-3.034
			c2.031-2.022,3.048-4.472,3.048-7.349c0-2.858-1.016-5.307-3.048-7.349c-2.033-2.041-4.487-3.062-7.365-3.062
			s-5.337,1.021-7.378,3.062C461.017,1248.398,460.085,1250.071,459.715,1251.918z"/>
		<path style="fill:#FFFFFF;" d="M509.352,1237.627c4.589,0,8.502,1.624,11.74,4.871c3.237,3.247,4.856,7.165,4.856,11.753
			c0,4.589-1.619,8.506-4.856,11.754c-3.238,3.248-7.151,4.87-11.74,4.87c-4.569,0-8.477-1.623-11.723-4.87
			c-3.247-3.247-4.871-7.165-4.871-11.754c0-4.588,1.624-8.505,4.871-11.753C500.876,1239.25,504.784,1237.627,509.352,1237.627z
			 M501.989,1246.901c-2.031,2.042-3.048,4.492-3.048,7.349c0,2.878,1.016,5.327,3.048,7.349c2.031,2.023,4.486,3.034,7.364,3.034
			c2.878,0,5.332-1.01,7.365-3.034c2.031-2.022,3.048-4.472,3.048-7.349c0-2.858-1.016-5.307-3.048-7.349
			c-2.033-2.041-4.487-3.062-7.365-3.062C506.475,1243.839,504.02,1244.86,501.989,1246.901z"/>
		<path style="fill:#FFFFFF;" d="M538.984,1244.131c2.256-3.052,5.026-4.656,8.313-4.812v6.27c-2.197,0.116-3.947,0.826-5.249,2.128
			c-1.964,1.945-2.985,4.258-3.063,6.942v15.428h-6.036v-30.011h6.036V1244.131z"/>
		<path style="fill:#FFFFFF;" d="M579.175,1242.176v-2.1h6.066v30.041h-6.066v-3.763c-2.917,3.015-6.3,4.52-10.15,4.52
			c-4.589,0-8.502-1.618-11.738-4.856c-3.237-3.237-4.856-7.15-4.856-11.738c0-4.589,1.619-8.502,4.856-11.739
			c3.237-3.238,7.15-4.856,11.738-4.856C572.875,1237.686,576.258,1239.183,579.175,1242.176z M579.175,1256.497v-4.434
			c-0.351-1.885-1.283-3.596-2.801-5.132c-2.041-2.022-4.491-3.034-7.349-3.034c-2.878,0-5.332,1.012-7.364,3.034
			c-2.033,2.022-3.048,4.472-3.048,7.349c0,2.859,1.015,5.304,3.048,7.335c2.031,2.031,4.486,3.048,7.364,3.048
			c2.859,0,5.309-1.012,7.349-3.034C577.891,1260.094,578.824,1258.383,579.175,1256.497z"/>
		<path style="fill:#FFFFFF;" d="M597.811,1240.076v-11.257h6.036v11.257h5.396v6.038h-5.396v23.973h-6.036v-23.973h-5.396v-6.038
			H597.811z"/>
		<path style="fill:#FFFFFF;" d="M631.116,1237.627c4.589,0,8.502,1.624,11.74,4.871c3.237,3.247,4.856,7.165,4.856,11.753
			c0,4.589-1.619,8.506-4.856,11.754c-3.238,3.248-7.151,4.87-11.74,4.87c-4.569,0-8.477-1.623-11.723-4.87
			c-3.247-3.247-4.871-7.165-4.871-11.754c0-4.588,1.624-8.505,4.871-11.753C622.639,1239.25,626.547,1237.627,631.116,1237.627z
			 M623.752,1246.901c-2.031,2.042-3.048,4.492-3.048,7.349c0,2.878,1.016,5.327,3.048,7.349c2.031,2.023,4.486,3.034,7.364,3.034
			s5.332-1.01,7.365-3.034c2.031-2.022,3.048-4.472,3.048-7.349c0-2.858-1.016-5.307-3.048-7.349
			c-2.033-2.041-4.487-3.062-7.365-3.062S625.784,1244.86,623.752,1246.901z"/>
		<path style="fill:#FFFFFF;" d="M660.747,1244.131c2.256-3.052,5.026-4.656,8.313-4.812v6.27c-2.197,0.116-3.947,0.826-5.249,2.128
			c-1.964,1.945-2.985,4.258-3.063,6.942v15.428h-6.036v-30.011h6.036V1244.131z"/>
		<path style="fill:#FFFFFF;" d="M682.008,1228.965c0.836,0.817,1.254,1.818,1.254,3.004c0,1.185-0.418,2.186-1.254,3.003
			c-0.836,0.817-1.838,1.225-3.004,1.225c-1.148,0-2.139-0.409-2.975-1.225c-0.837-0.817-1.254-1.818-1.254-3.003
			c0-1.187,0.417-2.188,1.254-3.004c0.836-0.817,1.827-1.225,2.975-1.225C680.171,1227.74,681.173,1228.149,682.008,1228.965z
			 M682.038,1240.076v30.011H676v-30.011H682.038z"/>
		<path style="fill:#FFFFFF;" d="M706.128,1237.627c4.589,0,8.502,1.624,11.74,4.871c3.237,3.247,4.856,7.165,4.856,11.753
			c0,4.589-1.619,8.506-4.856,11.754c-3.238,3.248-7.151,4.87-11.74,4.87c-4.569,0-8.477-1.623-11.723-4.87
			c-3.247-3.247-4.871-7.165-4.871-11.754c0-4.588,1.624-8.505,4.871-11.753C697.651,1239.25,701.56,1237.627,706.128,1237.627z
			 M698.765,1246.901c-2.031,2.042-3.048,4.492-3.048,7.349c0,2.878,1.016,5.327,3.048,7.349c2.031,2.023,4.486,3.034,7.364,3.034
			c2.878,0,5.332-1.01,7.365-3.034c2.031-2.022,3.048-4.472,3.048-7.349c0-2.858-1.016-5.307-3.048-7.349
			c-2.033-2.041-4.487-3.062-7.365-3.062C703.251,1243.839,700.796,1244.86,698.765,1246.901z"/>
	</g>
	<circle style="fill:#FFFFFF;" cx="200.858" cy="1246.659" r="129.906"/>
	<g>
		<path style="fill:#FF0000;" d="M196.582,1243.37l-9.72-0.233v-15.941c7.05-0.104,11.689-0.584,13.919-1.439
			c2.228-0.854,4.666-2.682,7.309-5.482c2.644-2.798,3.966-6.013,3.966-9.642c0-3.577-1.244-6.597-3.733-9.059
			c-2.488-2.462-5.521-3.693-9.098-3.693c-3.526,0-6.532,1.218-9.02,3.654c-1.4,1.452-3.007,4.615-4.821,9.487l-15.008-5.91
			c2.228-6.998,4.95-12.026,8.165-15.085c5.754-5.702,12.648-8.554,20.684-8.554c8.19,0,15.137,2.878,20.84,8.632
			c5.702,5.754,8.554,12.596,8.554,20.528c0,8.087-4.796,15.89-14.386,23.406c4.613,0.311,9.46,2.93,14.541,7.854
			c7.413,7.984,11.12,17.315,11.12,27.994c0,10.784-3.798,19.998-11.392,27.644c-7.595,7.647-16.81,11.47-27.644,11.47
			c-10.731,0-19.907-3.836-27.527-11.508c-6.065-6.117-9.927-14.592-11.586-25.428l16.096-5.832
			c0.934,9.331,3.292,15.89,7.076,19.673c4.458,4.407,9.771,6.61,15.941,6.61c6.272,0,11.626-2.203,16.058-6.61
			c4.432-4.406,6.649-9.745,6.649-16.019c0-6.324-2.216-11.897-6.649-16.718C212.484,1248.346,205.705,1245.081,196.582,1243.37z"/>
	</g>
	<g>
		<g style="opacity:0.44;">
			<image style="overflow:visible;" width="601" height="253" xlink:href="C6CD3E0C.png"  transform="matrix(1 0 0 1 129 1445.5)">
			</image>
		</g>
		<path style="fill:#808080;" d="M735.82,1648.771H282.127c-16.87,0-30.545-13.676-30.545-30.545l-22.114-115.365h448.25
			c20.515,0,37.146,16.631,37.146,37.146L735.82,1648.771z"/>
		<g>
			<path style="fill:#FFFFFF;" d="M403.843,1532.389l11.995,32.979h-4.534l-4.246-11.667h-8.739l-4.225,11.667h-4.556l11.996-32.979
				H403.843z M405.513,1549.436l-2.824-7.729l-2.803,7.729H405.513z"/>
			<path style="fill:#FFFFFF;" d="M438.367,1545.621v-13.232h4.287v32.979h-4.287v-2.638c-2.061,2.13-4.458,3.194-7.193,3.194
				c-3.244,0-6.009-1.147-8.297-3.441c-2.287-2.296-3.431-5.064-3.431-8.307c0-3.243,1.144-6.012,3.431-8.306
				c2.288-2.294,5.053-3.442,8.297-3.442C433.909,1542.427,436.307,1543.492,438.367,1545.621z M438.367,1555.763v-3.153
				c-0.247-1.333-0.914-2.542-1.999-3.628c-1.429-1.443-3.161-2.164-5.193-2.164c-2.034,0-3.77,0.721-5.205,2.164
				c-1.435,1.443-2.154,3.174-2.154,5.193c0,2.034,0.718,3.766,2.154,5.195c1.435,1.429,3.171,2.144,5.205,2.144
				c2.032,0,3.764-0.715,5.193-2.144C437.453,1558.285,438.121,1557.082,438.367,1555.763z"/>
			<path style="fill:#FFFFFF;" d="M448.839,1544.159h4.267v1.979c0.824-2.075,2.411-3.113,4.76-3.113
				c2.337,0,3.648,1.181,3.937,3.545c0.674-2.363,2.528-3.545,5.565-3.545c2.995,0,4.493,1.82,4.493,5.462v16.88h-4.287v-14.922
				c0-2.089-0.845-3.133-2.535-3.133c-0.7,0-1.306,0.247-1.814,0.741c-0.509,0.495-0.763,2.158-0.763,4.988v12.326h-4.267
				l0.022-14.922c0-2.089-0.853-3.133-2.556-3.133c-0.7,0-1.305,0.247-1.814,0.741c-0.44,0.426-0.688,1.553-0.741,3.381v13.933
				h-4.267V1544.159z"/>
			<path style="fill:#FFFFFF;" d="M482.662,1536.305c0.591,0.578,0.886,1.285,0.886,2.123s-0.295,1.545-0.886,2.123
				c-0.592,0.577-1.299,0.865-2.123,0.865c-0.812,0-1.512-0.289-2.103-0.865c-0.591-0.578-0.886-1.285-0.886-2.123
				s0.295-1.545,0.886-2.123c0.591-0.576,1.291-0.865,2.103-0.865C481.363,1535.44,482.07,1535.729,482.662,1536.305z
				 M482.683,1544.159v21.209h-4.267v-21.209H482.683z"/>
			<path style="fill:#FFFFFF;" d="M493.503,1549.847v15.52h-4.287v-21.209h4.287v2.473c0.892-2.418,2.686-3.628,5.379-3.628
				c2.294,0,4.118,0.814,5.472,2.441c1.354,1.628,2.052,3.672,2.092,6.133v13.788h-4.267v-13.624c0-1.223-0.446-2.271-1.34-3.144
				c-0.893-0.872-1.958-1.308-3.194-1.308c-1.223,0-2.282,0.426-3.174,1.277C493.977,1549.078,493.654,1549.503,493.503,1549.847z"
				/>
			<path style="fill:#FFFFFF;" d="M517.288,1536.305c0.591,0.578,0.886,1.285,0.886,2.123s-0.295,1.545-0.886,2.123
				c-0.592,0.577-1.299,0.865-2.123,0.865c-0.812,0-1.512-0.289-2.103-0.865c-0.591-0.578-0.886-1.285-0.886-2.123
				s0.295-1.545,0.886-2.123c0.591-0.576,1.291-0.865,2.103-0.865C515.99,1535.44,516.697,1535.729,517.288,1536.305z
				 M517.309,1544.159v21.209h-4.267v-21.209H517.309z"/>
			<path style="fill:#FFFFFF;" d="M528.13,1560.812c0.507,0.495,1.112,0.743,1.814,0.743c0.701,0,1.301-0.248,1.804-0.743
				c0.501-0.495,0.752-1.106,0.752-1.834c0-0.7-0.247-1.299-0.741-1.793c-0.344-0.343-1.079-0.872-2.206-1.586
				c-1.539-0.839-2.631-1.58-3.277-2.227c-1.126-1.126-1.69-2.48-1.69-4.06c0-1.594,0.564-2.958,1.69-4.092
				c1.127-1.134,2.487-1.7,4.081-1.7s2.919,0.536,3.978,1.607c0.755,0.757,1.237,1.602,1.443,2.536l-4.143,1.195
				c-0.096-0.344-0.193-0.57-0.289-0.68c-0.247-0.248-0.576-0.371-0.989-0.371c-0.412,0-0.766,0.147-1.061,0.442
				c-0.297,0.297-0.444,0.649-0.444,1.062c0,0.412,0.144,0.762,0.433,1.051c0.261,0.248,0.851,0.667,1.772,1.258
				c1.704,0.934,2.941,1.786,3.711,2.555c1.332,1.347,1.999,2.948,1.999,4.802c0,1.897-0.663,3.515-1.989,4.855
				c-1.327,1.34-2.937,2.009-4.833,2.009c-1.883,0-3.491-0.674-4.824-2.02c-0.92-0.92-1.525-2.068-1.814-3.442l4.246-0.908
				C527.677,1560.105,527.868,1560.551,528.13,1560.812z"/>
			<path style="fill:#FFFFFF;" d="M544.907,1544.159v-7.957h4.267v7.957h3.813v4.266h-3.813v16.943h-4.267v-16.943h-3.813v-4.266
				H544.907z"/>
			<path style="fill:#FFFFFF;" d="M562.221,1547.024c1.593-2.158,3.551-3.29,5.874-3.401v4.432
				c-1.553,0.083-2.789,0.584-3.709,1.505c-1.388,1.374-2.11,3.01-2.164,4.906v10.903h-4.267v-21.209h4.267V1547.024z"/>
			<path style="fill:#FFFFFF;" d="M590.624,1545.643v-1.484h4.287v21.229h-4.287v-2.659c-2.061,2.13-4.452,3.194-7.172,3.194
				c-3.244,0-6.009-1.144-8.297-3.431c-2.287-2.288-3.431-5.054-3.431-8.297s1.144-6.008,3.431-8.296
				c2.288-2.288,5.053-3.432,8.297-3.432C586.171,1542.468,588.563,1543.526,590.624,1545.643z M590.624,1555.763v-3.133
				c-0.247-1.333-0.906-2.542-1.979-3.628c-1.443-1.429-3.174-2.144-5.193-2.144c-2.034,0-3.77,0.714-5.205,2.144
				c-1.435,1.429-2.154,3.161-2.154,5.193c0,2.021,0.718,3.749,2.154,5.185c1.435,1.435,3.171,2.154,5.205,2.154
				c2.02,0,3.75-0.714,5.193-2.144C589.717,1558.305,590.377,1557.096,590.624,1555.763z"/>
			<path style="fill:#FFFFFF;" d="M603.793,1544.159v-7.957h4.267v7.957h3.813v4.266h-3.813v16.943h-4.267v-16.943h-3.813v-4.266
				H603.793z"/>
			<path style="fill:#FFFFFF;" d="M621.438,1536.305c0.591,0.578,0.886,1.285,0.886,2.123s-0.295,1.545-0.886,2.123
				c-0.592,0.577-1.299,0.865-2.123,0.865c-0.812,0-1.512-0.289-2.103-0.865c-0.591-0.578-0.886-1.285-0.886-2.123
				s0.295-1.545,0.886-2.123c0.591-0.576,1.291-0.865,2.103-0.865C620.139,1535.44,620.846,1535.729,621.438,1536.305z
				 M621.458,1544.159v21.209h-4.267v-21.209H621.458z"/>
			<path style="fill:#FFFFFF;" d="M636.051,1565.368l-10.121-21.209h4.823l6.369,13.768l6.39-13.768h4.823l-10.142,21.209H636.051z"
				/>
			<path style="fill:#FFFFFF;" d="M670.245,1545.643v-1.484h4.287v21.229h-4.287v-2.659c-2.06,2.13-4.452,3.194-7.172,3.194
				c-3.244,0-6.009-1.144-8.297-3.431c-2.287-2.288-3.431-5.054-3.431-8.297s1.144-6.008,3.431-8.296
				c2.288-2.288,5.053-3.432,8.297-3.432C665.793,1542.468,668.185,1543.526,670.245,1545.643z M670.245,1555.763v-3.133
				c-0.247-1.333-0.906-2.542-1.979-3.628c-1.443-1.429-3.174-2.144-5.193-2.144c-2.034,0-3.77,0.714-5.205,2.144
				c-1.435,1.429-2.154,3.161-2.154,5.193c0,2.021,0.718,3.749,2.154,5.185c1.435,1.435,3.171,2.154,5.205,2.154
				c2.02,0,3.75-0.714,5.193-2.144C669.339,1558.305,669.998,1557.096,670.245,1555.763z"/>
			<path style="fill:#FFFFFF;" d="M396.814,1623.153h-4.513l5.647-11.852l-7.894-16.488h4.802l5.38,11.604l5.38-11.604h4.782
				L396.814,1623.153z"/>
			<path style="fill:#FFFFFF;" d="M445.541,1583.043v4.267h-11.604v10.079h11.604v4.267h-11.604v14.366h-4.267v-32.979H445.541z"/>
			<path style="fill:#FFFFFF;" d="M455.062,1586.96c0.591,0.578,0.886,1.285,0.886,2.123c0,0.839-0.295,1.545-0.886,2.123
				c-0.592,0.577-1.299,0.865-2.123,0.865c-0.812,0-1.512-0.289-2.103-0.865c-0.591-0.578-0.886-1.285-0.886-2.123
				c0-0.839,0.295-1.545,0.886-2.123c0.591-0.577,1.291-0.865,2.103-0.865C453.764,1586.094,454.471,1586.383,455.062,1586.96z
				 M455.083,1594.813v21.208h-4.267v-21.208H455.083z"/>
			<path style="fill:#FFFFFF;" d="M465.904,1600.501v15.52h-4.287v-21.208h4.287v2.473c0.892-2.418,2.686-3.628,5.379-3.628
				c2.294,0,4.118,0.814,5.472,2.441c1.354,1.629,2.052,3.672,2.092,6.133v13.788h-4.267v-13.624c0-1.223-0.446-2.271-1.34-3.144
				c-0.893-0.872-1.958-1.308-3.194-1.308c-1.223,0-2.282,0.426-3.174,1.277C466.379,1599.732,466.055,1600.157,465.904,1600.501z"
				/>
			<path style="fill:#FFFFFF;" d="M503.478,1596.297v-1.484h4.287v21.229h-4.287v-2.659c-2.061,2.13-4.452,3.194-7.172,3.194
				c-3.244,0-6.009-1.144-8.297-3.431c-2.287-2.288-3.431-5.054-3.431-8.297c0-3.243,1.144-6.008,3.431-8.296
				c2.288-2.288,5.053-3.432,8.297-3.432C499.026,1593.122,501.418,1594.18,503.478,1596.297z M503.478,1606.417v-3.133
				c-0.247-1.333-0.906-2.542-1.979-3.628c-1.443-1.429-3.174-2.144-5.193-2.144c-2.034,0-3.77,0.714-5.205,2.144
				c-1.435,1.429-2.154,3.161-2.154,5.194c0,2.021,0.718,3.749,2.154,5.184c1.435,1.436,3.171,2.154,5.205,2.154
				c2.02,0,3.75-0.714,5.193-2.144C502.572,1608.959,503.232,1607.75,503.478,1606.417z"/>
			<path style="fill:#FFFFFF;" d="M518.257,1600.501v15.52h-4.287v-21.208h4.287v2.473c0.892-2.418,2.686-3.628,5.379-3.628
				c2.294,0,4.119,0.814,5.472,2.441c1.354,1.629,2.052,3.672,2.092,6.133v13.788h-4.267v-13.624c0-1.223-0.446-2.271-1.34-3.144
				c-0.893-0.872-1.958-1.308-3.194-1.308c-1.223,0-2.282,0.426-3.174,1.277C518.731,1599.732,518.408,1600.157,518.257,1600.501z"
				/>
			<path style="fill:#FFFFFF;" d="M554.244,1608.746l4.267,1.525c-1.044,1.443-1.8,2.398-2.266,2.866
				c-2.296,2.294-5.064,3.441-8.307,3.441c-3.229,0-5.991-1.147-8.286-3.441c-2.294-2.296-3.442-5.064-3.442-8.307
				s1.148-6.012,3.442-8.306s5.057-3.442,8.286-3.442c3.243,0,6.012,1.148,8.307,3.442c0.467,0.468,1.222,1.409,2.266,2.824
				l-4.267,1.567c-0.55-0.674-0.92-1.107-1.112-1.299c-1.429-1.429-3.161-2.144-5.195-2.144c-2.02,0-3.748,0.718-5.183,2.154
				c-1.437,1.435-2.154,3.17-2.154,5.204c0,2.02,0.717,3.748,2.154,5.185c1.435,1.435,3.164,2.154,5.183,2.154
				c2.034,0,3.772-0.715,5.215-2.144C553.33,1609.831,553.694,1609.405,554.244,1608.746z"/>
			<path style="fill:#FFFFFF;" d="M568.055,1586.96c0.591,0.578,0.886,1.285,0.886,2.123c0,0.839-0.295,1.545-0.886,2.123
				c-0.592,0.577-1.299,0.865-2.123,0.865c-0.812,0-1.512-0.289-2.103-0.865c-0.591-0.578-0.886-1.285-0.886-2.123
				c0-0.839,0.295-1.545,0.886-2.123c0.591-0.577,1.291-0.865,2.103-0.865C566.756,1586.094,567.463,1586.383,568.055,1586.96z
				 M568.075,1594.813v21.208h-4.267v-21.208H568.075z"/>
			<path style="fill:#FFFFFF;" d="M581.204,1611.219c0.713,0.633,2.012,0.948,3.895,0.948c2.034,0,3.772-0.715,5.215-2.144
				c0.178-0.193,0.542-0.619,1.092-1.278l4.267,1.525c-1.044,1.443-1.8,2.398-2.266,2.866c-2.296,2.294-5.064,3.441-8.307,3.441
				c-3.229,0-5.991-1.147-8.286-3.441c-2.294-2.296-3.442-5.064-3.442-8.307s1.148-6.012,3.442-8.306s5.057-3.442,8.286-3.442
				c2.776,0,5.208,0.839,7.296,2.514c0.344,0.289,0.681,0.598,1.011,0.928c0.137,0.138,0.528,0.57,1.175,1.299l-2.144,2.164
				L581.204,1611.219z M588.335,1598.028c-0.482-0.371-1.559-0.556-3.237-0.556c-2.02,0-3.748,0.718-5.183,2.154
				c-1.437,1.435-2.154,3.17-2.154,5.204c0,1.663,0.185,2.742,0.556,3.236L588.335,1598.028z"/>
			<path style="fill:#FFFFFF;" d="M604.887,1597.678c1.593-2.158,3.551-3.29,5.874-3.401v4.432
				c-1.553,0.083-2.789,0.584-3.709,1.504c-1.388,1.374-2.11,3.01-2.164,4.906v10.903h-4.267v-21.208h4.267V1597.678z"/>
			<path style="fill:#FFFFFF;" d="M633.289,1596.297v-1.484h4.287v21.229h-4.287v-2.659c-2.06,2.13-4.452,3.194-7.172,3.194
				c-3.244,0-6.009-1.144-8.297-3.431c-2.287-2.288-3.431-5.054-3.431-8.297c0-3.243,1.144-6.008,3.431-8.296
				c2.288-2.288,5.053-3.432,8.297-3.432C628.836,1593.122,631.228,1594.18,633.289,1596.297z M633.289,1606.417v-3.133
				c-0.247-1.333-0.906-2.542-1.979-3.628c-1.443-1.429-3.174-2.144-5.193-2.144c-2.034,0-3.77,0.714-5.205,2.144
				c-1.435,1.429-2.154,3.161-2.154,5.194c0,2.021,0.718,3.749,2.154,5.184c1.435,1.436,3.171,2.154,5.205,2.154
				c2.02,0,3.75-0.714,5.193-2.144C632.382,1608.959,633.042,1607.75,633.289,1606.417z"/>
		</g>
		<circle style="fill:#FFFFFF;" cx="260.448" cy="1562.753" r="94.006"/>
		<g>
			<path style="fill:#FF0000;" d="M271.703,1516.706h10.185v54.077h7.934v11.647h-7.934v24.31h-11.649v-24.31h-36.857
				L271.703,1516.706z M270.239,1542.984l-16.6,27.799h16.6V1542.984z"/>
		</g>
	</g>
	<g>
		<path style="fill:#6B2A18;" d="M559.525,2188.923l0.485-1.927c1.945-7.726-2.741-15.565-10.467-17.511l-11.887-2.993
			c-2.751-0.693-4.419-3.484-3.727-6.235l0.025-0.101c0.692-2.751-0.976-5.542-3.727-6.235l-24.249-6.105
			c-2.751-0.693-5.542,0.976-6.235,3.727l-3.9,15.489c-0.766,3.042,1.079,6.129,4.121,6.895l16.587,4.176l0.661-2.625l4.862,4.015
			L559.525,2188.923z"/>
		<path style="fill:#FFB37B;" d="M397.131,2013.587c1.683-0.382,4.077,0.783,7.008,1.393c0,0,8.871-2.172,7.599,1.979
			c-1.327,4.329-4.702,5.525-8.123,5.482c3.291,4.987,8.608,9.738,6.121,13.286c-4.735,6.754-14.335-6.696-14.335-6.696
			s2.306,4.234,6.229,7.977c6.081,5.803-4.141,9.55-9.887,3.974c1.094,7.079-7.384,9.691-9.662-7.258
			c-0.873-6.497,2.74-11.673,6.041-15.368C390.367,2015.845,394.159,2013.628,397.131,2013.587z"/>
		<g>
			<path style="fill:#FF9E5C;" d="M547.332,1785.544c2.512,11.586-5.52,15.024-13.948,15.024c-8.428,0-15.261-6.282-15.261-14.032
				c0-7.75,6.832-14.032,15.261-14.032C541.811,1772.504,545.69,1777.97,547.332,1785.544z"/>
			<path style="fill:#FFB37B;" d="M542.496,1773.825c0,4.612-2.704,8.35-6.04,8.35c-3.336,0-6.04-3.739-6.04-8.35
				c0-4.612,2.704-8.35,6.04-8.35C539.792,1765.475,542.496,1769.213,542.496,1773.825z"/>
			<path style="fill:#FFB37B;" d="M524.223,1793.601c-7.475-6.229-3.737-26.852,5.606-28.064c9.343-1.212,6.668,15.488,0,16.229
				c-5.606,0.623-4.36-7.474-4.36-7.474"/>
			<path style="fill:#FFB37B;" d="M522.225,1771.862c-9.475,2.564-4.904,28.977,8.078,28.703
				c12.982-0.274,8.977-24.327-3.097-16.608C527.207,1783.958,526.818,1770.62,522.225,1771.862z"/>
			<path style="fill:#FFB37B;" d="M547.678,1777.809c-1.357,3.956-4.777,6.368-7.638,5.387c-2.862-0.981-4.082-4.984-2.725-8.941
				c1.357-3.956,4.777-6.368,7.638-5.387C547.815,1769.85,549.035,1773.853,547.678,1777.809z"/>
			<path style="fill:#FFB37B;" d="M551.7,1780.225c-1.144,3.335-4.027,5.368-6.439,4.541c-2.413-0.827-3.441-4.202-2.297-7.537
				c1.144-3.335,4.027-5.368,6.439-4.541C551.815,1773.516,552.844,1776.89,551.7,1780.225z"/>
			<polygon style="fill:#FFFFFF;" points="540.255,1811.031 514.653,1802.511 518.4,1791.041 544.003,1799.561 			"/>
		</g>
		<g>
			
				<rect x="375.024" y="2009.953" transform="matrix(0.829 -0.5593 0.5593 0.829 -1061.285 561.2895)" style="fill:#FFFFFF;" width="24.234" height="12.067"/>
		</g>
		<g>
			<path style="fill:#252533;" d="M374.455,2023.782c-1.393-1.909-33.839-47.181-9.453-83.744
				c25.289-37.917,93.792-22.526,131.476,2.607l-15.522,16.45c-42.288-4.913-36.632-9.72-55.019-11.877
				c-8.501-0.998-29.079-2.11-36.546,9.086c-12.819,19.22,8.552,49.93,8.772,50.235L374.455,2023.782z"/>
		</g>
		
			<line style="fill:none;stroke:#252533;stroke-width:18.4526;stroke-miterlimit:10;" x1="481.339" y1="1939.935" x2="529.918" y2="1800.539"/>
		<path style="fill:#6B2A18;" d="M411.898,2201.835c0,0-3.323,12.439,14.824,30.963c16.431,16.773,21.802,3.547,20.914-3.097
			c-1.313-9.829-7.592-20.938-7.221-23.422c0,0,3.012-4.283,2.298-7.139c-5.908-23.634-21.398-26.348-29.411-22.194
			C403.98,2181.778,404.015,2192.375,411.898,2201.835z"/>
		<g>
			<path style="fill:#252533;" d="M412.898,2043.223C412.78,2042.944,412.752,2042.883,412.898,2043.223L412.898,2043.223z"/>
			<path style="fill:#252533;" d="M547.143,2083.854c-0.637-7.204-3.828-12.291-8.223-17.79
				c-12.618-15.789-29.146-29.053-44.772-41.837c-3.273-3.497-7.916-5.695-13.083-5.695h-50.081c-8.855,0-16.192,6.423-17.652,14.86
				c-1.101,3.385-0.952,7.171,0.174,10.849c0.069,0.238,0.141,0.474,0.225,0.706c0.205,0.601,0.428,1.198,0.685,1.789
				c-0.886-2.039-1.337-3.088-1.518-3.512c0.202,0.48,0.67,1.606,0.97,2.427c0.84,2.295,1.564,4.631,2.252,6.975
				c1.074,3.664,1.963,7.379,2.773,11.109c0.556,2.564,1.03,5.145,1.48,7.73c0.248,1.428,0.466,2.862,0.683,4.295
				c0.042,0.277,0.077,0.5,0.108,0.7c0.032,0.284,0.08,0.689,0.153,1.289c4.203,34.37,0.03,69.039-8.96,102.316
				c-5.286,19.568,24.991,27.861,30.263,8.344c9.69-35.867,14.333-73.607,10.081-110.659c-0.831-7.243-1.907-14.492-3.408-21.639
				h34.276c10.271,8.734,20.291,17.835,29.373,27.709c0.822,0.895,1.615,1.815,2.404,2.739c0.06,0.071,0.098,0.114,0.151,0.174
				c0.076,1.085,0.181,2.497,0.095,3.401c-0.016,0.167-0.026,0.285-0.039,0.42c-0.049,0.275-0.114,0.663-0.204,1.238
				c-0.263,1.67-0.578,3.333-0.889,4.995c-2.691,14.398-6.419,28.705-10.685,42.714c-5.912,19.413,24.384,27.647,30.263,8.343
				c4.439-14.577,8.206-29.447,11.005-44.427C546.218,2097.123,547.713,2090.291,547.143,2083.854z"/>
		</g>
		<path style="fill:#252533;" d="M455.211,1915.684c-49.038,0-42.954,24.808-42.954,24.808v96.702
			c21.018,10.751,70.577,12.423,85.507-7.473v-96.6C497.764,1933.121,504.249,1915.684,455.211,1915.684z"/>
		<polygon style="fill:#FFFFFF;" points="434.168,1920.85 465.729,1973.13 477.987,1920.85 		"/>
		<path style="fill:#AFA2A0;" d="M478.962,1926.627l-0.252-0.092c-14.716-5.403-30.684-5.401-43.383,0.006l-0.203,0.086
			l8.678,14.289l14.109-9.636l17.701,9.636L478.962,1926.627z"/>
		<polygon style="fill:#070404;" points="468.22,1962.433 465.711,1973.133 459.25,1962.431 456.059,1920.854 456.059,1920.854 		
			"/>
		<path style="fill:#070404;" d="M458.718,1935.725h0.076c2.22,0,3.952-1.196,4.256-2.939l1.206-6.92
			c0.458-2.627-2.438-5.262-5.784-5.262h-5.067c-3.346,0-5.26,2.634-3.823,5.262l3.786,6.92
			C454.32,1934.528,456.498,1935.725,458.718,1935.725z"/>
		<path style="fill:#FFFFFF;" d="M477.987,1920.85l-0.251-0.092c-14.716-5.403-30.684-5.401-43.383,0.006l-0.203,0.086l8.678,14.289
			l14.307-8.571l17.503,8.571L477.987,1920.85z"/>
		<polygon style="fill:#323244;" points="465.711,1973.133 477.377,1917.578 494.24,1923.257 486.635,1933.697 480.755,1935.696 
			484.67,1942.591 		"/>
		<polygon style="fill:#323244;" points="465.711,1973.135 433.332,1917.58 418.445,1922.501 430.084,1933.699 436.709,1935.698 
			435.365,1942.593 		"/>
		<path style="fill:#774320;" d="M412.997,1893.89c0,0-29.861-50.228,0.04-63.889c7.043-27.044,43.83-20.219,52.818-17.677
			c8.989,2.541,14.317-2.072,14.317-2.072c3.008,2.72,3.301,8.427,3.301,8.427l6.95-9.088c9.213,5.767,14.337,20.616,1.412,41.765
			L412.997,1893.89z"/>
		<path style="fill:#FF9E5C;" d="M464.609,1917.459c0,4.74-3.843,8.583-8.583,8.583h-2.146c-4.74,0-8.583-3.843-8.583-8.583v-14.56
			c0-4.74,3.842-8.583,8.583-8.583h2.146c4.74,0,8.583,3.843,8.583,8.583V1917.459z"/>
		<path style="fill:#FFB37B;" d="M461.084,1828.031l-24.397,1.975c-15.837,1.282-27.587,15.751-26.246,32.318l0.578,7.134
			c0.006,0.078-0.054,0.141-0.128,0.137c-0.5-0.032-1.005-0.039-1.518,0.002l-0.285,0.023c-6.235,0.505-10.862,6.202-10.334,12.724
			l0.019,0.238c0.528,6.518,6.006,11.393,12.237,10.888l0.294-0.024c0.524-0.042,1.032-0.134,1.53-0.249
			c0.07-0.016,0.137,0.034,0.145,0.108c1.884,15.9,15.454,27.625,30.845,26.379l24.52-1.985
			c15.836-1.282,27.587-15.751,26.246-32.318l-2.403-29.677C490.846,1839.14,476.921,1826.749,461.084,1828.031z"/>
		<g>
			<path style="fill:#774320;" d="M421.185,1878.228c-1.143-14.115-5.529-31.637,6.133-42.243c5.906-5.371,12.86-5.91,20.252-6.508
				c6.019-0.487,12.03-1.084,18.057-1.462c6.503-0.408,5.698-10.778-0.848-10.468c-6.6,0.313-13.171,1.067-19.757,1.6
				c-9.402,0.761-17.926,2.783-25.083,9.7c-7.964,7.698-11.317,18.622-10.411,29.813c0.55,6.792,1.1,13.585,1.65,20.378
				C411.725,1885.788,421.731,1884.978,421.185,1878.228L421.185,1878.228z"/>
		</g>
		<path style="fill:#131516;" d="M448.74,1874.046c0.169,2.083-0.917,3.871-2.426,3.993c-1.508,0.122-2.868-1.468-3.036-3.551
			c-0.169-2.083,0.917-3.871,2.426-3.994C447.212,1870.373,448.571,1871.963,448.74,1874.046z"/>
		<path style="fill:#131516;" d="M479.434,1871.561c0.169,2.083-0.917,3.871-2.426,3.994c-1.508,0.122-2.868-1.468-3.036-3.551
			c-0.169-2.083,0.917-3.871,2.426-3.993C477.906,1867.888,479.266,1869.478,479.434,1871.561z"/>
		<g>
			<path style="fill:#774320;" d="M482.183,1857.846c-3.99-4.458-10.229-4.213-13.442,0.949c-0.727,1.168,1.117,2.24,1.841,1.076
				c2.51-4.033,7.04-3.93,10.094-0.518C481.593,1860.378,483.096,1858.866,482.183,1857.846L482.183,1857.846z"/>
		</g>
		<g>
			<path style="fill:#774320;" d="M439.918,1862.573c2.469-3.894,6.917-4.518,10.059-0.954c0.909,1.031,2.412-0.481,1.507-1.507
				c-4.059-4.605-10.232-3.62-13.407,1.385C437.34,1862.659,439.184,1863.729,439.918,1862.573L439.918,1862.573z"/>
		</g>
		<path style="fill:#774320;" d="M489.257,1819.507c0,0,1.745,15.854-29.884,18.414c-31.629,2.561-43.363,1.797-41.016,30.779
			c0,0-9.723-42.032,17.576-48.234C463.231,1814.265,474.22,1826.968,489.257,1819.507z"/>
		<path style="fill:#FFFFFF;" d="M448.487,1892.502c0.641,7.923,7.584,13.826,15.507,13.185c7.923-0.641,13.826-7.585,13.185-15.507
			L448.487,1892.502z"/>
		<g>
			<path style="fill:#E21717;" d="M461.092,1748.356c0-4.981,0-9.963,0-14.944c0-5.211-8.099-5.22-8.099,0c0,4.981,0,9.963,0,14.944
				C452.993,1753.568,461.092,1753.576,461.092,1748.356L461.092,1748.356z"/>
		</g>
		<g>
			<path style="fill:#E21717;" d="M461.092,1785.844c0-1.397,0-2.794,0-4.191c0-2.118-1.863-4.148-4.05-4.05
				c-2.194,0.098-4.05,1.779-4.05,4.05c0,1.397,0,2.794,0,4.191c0,2.118,1.863,4.148,4.05,4.05
				C459.237,1789.795,461.092,1788.114,461.092,1785.844L461.092,1785.844z"/>
		</g>
		<g>
			<path style="fill:#E21717;" d="M588.09,1806.529c5.211,0,5.22-8.099,0-8.099C582.878,1798.43,582.87,1806.529,588.09,1806.529
				L588.09,1806.529z"/>
		</g>
		<g>
			<path style="fill:#FFDD50;" d="M565.401,1829.218c5.211,0,5.22-8.099,0-8.099
				C560.189,1821.119,560.181,1829.218,565.401,1829.218L565.401,1829.218z"/>
		</g>
		<g>
			<path style="fill:#E21717;" d="M555.268,1841.029c4.332-4.332,8.664-8.664,12.996-12.996c3.69-3.69-2.035-9.419-5.727-5.727
				c-4.332,4.332-8.664,8.664-12.997,12.996C545.851,1838.992,551.576,1844.72,555.268,1841.029L555.268,1841.029z"/>
		</g>
		<g>
			<path style="fill:#E21717;" d="M323.132,1806.041c4.707,4.707,9.413,9.413,14.12,14.12c3.69,3.69,9.419-2.035,5.727-5.727
				c-4.707-4.707-9.413-9.413-14.12-14.12C325.169,1796.624,319.44,1802.349,323.132,1806.041L323.132,1806.041z"/>
		</g>
		<g>
			<path style="fill:#E21717;" d="M634.257,1940.609c3.946,0,7.891,0,11.837,0c5.211,0,5.22-8.099,0-8.099
				c-3.945,0-7.891,0-11.837,0C629.046,1932.51,629.037,1940.609,634.257,1940.609L634.257,1940.609z"/>
		</g>
		<g>
			<path style="fill:#E21717;" d="M634.257,1940.609c5.211,0,5.22-8.099,0-8.099C629.046,1932.51,629.037,1940.609,634.257,1940.609
				L634.257,1940.609z"/>
		</g>
		<g>
			<path style="fill:#FFDD50;" d="M596.39,1940.609c5.211,0,5.22-8.099,0-8.099C591.178,1932.51,591.17,1940.609,596.39,1940.609
				L596.39,1940.609z"/>
		</g>
		<g>
			<path style="fill:#E21717;" d="M572.231,1940.609c8.053,0,16.106,0,24.159,0c5.211,0,5.22-8.099,0-8.099
				c-8.053,0-16.106,0-24.159,0C567.02,1932.51,567.011,1940.609,572.231,1940.609L572.231,1940.609z"/>
		</g>
		<g>
			<path style="fill:#E21717;" d="M528.259,2011.607c7.094,7.094,14.188,14.188,21.282,21.282c3.69,3.69,9.419-2.035,5.727-5.727
				c-7.094-7.094-14.188-14.188-21.282-21.282C530.295,2002.19,524.567,2007.915,528.259,2011.607L528.259,2011.607z"/>
		</g>
		<g>
			<path style="fill:#E21717;" d="M274.866,1932.51c-7.059,0-14.119,0-21.178,0c-5.211,0-5.22,8.099,0,8.099
				c7.059,0,14.119,0,21.178,0C280.077,1940.609,280.086,1932.51,274.866,1932.51L274.866,1932.51z"/>
		</g>
		<g>
			<path style="fill:#E21717;" d="M340.956,2046.919c-5.941,5.941-11.882,11.882-17.824,17.823c-3.69,3.69,2.035,9.419,5.727,5.727
				c5.941-5.941,11.882-11.882,17.824-17.823C350.373,2048.956,344.648,2043.227,340.956,2046.919L340.956,2046.919z"/>
		</g>
		<g>
			<path style="fill:#E21717;" d="M312.242,1932.51c-1.66,0-3.32,0-4.979,0c-2.118,0-4.148,1.863-4.05,4.05
				c0.098,2.194,1.779,4.05,4.05,4.05c1.66,0,3.32,0,4.979,0c2.118,0,4.148-1.862,4.05-4.05
				C316.193,1934.365,314.512,1932.51,312.242,1932.51L312.242,1932.51z"/>
		</g>
	</g>
	<g>
		<path style="fill:#FFFFFF;" d="M297.653,537.013h2.953l10.313,17.844v-17.844h3.25v25h-2.828l-10.453-18.063v18.063h-3.234
			V537.013z"/>
		<path style="fill:#FFFFFF;" d="M323.856,558.373c0.542,0.479,1.526,0.719,2.953,0.719c1.542,0,2.859-0.541,3.953-1.625
			c0.135-0.146,0.411-0.469,0.828-0.969l3.234,1.156c-0.792,1.094-1.365,1.818-1.719,2.172c-1.74,1.74-3.839,2.609-6.297,2.609
			c-2.448,0-4.542-0.869-6.281-2.609c-1.74-1.739-2.609-3.838-2.609-6.297c0-2.458,0.87-4.557,2.609-6.297
			c1.739-1.739,3.833-2.609,6.281-2.609c2.104,0,3.948,0.636,5.531,1.906c0.26,0.219,0.516,0.453,0.766,0.703
			c0.104,0.104,0.401,0.433,0.891,0.984l-1.625,1.641L323.856,558.373z M329.262,548.373c-0.365-0.281-1.183-0.422-2.453-0.422
			c-1.531,0-2.841,0.545-3.93,1.633c-1.089,1.089-1.633,2.404-1.633,3.945c0,1.261,0.141,2.078,0.422,2.453L329.262,548.373z"/>
		<path style="fill:#FFFFFF;" d="M351.309,556.498l3.234,1.156c-0.792,1.094-1.365,1.818-1.719,2.172
			c-1.74,1.74-3.839,2.609-6.297,2.609c-2.448,0-4.542-0.869-6.281-2.609c-1.74-1.739-2.609-3.838-2.609-6.297
			c0-2.458,0.87-4.557,2.609-6.297c1.739-1.739,3.833-2.609,6.281-2.609c2.458,0,4.557,0.87,6.297,2.609
			c0.354,0.354,0.927,1.068,1.719,2.141l-3.234,1.188c-0.417-0.51-0.698-0.838-0.844-0.984c-1.083-1.083-2.396-1.625-3.938-1.625
			c-1.531,0-2.841,0.545-3.93,1.633c-1.089,1.089-1.633,2.404-1.633,3.945c0,1.531,0.544,2.842,1.633,3.93
			c1.088,1.089,2.398,1.633,3.93,1.633c1.542,0,2.859-0.541,3.953-1.625C350.616,557.321,350.892,556.998,351.309,556.498z"/>
		<path style="fill:#FFFFFF;" d="M363.293,558.373c0.542,0.479,1.526,0.719,2.953,0.719c1.542,0,2.859-0.541,3.953-1.625
			c0.135-0.146,0.411-0.469,0.828-0.969l3.234,1.156c-0.792,1.094-1.365,1.818-1.719,2.172c-1.74,1.74-3.839,2.609-6.297,2.609
			c-2.448,0-4.542-0.869-6.281-2.609c-1.74-1.739-2.609-3.838-2.609-6.297c0-2.458,0.87-4.557,2.609-6.297
			c1.739-1.739,3.833-2.609,6.281-2.609c2.104,0,3.948,0.636,5.531,1.906c0.26,0.219,0.516,0.453,0.766,0.703
			c0.104,0.104,0.401,0.433,0.891,0.984l-1.625,1.641L363.293,558.373z M368.7,548.373c-0.365-0.281-1.183-0.422-2.453-0.422
			c-1.531,0-2.841,0.545-3.93,1.633c-1.089,1.089-1.633,2.404-1.633,3.945c0,1.261,0.141,2.078,0.422,2.453L368.7,548.373z"/>
		<path style="fill:#FFFFFF;" d="M381.262,558.56c0.385,0.375,0.844,0.563,1.375,0.563s0.987-0.188,1.367-0.563
			c0.38-0.375,0.57-0.838,0.57-1.391c0-0.531-0.188-0.984-0.563-1.359c-0.261-0.26-0.818-0.661-1.672-1.203
			c-1.167-0.635-1.995-1.197-2.484-1.688c-0.854-0.854-1.281-1.88-1.281-3.078c0-1.208,0.427-2.242,1.281-3.102
			c0.854-0.859,1.885-1.289,3.094-1.289c1.208,0,2.213,0.406,3.016,1.219c0.573,0.573,0.938,1.214,1.094,1.922l-3.141,0.906
			c-0.073-0.26-0.146-0.432-0.219-0.516c-0.188-0.188-0.438-0.281-0.75-0.281s-0.581,0.112-0.805,0.336
			c-0.224,0.225-0.336,0.492-0.336,0.805s0.109,0.578,0.328,0.797c0.198,0.188,0.646,0.506,1.344,0.953
			c1.292,0.709,2.229,1.354,2.813,1.938c1.01,1.021,1.516,2.234,1.516,3.641c0,1.438-0.503,2.664-1.508,3.68
			c-1.005,1.016-2.227,1.523-3.664,1.523c-1.427,0-2.646-0.51-3.656-1.531c-0.698-0.697-1.156-1.567-1.375-2.609l3.219-0.688
			C380.918,558.024,381.064,558.363,381.262,558.56z"/>
		<path style="fill:#FFFFFF;" d="M395.278,539.982c0.448,0.438,0.672,0.975,0.672,1.609c0,0.636-0.224,1.172-0.672,1.609
			c-0.448,0.438-0.984,0.656-1.609,0.656c-0.615,0-1.146-0.219-1.594-0.656c-0.448-0.438-0.672-0.974-0.672-1.609
			c0-0.635,0.224-1.172,0.672-1.609c0.448-0.438,0.979-0.656,1.594-0.656C394.293,539.326,394.83,539.544,395.278,539.982z
			 M395.293,545.935v16.078h-3.234v-16.078H395.293z"/>
		<path style="fill:#FFFFFF;" d="M414.2,547.044v-10.031h3.25v25h-3.25v-2c-1.563,1.615-3.38,2.422-5.453,2.422
			c-2.458,0-4.555-0.869-6.289-2.609c-1.734-1.739-2.602-3.838-2.602-6.297c0-2.458,0.867-4.557,2.602-6.297
			c1.734-1.739,3.831-2.609,6.289-2.609C410.819,544.623,412.637,545.43,414.2,547.044z M414.2,554.732v-2.391
			c-0.188-1.01-0.693-1.927-1.516-2.75c-1.083-1.094-2.396-1.641-3.938-1.641c-1.542,0-2.857,0.547-3.945,1.641
			c-1.089,1.094-1.633,2.406-1.633,3.938c0,1.542,0.544,2.854,1.633,3.938c1.088,1.084,2.403,1.625,3.945,1.625
			c1.542,0,2.854-0.541,3.938-1.625C413.507,556.644,414.012,555.732,414.2,554.732z"/>
		<path style="fill:#FFFFFF;" d="M436.075,547.06v-1.125h3.25v16.094h-3.25v-2.016c-1.563,1.615-3.375,2.422-5.438,2.422
			c-2.458,0-4.555-0.867-6.289-2.602s-2.602-3.83-2.602-6.289c0-2.458,0.867-4.555,2.602-6.289s3.831-2.602,6.289-2.602
			C432.7,544.654,434.512,545.457,436.075,547.06z M436.075,554.732v-2.375c-0.188-1.01-0.688-1.927-1.5-2.75
			c-1.094-1.083-2.406-1.625-3.938-1.625c-1.542,0-2.857,0.542-3.945,1.625c-1.089,1.084-1.633,2.396-1.633,3.938
			c0,1.531,0.544,2.842,1.633,3.93c1.088,1.089,2.403,1.633,3.945,1.633c1.531,0,2.844-0.541,3.938-1.625
			C435.387,556.66,435.887,555.743,436.075,554.732z"/>
		<path style="fill:#FFFFFF;" d="M457.981,547.044v-10.031h3.25v25h-3.25v-2c-1.563,1.615-3.381,2.422-5.453,2.422
			c-2.459,0-4.555-0.869-6.29-2.609c-1.734-1.739-2.602-3.838-2.602-6.297c0-2.458,0.867-4.557,2.602-6.297
			c1.734-1.739,3.831-2.609,6.29-2.609C454.601,544.623,456.419,545.43,457.981,547.044z M457.981,554.732v-2.391
			c-0.188-1.01-0.693-1.927-1.516-2.75c-1.084-1.094-2.396-1.641-3.938-1.641c-1.542,0-2.857,0.547-3.946,1.641
			c-1.089,1.094-1.633,2.406-1.633,3.938c0,1.542,0.544,2.854,1.633,3.938c1.088,1.084,2.403,1.625,3.946,1.625
			c1.541,0,2.854-0.541,3.938-1.625C457.288,556.644,457.794,555.732,457.981,554.732z"/>
		<path style="fill:#FFFFFF;" d="M470.919,558.373c0.541,0.479,1.525,0.719,2.953,0.719c1.541,0,2.859-0.541,3.953-1.625
			c0.135-0.146,0.411-0.469,0.828-0.969l3.234,1.156c-0.792,1.094-1.365,1.818-1.719,2.172c-1.74,1.74-3.839,2.609-6.297,2.609
			c-2.448,0-4.542-0.869-6.281-2.609c-1.74-1.739-2.609-3.838-2.609-6.297c0-2.458,0.869-4.557,2.609-6.297
			c1.739-1.739,3.833-2.609,6.281-2.609c2.104,0,3.947,0.636,5.531,1.906c0.26,0.219,0.516,0.453,0.766,0.703
			c0.104,0.104,0.4,0.433,0.891,0.984l-1.625,1.641L470.919,558.373z M476.325,548.373c-0.365-0.281-1.183-0.422-2.453-0.422
			c-1.531,0-2.842,0.545-3.93,1.633c-1.089,1.089-1.633,2.404-1.633,3.945c0,1.261,0.141,2.078,0.422,2.453L476.325,548.373z"/>
		<path style="fill:#FFFFFF;" d="M488.888,558.56c0.385,0.375,0.844,0.563,1.375,0.563s0.986-0.188,1.367-0.563
			c0.38-0.375,0.57-0.838,0.57-1.391c0-0.531-0.188-0.984-0.563-1.359c-0.261-0.26-0.818-0.661-1.672-1.203
			c-1.167-0.635-1.995-1.197-2.484-1.688c-0.854-0.854-1.281-1.88-1.281-3.078c0-1.208,0.427-2.242,1.281-3.102
			c0.854-0.859,1.885-1.289,3.094-1.289c1.208,0,2.213,0.406,3.016,1.219c0.572,0.573,0.938,1.214,1.094,1.922l-3.141,0.906
			c-0.073-0.26-0.146-0.432-0.219-0.516c-0.188-0.188-0.438-0.281-0.75-0.281s-0.581,0.112-0.805,0.336
			c-0.225,0.225-0.336,0.492-0.336,0.805s0.109,0.578,0.328,0.797c0.197,0.188,0.646,0.506,1.344,0.953
			c1.291,0.709,2.229,1.354,2.813,1.938c1.01,1.021,1.516,2.234,1.516,3.641c0,1.438-0.503,2.664-1.508,3.68
			c-1.006,1.016-2.227,1.523-3.664,1.523c-1.428,0-2.646-0.51-3.656-1.531c-0.698-0.697-1.156-1.567-1.375-2.609l3.219-0.688
			C488.544,558.024,488.689,558.363,488.888,558.56z"/>
		<path style="fill:#FFFFFF;" d="M524.435,547.044v-10.031h3.25v25h-3.25v-2c-1.563,1.615-3.381,2.422-5.453,2.422
			c-2.459,0-4.555-0.869-6.289-2.609c-1.734-1.739-2.602-3.838-2.602-6.297c0-2.458,0.867-4.557,2.602-6.297
			c1.734-1.739,3.83-2.609,6.289-2.609C521.054,544.623,522.872,545.43,524.435,547.044z M524.435,554.732v-2.391
			c-0.188-1.01-0.693-1.927-1.516-2.75c-1.084-1.094-2.396-1.641-3.938-1.641c-1.542,0-2.857,0.547-3.945,1.641
			c-1.089,1.094-1.633,2.406-1.633,3.938c0,1.542,0.544,2.854,1.633,3.938c1.088,1.084,2.403,1.625,3.945,1.625
			c1.541,0,2.854-0.541,3.938-1.625C523.741,556.644,524.247,555.732,524.435,554.732z"/>
		<path style="fill:#FFFFFF;" d="M537.372,558.373c0.541,0.479,1.525,0.719,2.953,0.719c1.541,0,2.859-0.541,3.953-1.625
			c0.135-0.146,0.411-0.469,0.828-0.969l3.234,1.156c-0.792,1.094-1.365,1.818-1.719,2.172c-1.74,1.74-3.839,2.609-6.297,2.609
			c-2.448,0-4.542-0.869-6.281-2.609c-1.74-1.739-2.609-3.838-2.609-6.297c0-2.458,0.869-4.557,2.609-6.297
			c1.739-1.739,3.833-2.609,6.281-2.609c2.104,0,3.947,0.636,5.531,1.906c0.26,0.219,0.516,0.453,0.766,0.703
			c0.104,0.104,0.4,0.433,0.891,0.984l-1.625,1.641L537.372,558.373z M542.778,548.373c-0.365-0.281-1.183-0.422-2.453-0.422
			c-1.531,0-2.842,0.545-3.93,1.633c-1.089,1.089-1.633,2.404-1.633,3.945c0,1.261,0.141,2.078,0.422,2.453L542.778,548.373z"/>
		<path style="fill:#FFFFFF;" d="M566.403,536.998v25.016h-3.25v-25.016H566.403z"/>
		<path style="fill:#FFFFFF;" d="M585.028,547.06v-1.125h3.25v16.094h-3.25v-2.016c-1.563,1.615-3.375,2.422-5.438,2.422
			c-2.459,0-4.555-0.867-6.289-2.602s-2.602-3.83-2.602-6.289c0-2.458,0.867-4.555,2.602-6.289s3.83-2.602,6.289-2.602
			C581.653,544.654,583.466,545.457,585.028,547.06z M585.028,554.732v-2.375c-0.188-1.01-0.688-1.927-1.5-2.75
			c-1.094-1.083-2.406-1.625-3.938-1.625c-1.542,0-2.857,0.542-3.945,1.625c-1.089,1.084-1.633,2.396-1.633,3.938
			c0,1.531,0.544,2.842,1.633,3.93c1.088,1.089,2.403,1.633,3.945,1.633c1.531,0,2.844-0.541,3.938-1.625
			C584.341,556.66,584.841,555.743,585.028,554.732z"/>
		<path style="fill:#FFFFFF;" d="M596.231,558.56c0.385,0.375,0.844,0.563,1.375,0.563s0.986-0.188,1.367-0.563
			c0.38-0.375,0.57-0.838,0.57-1.391c0-0.531-0.188-0.984-0.563-1.359c-0.261-0.26-0.818-0.661-1.672-1.203
			c-1.167-0.635-1.995-1.197-2.484-1.688c-0.854-0.854-1.281-1.88-1.281-3.078c0-1.208,0.427-2.242,1.281-3.102
			c0.854-0.859,1.885-1.289,3.094-1.289c1.208,0,2.213,0.406,3.016,1.219c0.572,0.573,0.938,1.214,1.094,1.922l-3.141,0.906
			c-0.073-0.26-0.146-0.432-0.219-0.516c-0.188-0.188-0.438-0.281-0.75-0.281s-0.581,0.112-0.805,0.336
			c-0.225,0.225-0.336,0.492-0.336,0.805s0.109,0.578,0.328,0.797c0.197,0.188,0.646,0.506,1.344,0.953
			c1.291,0.709,2.229,1.354,2.813,1.938c1.01,1.021,1.516,2.234,1.516,3.641c0,1.438-0.503,2.664-1.508,3.68
			c-1.006,1.016-2.227,1.523-3.664,1.523c-1.428,0-2.646-0.51-3.656-1.531c-0.698-0.697-1.156-1.567-1.375-2.609l3.219-0.688
			C595.888,558.024,596.033,558.363,596.231,558.56z"/>
		<path style="fill:#FFFFFF;" d="M303.528,598.414v7.406h-3.234v-21.484h3.234v1.453c1.563-1.833,3.38-2.75,5.453-2.75
			c2.458,0,4.555,0.867,6.289,2.602s2.602,3.831,2.602,6.289c0,2.459-0.867,4.558-2.602,6.297c-1.734,1.74-3.831,2.609-6.289,2.609
			C306.908,600.835,305.09,600.029,303.528,598.414z M303.528,590.679v2.516c0.198,0.99,0.703,1.886,1.516,2.688
			c1.083,1.084,2.396,1.625,3.938,1.625c1.542,0,2.856-0.544,3.945-1.633c1.088-1.088,1.633-2.403,1.633-3.945
			c0-1.531-0.544-2.844-1.633-3.938c-1.089-1.094-2.404-1.641-3.945-1.641c-1.542,0-2.854,0.547-3.938,1.641
			C304.231,588.794,303.726,589.69,303.528,590.679z"/>
		<path style="fill:#FFFFFF;" d="M335.715,585.46v-1.125h3.25v16.094h-3.25v-2.016c-1.563,1.615-3.375,2.422-5.438,2.422
			c-2.458,0-4.555-0.867-6.289-2.602s-2.602-3.83-2.602-6.289c0-2.458,0.867-4.555,2.602-6.289s3.831-2.602,6.289-2.602
			C332.34,583.054,334.153,583.857,335.715,585.46z M335.715,593.132v-2.375c-0.188-1.01-0.688-1.927-1.5-2.75
			c-1.094-1.083-2.406-1.625-3.938-1.625c-1.542,0-2.857,0.542-3.945,1.625c-1.089,1.084-1.633,2.396-1.633,3.938
			c0,1.531,0.544,2.842,1.633,3.93c1.088,1.089,2.403,1.633,3.945,1.633c1.531,0,2.844-0.541,3.938-1.625
			C335.028,595.06,335.528,594.143,335.715,593.132z"/>
		<path style="fill:#FFFFFF;" d="M346.903,586.507c1.208-1.635,2.692-2.494,4.453-2.578v3.359c-1.177,0.063-2.115,0.443-2.813,1.141
			c-1.052,1.042-1.599,2.281-1.641,3.719v8.266h-3.234v-16.078h3.234V586.507z"/>
		<path style="fill:#FFFFFF;" d="M357.075,584.335v-6.031h3.234v6.031h2.891v3.234h-2.891v12.844h-3.234V587.57h-2.891v-3.234
			H357.075z"/>
		<path style="fill:#FFFFFF;" d="M371.965,596.773c0.542,0.479,1.526,0.719,2.953,0.719c1.542,0,2.859-0.541,3.953-1.625
			c0.135-0.146,0.411-0.469,0.828-0.969l3.234,1.156c-0.792,1.094-1.365,1.818-1.719,2.172c-1.74,1.74-3.839,2.609-6.297,2.609
			c-2.448,0-4.542-0.869-6.281-2.609c-1.74-1.739-2.609-3.838-2.609-6.297c0-2.458,0.87-4.557,2.609-6.297
			c1.739-1.739,3.833-2.609,6.281-2.609c2.104,0,3.948,0.636,5.531,1.906c0.26,0.219,0.516,0.453,0.766,0.703
			c0.104,0.104,0.401,0.433,0.891,0.984l-1.625,1.641L371.965,596.773z M377.372,586.773c-0.365-0.281-1.183-0.422-2.453-0.422
			c-1.531,0-2.841,0.545-3.93,1.633c-1.089,1.089-1.633,2.404-1.633,3.945c0,1.261,0.141,2.078,0.422,2.453L377.372,586.773z"/>
		<path style="fill:#FFFFFF;" d="M389.934,596.96c0.385,0.375,0.844,0.563,1.375,0.563s0.987-0.188,1.367-0.563
			c0.38-0.375,0.57-0.838,0.57-1.391c0-0.531-0.188-0.984-0.563-1.359c-0.261-0.26-0.818-0.661-1.672-1.203
			c-1.167-0.635-1.995-1.197-2.484-1.688c-0.854-0.854-1.281-1.88-1.281-3.078c0-1.208,0.427-2.242,1.281-3.102
			c0.854-0.859,1.885-1.289,3.094-1.289c1.208,0,2.213,0.406,3.016,1.219c0.573,0.573,0.938,1.214,1.094,1.922l-3.141,0.906
			c-0.073-0.26-0.146-0.432-0.219-0.516c-0.188-0.188-0.438-0.281-0.75-0.281s-0.581,0.112-0.805,0.336
			c-0.224,0.225-0.336,0.492-0.336,0.805s0.109,0.578,0.328,0.797c0.198,0.188,0.646,0.506,1.344,0.953
			c1.292,0.709,2.229,1.354,2.813,1.938c1.01,1.021,1.516,2.234,1.516,3.641c0,1.438-0.503,2.664-1.508,3.68
			c-1.005,1.016-2.227,1.523-3.664,1.523c-1.427,0-2.646-0.51-3.656-1.531c-0.698-0.697-1.156-1.567-1.375-2.609l3.219-0.688
			C389.59,596.424,389.736,596.763,389.934,596.96z"/>
		<path style="fill:#FFFFFF;" d="M415.012,578.382c0.448,0.438,0.672,0.975,0.672,1.609c0,0.636-0.224,1.172-0.672,1.609
			c-0.448,0.438-0.984,0.656-1.609,0.656c-0.615,0-1.146-0.219-1.594-0.656c-0.448-0.438-0.672-0.974-0.672-1.609
			c0-0.635,0.224-1.172,0.672-1.609c0.448-0.438,0.979-0.656,1.594-0.656C414.028,577.726,414.564,577.945,415.012,578.382z
			 M415.028,584.335v16.078h-3.234v-16.078H415.028z"/>
		<path style="fill:#FFFFFF;" d="M423.231,588.648v11.766h-3.25v-16.078h3.25v1.875c0.677-1.833,2.036-2.75,4.078-2.75
			c1.739,0,3.122,0.617,4.148,1.852c1.026,1.234,1.555,2.784,1.586,4.648v10.453h-3.234v-10.328c0-0.927-0.339-1.721-1.016-2.383
			c-0.677-0.661-1.484-0.992-2.422-0.992c-0.927,0-1.729,0.323-2.406,0.969C423.59,588.065,423.345,588.388,423.231,588.648z"/>
		<path style="fill:#FFFFFF;" d="M439.731,584.335v-6.031h3.234v6.031h2.891v3.234h-2.891v12.844h-3.234V587.57h-2.891v-3.234
			H439.731z"/>
		<path style="fill:#FFFFFF;" d="M454.622,596.773c0.541,0.479,1.525,0.719,2.953,0.719c1.541,0,2.859-0.541,3.953-1.625
			c0.135-0.146,0.411-0.469,0.828-0.969l3.234,1.156c-0.792,1.094-1.365,1.818-1.719,2.172c-1.74,1.74-3.839,2.609-6.297,2.609
			c-2.448,0-4.542-0.869-6.281-2.609c-1.74-1.739-2.61-3.838-2.61-6.297c0-2.458,0.87-4.557,2.61-6.297
			c1.739-1.739,3.833-2.609,6.281-2.609c2.104,0,3.947,0.636,5.531,1.906c0.26,0.219,0.516,0.453,0.766,0.703
			c0.104,0.104,0.4,0.433,0.891,0.984l-1.625,1.641L454.622,596.773z M460.028,586.773c-0.365-0.281-1.183-0.422-2.453-0.422
			c-1.531,0-2.842,0.545-3.93,1.633c-1.089,1.089-1.633,2.404-1.633,3.945c0,1.261,0.141,2.078,0.422,2.453L460.028,586.773z"/>
		<path style="fill:#FFFFFF;" d="M472.575,586.507c1.208-1.635,2.692-2.494,4.453-2.578v3.359c-1.178,0.063-2.115,0.443-2.813,1.141
			c-1.053,1.042-1.6,2.281-1.641,3.719v8.266h-3.234v-16.078h3.234V586.507z"/>
		<path style="fill:#FFFFFF;" d="M485.106,596.773c0.541,0.479,1.525,0.719,2.953,0.719c1.541,0,2.859-0.541,3.953-1.625
			c0.135-0.146,0.411-0.469,0.828-0.969l3.234,1.156c-0.792,1.094-1.365,1.818-1.719,2.172c-1.74,1.74-3.839,2.609-6.297,2.609
			c-2.448,0-4.542-0.869-6.281-2.609c-1.74-1.739-2.609-3.838-2.609-6.297c0-2.458,0.869-4.557,2.609-6.297
			c1.739-1.739,3.833-2.609,6.281-2.609c2.104,0,3.947,0.636,5.531,1.906c0.26,0.219,0.516,0.453,0.766,0.703
			c0.104,0.104,0.4,0.433,0.891,0.984l-1.625,1.641L485.106,596.773z M490.513,586.773c-0.365-0.281-1.183-0.422-2.453-0.422
			c-1.531,0-2.842,0.545-3.93,1.633c-1.089,1.089-1.633,2.404-1.633,3.945c0,1.261,0.141,2.078,0.422,2.453L490.513,586.773z"/>
		<path style="fill:#FFFFFF;" d="M503.075,596.96c0.385,0.375,0.844,0.563,1.375,0.563s0.986-0.188,1.367-0.563
			c0.38-0.375,0.57-0.838,0.57-1.391c0-0.531-0.188-0.984-0.563-1.359c-0.261-0.26-0.818-0.661-1.672-1.203
			c-1.167-0.635-1.995-1.197-2.484-1.688c-0.854-0.854-1.281-1.88-1.281-3.078c0-1.208,0.427-2.242,1.281-3.102
			c0.854-0.859,1.885-1.289,3.094-1.289c1.208,0,2.213,0.406,3.016,1.219c0.572,0.573,0.938,1.214,1.094,1.922l-3.141,0.906
			c-0.073-0.26-0.146-0.432-0.219-0.516c-0.188-0.188-0.438-0.281-0.75-0.281s-0.581,0.112-0.805,0.336
			c-0.225,0.225-0.336,0.492-0.336,0.805s0.109,0.578,0.328,0.797c0.197,0.188,0.646,0.506,1.344,0.953
			c1.291,0.709,2.229,1.354,2.813,1.938c1.01,1.021,1.516,2.234,1.516,3.641c0,1.438-0.503,2.664-1.508,3.68
			c-1.006,1.016-2.227,1.523-3.664,1.523c-1.428,0-2.646-0.51-3.656-1.531c-0.698-0.697-1.156-1.567-1.375-2.609l3.219-0.688
			C502.731,596.424,502.877,596.763,503.075,596.96z"/>
		<path style="fill:#FFFFFF;" d="M527.544,585.46v-1.125h3.25v16.094h-3.25v-2.016c-1.563,1.615-3.375,2.422-5.438,2.422
			c-2.459,0-4.555-0.867-6.289-2.602s-2.602-3.83-2.602-6.289c0-2.458,0.867-4.555,2.602-6.289s3.83-2.602,6.289-2.602
			C524.169,583.054,525.981,583.857,527.544,585.46z M527.544,593.132v-2.375c-0.188-1.01-0.688-1.927-1.5-2.75
			c-1.094-1.083-2.406-1.625-3.938-1.625c-1.542,0-2.857,0.542-3.945,1.625c-1.089,1.084-1.633,2.396-1.633,3.938
			c0,1.531,0.544,2.842,1.633,3.93c1.088,1.089,2.403,1.633,3.945,1.633c1.531,0,2.844-0.541,3.938-1.625
			C526.856,595.06,527.356,594.143,527.544,593.132z"/>
		<path style="fill:#FFFFFF;" d="M549.45,585.445v-10.031h3.25v25h-3.25v-2c-1.563,1.615-3.381,2.422-5.453,2.422
			c-2.459,0-4.555-0.869-6.289-2.609c-1.734-1.739-2.602-3.838-2.602-6.297c0-2.458,0.867-4.557,2.602-6.297
			c1.734-1.739,3.83-2.609,6.289-2.609C546.069,583.023,547.888,583.831,549.45,585.445z M549.45,593.132v-2.391
			c-0.188-1.01-0.693-1.927-1.516-2.75c-1.084-1.094-2.396-1.641-3.938-1.641c-1.542,0-2.857,0.547-3.945,1.641
			c-1.089,1.094-1.633,2.406-1.633,3.938c0,1.542,0.544,2.854,1.633,3.938c1.088,1.084,2.403,1.625,3.945,1.625
			c1.541,0,2.854-0.541,3.938-1.625C548.757,595.044,549.263,594.132,549.45,593.132z"/>
		<path style="fill:#FFFFFF;" d="M571.325,585.46v-1.125h3.25v16.094h-3.25v-2.016c-1.563,1.615-3.375,2.422-5.438,2.422
			c-2.459,0-4.555-0.867-6.289-2.602s-2.602-3.83-2.602-6.289c0-2.458,0.867-4.555,2.602-6.289s3.83-2.602,6.289-2.602
			C567.95,583.054,569.763,583.857,571.325,585.46z M571.325,593.132v-2.375c-0.188-1.01-0.688-1.927-1.5-2.75
			c-1.094-1.083-2.406-1.625-3.938-1.625c-1.542,0-2.857,0.542-3.945,1.625c-1.089,1.084-1.633,2.396-1.633,3.938
			c0,1.531,0.544,2.842,1.633,3.93c1.088,1.089,2.403,1.633,3.945,1.633c1.531,0,2.844-0.541,3.938-1.625
			C570.638,595.06,571.138,594.143,571.325,593.132z"/>
		<path style="fill:#FFFFFF;" d="M582.528,596.96c0.385,0.375,0.844,0.563,1.375,0.563s0.986-0.188,1.367-0.563
			c0.38-0.375,0.57-0.838,0.57-1.391c0-0.531-0.188-0.984-0.563-1.359c-0.261-0.26-0.818-0.661-1.672-1.203
			c-1.167-0.635-1.995-1.197-2.484-1.688c-0.854-0.854-1.281-1.88-1.281-3.078c0-1.208,0.427-2.242,1.281-3.102
			c0.854-0.859,1.885-1.289,3.094-1.289c1.208,0,2.213,0.406,3.016,1.219c0.572,0.573,0.938,1.214,1.094,1.922l-3.141,0.906
			c-0.073-0.26-0.146-0.432-0.219-0.516c-0.188-0.188-0.438-0.281-0.75-0.281s-0.581,0.112-0.805,0.336
			c-0.225,0.225-0.336,0.492-0.336,0.805s0.109,0.578,0.328,0.797c0.197,0.188,0.646,0.506,1.344,0.953
			c1.291,0.709,2.229,1.354,2.813,1.938c1.01,1.021,1.516,2.234,1.516,3.641c0,1.438-0.503,2.664-1.508,3.68
			c-1.006,1.016-2.227,1.523-3.664,1.523c-1.428,0-2.646-0.51-3.656-1.531c-0.698-0.697-1.156-1.567-1.375-2.609l3.219-0.688
			C582.185,596.424,582.33,596.763,582.528,596.96z"/>
	</g>
</g>
</svg>
