<?xml version="1.0" encoding="iso-8859-1"?>
<!-- Generator: Adobe Illustrator 22.1.0, SVG Export Plug-In . SVG Version: 6.00 Build 0)  -->
<svg version="1.1" xmlns="http://www.w3.org/2000/svg" xmlns:xlink="http://www.w3.org/1999/xlink" x="0px" y="0px"
	 viewBox="0 0 1600 900" style="enable-background:new 0 0 1600 900;" xml:space="preserve">
<g id="Layer_2">
	<rect x="0" y="0.478" style="fill:#FFFFFF;" width="1600.495" height="899.5"/>
</g>
<g id="Layer_1">
	<g style="opacity:0.34;">
		<image style="overflow:visible;" width="499" height="156" xlink:href="EBAD2AE9.png"  transform="matrix(1 0 0 1 1140.5 608)">
		</image>
	</g>
	<polygon style="fill:#FF0000;" points="1247.667,721.836 1600.535,721.836 1600.535,634 1179.465,634 	"/>
	<g>
		<path style="fill:#FFFFFF;" d="M1289.398,660.405v8h-3.234v-25h7.094c2.01,0.271,3.708,1.1,5.094,2.484
			c1.656,1.667,2.484,3.667,2.484,6c0,2.354-0.828,4.362-2.484,6.023c-1.656,1.662-3.656,2.492-6,2.492H1289.398z M1289.398,646.655
			v10.5h2.953c1.438,0,2.669-0.513,3.695-1.539c1.025-1.025,1.539-2.268,1.539-3.727c0-1.447-0.514-2.682-1.539-3.703
			c-1.026-1.021-2.258-1.531-3.695-1.531H1289.398z"/>
		<path style="fill:#FFFFFF;" d="M1316.555,653.452v-1.125h3.25v16.094h-3.25v-2.016c-1.563,1.615-3.375,2.422-5.438,2.422
			c-2.459,0-4.555-0.867-6.289-2.602s-2.602-3.83-2.602-6.289c0-2.458,0.867-4.555,2.602-6.289s3.83-2.602,6.289-2.602
			C1313.18,651.046,1314.992,651.849,1316.555,653.452z M1316.555,661.124v-2.375c-0.188-1.01-0.688-1.927-1.5-2.75
			c-1.094-1.083-2.406-1.625-3.938-1.625c-1.542,0-2.857,0.542-3.945,1.625c-1.089,1.084-1.633,2.396-1.633,3.938
			c0,1.531,0.544,2.842,1.633,3.93c1.088,1.089,2.403,1.633,3.945,1.633c1.531,0,2.844-0.541,3.938-1.625
			C1315.867,663.052,1316.367,662.135,1316.555,661.124z"/>
		<path style="fill:#FFFFFF;" d="M1327.742,654.499c1.208-1.635,2.692-2.494,4.453-2.578v3.359
			c-1.178,0.063-2.115,0.443-2.813,1.141c-1.053,1.042-1.6,2.281-1.641,3.719v8.266h-3.234v-16.078h3.234V654.499z"/>
		<path style="fill:#FFFFFF;" d="M1337.914,652.327v-6.031h3.234v6.031h2.891v3.234h-2.891v12.844h-3.234v-12.844h-2.891v-3.234
			H1337.914z"/>
		<path style="fill:#FFFFFF;" d="M1352.805,664.765c0.541,0.479,1.525,0.719,2.953,0.719c1.541,0,2.859-0.541,3.953-1.625
			c0.135-0.146,0.411-0.469,0.828-0.969l3.234,1.156c-0.792,1.094-1.365,1.818-1.719,2.172c-1.74,1.74-3.839,2.609-6.297,2.609
			c-2.448,0-4.542-0.869-6.281-2.609c-1.74-1.739-2.609-3.838-2.609-6.297c0-2.458,0.869-4.557,2.609-6.297
			c1.739-1.739,3.833-2.609,6.281-2.609c2.104,0,3.947,0.636,5.531,1.906c0.26,0.219,0.516,0.453,0.766,0.703
			c0.104,0.104,0.4,0.433,0.891,0.984l-1.625,1.641L1352.805,664.765z M1358.211,654.765c-0.365-0.281-1.183-0.422-2.453-0.422
			c-1.531,0-2.842,0.545-3.93,1.633c-1.089,1.089-1.633,2.404-1.633,3.945c0,1.261,0.141,2.078,0.422,2.453L1358.211,654.765z"/>
		<path style="fill:#FFFFFF;" d="M1370.773,664.952c0.385,0.375,0.844,0.563,1.375,0.563s0.986-0.188,1.367-0.563
			c0.38-0.375,0.57-0.838,0.57-1.391c0-0.531-0.188-0.984-0.563-1.359c-0.261-0.26-0.818-0.661-1.672-1.203
			c-1.167-0.635-1.995-1.197-2.484-1.688c-0.854-0.854-1.281-1.88-1.281-3.078c0-1.208,0.427-2.242,1.281-3.102
			c0.854-0.859,1.885-1.289,3.094-1.289c1.208,0,2.213,0.406,3.016,1.219c0.572,0.573,0.938,1.214,1.094,1.922l-3.141,0.906
			c-0.073-0.26-0.146-0.432-0.219-0.516c-0.188-0.188-0.438-0.281-0.75-0.281s-0.581,0.112-0.805,0.336
			c-0.225,0.225-0.336,0.492-0.336,0.805s0.109,0.578,0.328,0.797c0.197,0.188,0.646,0.506,1.344,0.953
			c1.291,0.709,2.229,1.354,2.813,1.938c1.01,1.021,1.516,2.234,1.516,3.641c0,1.438-0.503,2.664-1.508,3.68
			c-1.006,1.016-2.227,1.523-3.664,1.523c-1.428,0-2.646-0.51-3.656-1.531c-0.698-0.697-1.156-1.567-1.375-2.609l3.219-0.688
			C1370.43,664.416,1370.575,664.755,1370.773,664.952z"/>
		<path style="fill:#FFFFFF;" d="M1395.852,646.374c0.447,0.438,0.672,0.975,0.672,1.609c0,0.636-0.225,1.172-0.672,1.609
			c-0.448,0.438-0.984,0.656-1.609,0.656c-0.615,0-1.146-0.219-1.594-0.656c-0.448-0.438-0.672-0.974-0.672-1.609
			c0-0.635,0.224-1.172,0.672-1.609c0.447-0.438,0.979-0.656,1.594-0.656C1394.867,645.718,1395.403,645.937,1395.852,646.374z
			 M1395.867,652.327v16.078h-3.234v-16.078H1395.867z"/>
		<path style="fill:#FFFFFF;" d="M1404.07,656.64v11.766h-3.25v-16.078h3.25v1.875c0.677-1.833,2.036-2.75,4.078-2.75
			c1.739,0,3.122,0.617,4.148,1.852c1.025,1.234,1.555,2.784,1.586,4.648v10.453h-3.234v-10.328c0-0.927-0.339-1.721-1.016-2.383
			c-0.678-0.661-1.484-0.992-2.422-0.992c-0.928,0-1.729,0.323-2.406,0.969C1404.43,656.057,1404.185,656.38,1404.07,656.64z"/>
		<path style="fill:#FFFFFF;" d="M1420.57,652.327v-6.031h3.234v6.031h2.891v3.234h-2.891v12.844h-3.234v-12.844h-2.891v-3.234
			H1420.57z"/>
		<path style="fill:#FFFFFF;" d="M1435.461,664.765c0.541,0.479,1.525,0.719,2.953,0.719c1.541,0,2.859-0.541,3.953-1.625
			c0.135-0.146,0.411-0.469,0.828-0.969l3.234,1.156c-0.792,1.094-1.365,1.818-1.719,2.172c-1.74,1.74-3.839,2.609-6.297,2.609
			c-2.448,0-4.542-0.869-6.281-2.609c-1.74-1.739-2.609-3.838-2.609-6.297c0-2.458,0.869-4.557,2.609-6.297
			c1.739-1.739,3.833-2.609,6.281-2.609c2.104,0,3.947,0.636,5.531,1.906c0.26,0.219,0.516,0.453,0.766,0.703
			c0.104,0.104,0.4,0.433,0.891,0.984l-1.625,1.641L1435.461,664.765z M1440.867,654.765c-0.365-0.281-1.183-0.422-2.453-0.422
			c-1.531,0-2.842,0.545-3.93,1.633c-1.089,1.089-1.633,2.404-1.633,3.945c0,1.261,0.141,2.078,0.422,2.453L1440.867,654.765z"/>
		<path style="fill:#FFFFFF;" d="M1453.414,654.499c1.208-1.635,2.692-2.494,4.453-2.578v3.359
			c-1.178,0.063-2.115,0.443-2.813,1.141c-1.053,1.042-1.6,2.281-1.641,3.719v8.266h-3.234v-16.078h3.234V654.499z"/>
		<path style="fill:#FFFFFF;" d="M1465.945,664.765c0.541,0.479,1.525,0.719,2.953,0.719c1.541,0,2.859-0.541,3.953-1.625
			c0.135-0.146,0.411-0.469,0.828-0.969l3.234,1.156c-0.792,1.094-1.365,1.818-1.719,2.172c-1.74,1.74-3.839,2.609-6.297,2.609
			c-2.448,0-4.542-0.869-6.281-2.609c-1.74-1.739-2.609-3.838-2.609-6.297c0-2.458,0.869-4.557,2.609-6.297
			c1.739-1.739,3.833-2.609,6.281-2.609c2.104,0,3.947,0.636,5.531,1.906c0.26,0.219,0.516,0.453,0.766,0.703
			c0.104,0.104,0.4,0.433,0.891,0.984l-1.625,1.641L1465.945,664.765z M1471.352,654.765c-0.365-0.281-1.183-0.422-2.453-0.422
			c-1.531,0-2.842,0.545-3.93,1.633c-1.089,1.089-1.633,2.404-1.633,3.945c0,1.261,0.141,2.078,0.422,2.453L1471.352,654.765z"/>
		<path style="fill:#FFFFFF;" d="M1483.914,664.952c0.385,0.375,0.844,0.563,1.375,0.563s0.986-0.188,1.367-0.563
			c0.38-0.375,0.57-0.838,0.57-1.391c0-0.531-0.188-0.984-0.563-1.359c-0.261-0.26-0.818-0.661-1.672-1.203
			c-1.167-0.635-1.995-1.197-2.484-1.688c-0.854-0.854-1.281-1.88-1.281-3.078c0-1.208,0.427-2.242,1.281-3.102
			c0.854-0.859,1.885-1.289,3.094-1.289c1.208,0,2.213,0.406,3.016,1.219c0.572,0.573,0.938,1.214,1.094,1.922l-3.141,0.906
			c-0.073-0.26-0.146-0.432-0.219-0.516c-0.188-0.188-0.438-0.281-0.75-0.281s-0.581,0.112-0.805,0.336
			c-0.225,0.225-0.336,0.492-0.336,0.805s0.109,0.578,0.328,0.797c0.197,0.188,0.646,0.506,1.344,0.953
			c1.291,0.709,2.229,1.354,2.813,1.938c1.01,1.021,1.516,2.234,1.516,3.641c0,1.438-0.503,2.664-1.508,3.68
			c-1.006,1.016-2.227,1.523-3.664,1.523c-1.428,0-2.646-0.51-3.656-1.531c-0.698-0.697-1.156-1.567-1.375-2.609l3.219-0.688
			C1483.57,664.416,1483.716,664.755,1483.914,664.952z"/>
		<path style="fill:#FFFFFF;" d="M1508.383,653.452v-1.125h3.25v16.094h-3.25v-2.016c-1.563,1.615-3.375,2.422-5.438,2.422
			c-2.459,0-4.555-0.867-6.289-2.602s-2.602-3.83-2.602-6.289c0-2.458,0.867-4.555,2.602-6.289s3.83-2.602,6.289-2.602
			C1505.008,651.046,1506.82,651.849,1508.383,653.452z M1508.383,661.124v-2.375c-0.188-1.01-0.688-1.927-1.5-2.75
			c-1.094-1.083-2.406-1.625-3.938-1.625c-1.542,0-2.857,0.542-3.945,1.625c-1.089,1.084-1.633,2.396-1.633,3.938
			c0,1.531,0.544,2.842,1.633,3.93c1.088,1.089,2.403,1.633,3.945,1.633c1.531,0,2.844-0.541,3.938-1.625
			C1507.695,663.052,1508.195,662.135,1508.383,661.124z"/>
		<path style="fill:#FFFFFF;" d="M1530.289,653.437v-10.031h3.25v25h-3.25v-2c-1.563,1.615-3.381,2.422-5.453,2.422
			c-2.459,0-4.555-0.869-6.289-2.609c-1.734-1.739-2.602-3.838-2.602-6.297c0-2.458,0.867-4.557,2.602-6.297
			c1.734-1.739,3.83-2.609,6.289-2.609C1526.908,651.015,1528.727,651.822,1530.289,653.437z M1530.289,661.124v-2.391
			c-0.188-1.01-0.693-1.927-1.516-2.75c-1.084-1.094-2.396-1.641-3.938-1.641c-1.542,0-2.857,0.547-3.945,1.641
			c-1.089,1.094-1.633,2.406-1.633,3.938c0,1.542,0.544,2.854,1.633,3.938c1.088,1.084,2.403,1.625,3.945,1.625
			c1.541,0,2.854-0.541,3.938-1.625C1529.596,663.036,1530.102,662.124,1530.289,661.124z"/>
		<path style="fill:#FFFFFF;" d="M1552.164,653.452v-1.125h3.25v16.094h-3.25v-2.016c-1.563,1.615-3.375,2.422-5.438,2.422
			c-2.459,0-4.555-0.867-6.289-2.602s-2.602-3.83-2.602-6.289c0-2.458,0.867-4.555,2.602-6.289s3.83-2.602,6.289-2.602
			C1548.789,651.046,1550.602,651.849,1552.164,653.452z M1552.164,661.124v-2.375c-0.188-1.01-0.688-1.927-1.5-2.75
			c-1.094-1.083-2.406-1.625-3.938-1.625c-1.542,0-2.857,0.542-3.945,1.625c-1.089,1.084-1.633,2.396-1.633,3.938
			c0,1.531,0.544,2.842,1.633,3.93c1.088,1.089,2.403,1.633,3.945,1.633c1.531,0,2.844-0.541,3.938-1.625
			C1551.477,663.052,1551.977,662.135,1552.164,661.124z"/>
		<path style="fill:#FFFFFF;" d="M1563.367,664.952c0.385,0.375,0.844,0.563,1.375,0.563s0.986-0.188,1.367-0.563
			c0.38-0.375,0.57-0.838,0.57-1.391c0-0.531-0.188-0.984-0.563-1.359c-0.261-0.26-0.818-0.661-1.672-1.203
			c-1.167-0.635-1.995-1.197-2.484-1.688c-0.854-0.854-1.281-1.88-1.281-3.078c0-1.208,0.427-2.242,1.281-3.102
			c0.854-0.859,1.885-1.289,3.094-1.289c1.208,0,2.213,0.406,3.016,1.219c0.572,0.573,0.938,1.214,1.094,1.922l-3.141,0.906
			c-0.073-0.26-0.146-0.432-0.219-0.516c-0.188-0.188-0.438-0.281-0.75-0.281s-0.581,0.112-0.805,0.336
			c-0.225,0.225-0.336,0.492-0.336,0.805s0.109,0.578,0.328,0.797c0.197,0.188,0.646,0.506,1.344,0.953
			c1.291,0.709,2.229,1.354,2.813,1.938c1.01,1.021,1.516,2.234,1.516,3.641c0,1.438-0.503,2.664-1.508,3.68
			c-1.006,1.016-2.227,1.523-3.664,1.523c-1.428,0-2.646-0.51-3.656-1.531c-0.698-0.697-1.156-1.567-1.375-2.609l3.219-0.688
			C1563.023,664.416,1563.169,664.755,1563.367,664.952z"/>
		<path style="fill:#FFFFFF;" d="M1404.539,693.978c-1.771-0.594-3.206-1.439-4.305-2.539c-1.1-1.099-1.648-2.461-1.648-4.086
			c0-1.594,0.57-2.963,1.711-4.109c1.141-1.146,2.523-1.719,4.148-1.719c1.604,0,2.979,0.568,4.125,1.703
			c0.646,0.625,1.188,1.62,1.625,2.984l-2.938,1.156c-0.354-0.958-0.678-1.583-0.969-1.875c-0.511-0.5-1.125-0.75-1.844-0.75
			c-0.729,0-1.35,0.253-1.859,0.758c-0.511,0.506-0.766,1.123-0.766,1.852c0,0.729,0.255,1.35,0.766,1.859
			c0.572,0.563,1.364,1.078,2.375,1.547c1.958,0.636,3.619,1.636,4.984,3c1.531,1.511,2.297,3.344,2.297,5.5
			s-0.764,3.998-2.289,5.523c-1.526,1.526-3.362,2.289-5.508,2.289c-2.156,0-3.995-0.766-5.516-2.297
			c-1.219-1.219-1.99-2.9-2.313-5.047l3.141-1.141c0.197,1.844,0.682,3.151,1.453,3.922c0.896,0.896,1.974,1.344,3.234,1.344
			c1.26,0,2.338-0.447,3.234-1.344c0.896-0.896,1.344-1.979,1.344-3.25c0-1.26-0.448-2.338-1.344-3.234
			C1406.825,695.171,1405.778,694.488,1404.539,693.978z"/>
		<path style="fill:#FFFFFF;" d="M1429.32,691.853v-1.125h3.25v16.094h-3.25v-2.016c-1.563,1.615-3.375,2.422-5.438,2.422
			c-2.459,0-4.555-0.867-6.289-2.602s-2.602-3.83-2.602-6.289c0-2.458,0.867-4.555,2.602-6.289s3.83-2.602,6.289-2.602
			C1425.945,689.446,1427.758,690.249,1429.32,691.853z M1429.32,699.524v-2.375c-0.188-1.01-0.688-1.927-1.5-2.75
			c-1.094-1.083-2.406-1.625-3.938-1.625c-1.542,0-2.857,0.542-3.945,1.625c-1.089,1.084-1.633,2.396-1.633,3.938
			c0,1.531,0.544,2.842,1.633,3.93c1.088,1.089,2.403,1.633,3.945,1.633c1.531,0,2.844-0.541,3.938-1.625
			C1428.633,701.452,1429.133,700.535,1429.32,699.524z"/>
		<path style="fill:#FFFFFF;" d="M1439.305,690.728v-6.031h3.234v6.031h2.891v3.234h-2.891v12.844h-3.234v-12.844h-2.891v-3.234
			H1439.305z"/>
		<path style="fill:#FFFFFF;" d="M1452.68,684.774c0.447,0.438,0.672,0.975,0.672,1.609c0,0.636-0.225,1.172-0.672,1.609
			c-0.448,0.438-0.984,0.656-1.609,0.656c-0.615,0-1.146-0.219-1.594-0.656c-0.448-0.438-0.672-0.974-0.672-1.609
			c0-0.635,0.224-1.172,0.672-1.609c0.447-0.438,0.979-0.656,1.594-0.656C1451.695,684.118,1452.231,684.337,1452.68,684.774z
			 M1452.695,690.728v16.078h-3.234v-16.078H1452.695z"/>
		<path style="fill:#FFFFFF;" d="M1460.898,703.353c0.385,0.375,0.844,0.563,1.375,0.563s0.986-0.188,1.367-0.563
			c0.38-0.375,0.57-0.838,0.57-1.391c0-0.531-0.188-0.984-0.563-1.359c-0.261-0.26-0.818-0.661-1.672-1.203
			c-1.167-0.635-1.995-1.197-2.484-1.688c-0.854-0.854-1.281-1.88-1.281-3.078c0-1.208,0.427-2.242,1.281-3.102
			c0.854-0.859,1.885-1.289,3.094-1.289c1.208,0,2.213,0.406,3.016,1.219c0.572,0.573,0.938,1.214,1.094,1.922l-3.141,0.906
			c-0.073-0.26-0.146-0.432-0.219-0.516c-0.188-0.188-0.438-0.281-0.75-0.281s-0.581,0.112-0.805,0.336
			c-0.225,0.225-0.336,0.492-0.336,0.805s0.109,0.578,0.328,0.797c0.197,0.188,0.646,0.506,1.344,0.953
			c1.291,0.709,2.229,1.354,2.813,1.938c1.01,1.021,1.516,2.234,1.516,3.641c0,1.438-0.503,2.664-1.508,3.68
			c-1.006,1.016-2.227,1.523-3.664,1.523c-1.428,0-2.646-0.51-3.656-1.531c-0.698-0.697-1.156-1.567-1.375-2.609l3.219-0.688
			C1460.555,702.816,1460.7,703.155,1460.898,703.353z"/>
		<path style="fill:#FFFFFF;" d="M1475.18,693.946v12.875h-3.25v-12.875h-1.438v-3.234h1.438v-2.891
			c0.072-1.333,0.583-2.479,1.531-3.438c0.979-0.916,2.114-1.375,3.406-1.375c0.646,0,1.625,0.225,2.938,0.672l-1.078,3.063
			c-0.917-0.385-1.495-0.578-1.734-0.578c-0.438,0-0.859,0.183-1.266,0.547c-0.344,0.344-0.526,0.756-0.547,1.234v2.766h2.891v3.234
			H1475.18z"/>
		<path style="fill:#FFFFFF;" d="M1486.211,703.165c0.541,0.479,1.525,0.719,2.953,0.719c1.541,0,2.859-0.541,3.953-1.625
			c0.135-0.146,0.411-0.469,0.828-0.969l3.234,1.156c-0.792,1.094-1.365,1.818-1.719,2.172c-1.74,1.74-3.839,2.609-6.297,2.609
			c-2.448,0-4.542-0.869-6.281-2.609c-1.74-1.739-2.609-3.838-2.609-6.297c0-2.458,0.869-4.557,2.609-6.297
			c1.739-1.739,3.833-2.609,6.281-2.609c2.104,0,3.947,0.636,5.531,1.906c0.26,0.219,0.516,0.453,0.766,0.703
			c0.104,0.104,0.4,0.433,0.891,0.984l-1.625,1.641L1486.211,703.165z M1491.617,693.165c-0.365-0.281-1.183-0.422-2.453-0.422
			c-1.531,0-2.842,0.545-3.93,1.633c-1.089,1.089-1.633,2.404-1.633,3.945c0,1.261,0.141,2.078,0.422,2.453L1491.617,693.165z"/>
		<path style="fill:#FFFFFF;" d="M1513.664,701.29l3.234,1.156c-0.792,1.094-1.365,1.818-1.719,2.172
			c-1.74,1.74-3.839,2.609-6.297,2.609c-2.448,0-4.542-0.869-6.281-2.609c-1.74-1.739-2.609-3.838-2.609-6.297
			c0-2.458,0.869-4.557,2.609-6.297c1.739-1.739,3.833-2.609,6.281-2.609c2.458,0,4.557,0.87,6.297,2.609
			c0.354,0.354,0.927,1.068,1.719,2.141l-3.234,1.188c-0.417-0.51-0.698-0.838-0.844-0.984c-1.084-1.083-2.396-1.625-3.938-1.625
			c-1.531,0-2.842,0.545-3.93,1.633c-1.089,1.089-1.633,2.404-1.633,3.945c0,1.531,0.544,2.842,1.633,3.93
			c1.088,1.089,2.398,1.633,3.93,1.633c1.541,0,2.859-0.541,3.953-1.625C1512.971,702.113,1513.247,701.79,1513.664,701.29z"/>
		<path style="fill:#FFFFFF;" d="M1520.648,681.806h3.25v10.656c0.906-1.739,2.219-2.609,3.938-2.609s3.091,0.617,4.117,1.852
			c1.025,1.234,1.555,2.784,1.586,4.648v10.453h-3.234v-10.328c0-0.927-0.264-1.721-0.789-2.383
			c-0.526-0.661-1.357-0.992-2.492-0.992c-1.344,0-2.386,0.719-3.125,2.156v11.547h-3.25V681.806z"/>
		<path style="fill:#FFFFFF;" d="M1552.164,691.853v-1.125h3.25v16.094h-3.25v-2.016c-1.563,1.615-3.375,2.422-5.438,2.422
			c-2.459,0-4.555-0.867-6.289-2.602s-2.602-3.83-2.602-6.289c0-2.458,0.867-4.555,2.602-6.289s3.83-2.602,6.289-2.602
			C1548.789,689.446,1550.602,690.249,1552.164,691.853z M1552.164,699.524v-2.375c-0.188-1.01-0.688-1.927-1.5-2.75
			c-1.094-1.083-2.406-1.625-3.938-1.625c-1.542,0-2.857,0.542-3.945,1.625c-1.089,1.084-1.633,2.396-1.633,3.938
			c0,1.531,0.544,2.842,1.633,3.93c1.088,1.089,2.403,1.633,3.945,1.633c1.531,0,2.844-0.541,3.938-1.625
			C1551.477,701.452,1551.977,700.535,1552.164,699.524z"/>
		<path style="fill:#FFFFFF;" d="M1563.367,703.353c0.385,0.375,0.844,0.563,1.375,0.563s0.986-0.188,1.367-0.563
			c0.38-0.375,0.57-0.838,0.57-1.391c0-0.531-0.188-0.984-0.563-1.359c-0.261-0.26-0.818-0.661-1.672-1.203
			c-1.167-0.635-1.995-1.197-2.484-1.688c-0.854-0.854-1.281-1.88-1.281-3.078c0-1.208,0.427-2.242,1.281-3.102
			c0.854-0.859,1.885-1.289,3.094-1.289c1.208,0,2.213,0.406,3.016,1.219c0.572,0.573,0.938,1.214,1.094,1.922l-3.141,0.906
			c-0.073-0.26-0.146-0.432-0.219-0.516c-0.188-0.188-0.438-0.281-0.75-0.281s-0.581,0.112-0.805,0.336
			c-0.225,0.225-0.336,0.492-0.336,0.805s0.109,0.578,0.328,0.797c0.197,0.188,0.646,0.506,1.344,0.953
			c1.291,0.709,2.229,1.354,2.813,1.938c1.01,1.021,1.516,2.234,1.516,3.641c0,1.438-0.503,2.664-1.508,3.68
			c-1.006,1.016-2.227,1.523-3.664,1.523c-1.428,0-2.646-0.51-3.656-1.531c-0.698-0.697-1.156-1.567-1.375-2.609l3.219-0.688
			C1563.023,702.816,1563.169,703.155,1563.367,703.353z"/>
	</g>
	<polygon style="opacity:0.15;fill:#999999;" points="979.247,900 21.247,900 303.247,450 21.247,0 979.247,0 1267.247,450 	"/>
	<g style="opacity:0.34;">
		<image style="overflow:visible;" width="499" height="156" xlink:href="EBAD2AEB.png"  transform="matrix(1 0 0 1 -38.5 608)">
		</image>
	</g>
	<polygon style="fill:#FF0000;" points="353.333,721.836 0.465,721.836 0.465,634 421.535,634 	"/>
	<g>
		<path style="fill:#323244;" d="M146.12,405.173c0,6.561-11.955,11.881-26.702,11.881c-14.747,0-26.702-5.319-26.702-11.881
			c0-6.561,11.955-11.88,26.702-11.88C134.165,393.293,146.12,398.612,146.12,405.173z"/>
		<path style="fill:#6B2A18;" d="M67.201,608.836v-1.349c0-5.406,4.383-9.789,9.789-9.789h8.318c1.925,0,3.485-1.56,3.485-3.485
			v-0.071c0-1.925,1.56-3.485,3.485-3.485h16.969c1.925,0,3.485,1.56,3.485,3.485v14.693H97.271v-1.837l-3.865,1.837H67.201z"/>
		<path style="fill:#6B2A18;" d="M171.985,608.565v-1.349c0-5.406-4.383-9.789-9.789-9.789h-8.318c-1.925,0-3.485-1.56-3.485-3.485
			v-0.07c0-1.925-1.56-3.485-3.485-3.485h-16.969c-1.925,0-3.485,1.56-3.485,3.485v14.693h15.462v-1.837l3.864,1.837H171.985z"/>
		<polygon style="fill:#252533;" points="113.73,592.665 113.773,479.016 124.916,479.016 125.214,592.665 150.789,592.268 
			146.218,455.45 92.521,455.45 88.397,592.268 		"/>
		<g>
			<polygon style="fill:#131516;" points="92.528,458.559 146.225,458.559 148,508.778 124.994,508.778 124.923,482.125 
				113.78,482.125 113.761,508.778 90.914,508.778 			"/>
		</g>
		<path style="fill:#252533;" d="M119.347,392.392c-36.474,0-31.949,22.253-31.949,22.253v86.742h63.6v-86.651
			C150.998,414.737,155.821,392.392,119.347,392.392z"/>
		<path style="fill:#FFB37B;" d="M89.454,473.157c0,0,2.945,0.466,6.563,1.794c3.583,1.316,6.347-3.218,0.116-5.379
			c-1.993-0.691-3.676-1.201-5.138-1.485c2.321-1.319,5.786-3.604,5.289-5.25c-1.258-4.166-5.976-1.644-9.285,1.742
			c-2.467,2.524-3.925,6.392-4.783,8.662c-0.23,0.513-0.458,1.054-0.687,1.652c-3.29,8.61,9.087,13.487,12.061,11.414
			c4.634-3.231-6.702-6.84-6.702-6.84s8.292,4.846,10.572,1.274C99.254,477.928,92.181,474.393,89.454,473.157z"/>
		
			<line style="fill:none;stroke:#FFFFFF;stroke-width:5.3201;stroke-miterlimit:10;" x1="84.674" y1="461.383" x2="77.054" y2="474.907"/>
		<g>
			<path style="fill:#252533;" d="M76.772,476.902c-1.384-0.714-33.871-17.826-30.287-46.575
				c3.717-29.814,48.64-40.959,78.271-37.264l-2.391,19.177c-11.867-1.479-26.366,0.182-37.841,4.337
				c-5.306,1.92-17.764,7.338-18.861,16.142c-1.884,15.113,19.776,26.908,19.996,27.023L76.772,476.902z"/>
		</g>
		<g>
			<path style="fill:#FFB37B;" d="M151.255,473.157c0,0-2.945,0.466-6.563,1.794c-3.583,1.316-6.347-3.218-0.116-5.379
				c1.993-0.691,3.676-1.201,5.138-1.485c-2.321-1.319-5.786-3.604-5.289-5.25c1.258-4.166,5.976-1.644,9.285,1.742
				c2.467,2.524,3.925,6.392,4.783,8.662c0.23,0.513,0.458,1.054,0.687,1.652c3.29,8.61-9.087,13.487-12.061,11.414
				c-4.634-3.231,6.702-6.84,6.702-6.84s-8.292,4.846-10.572,1.274C141.456,477.928,148.528,474.393,151.255,473.157z"/>
			
				<line style="fill:none;stroke:#FFFFFF;stroke-width:5.3201;stroke-miterlimit:10;" x1="156.035" y1="461.383" x2="163.656" y2="474.907"/>
			<g>
				<path style="fill:#252533;" d="M163.937,476.902c1.384-0.714,33.871-17.826,30.287-46.575
					c-3.717-29.814-48.64-40.959-78.271-37.264l2.391,19.177c11.867-1.479,26.366,0.182,37.841,4.337
					c5.306,1.92,17.764,7.338,18.861,16.142c1.884,15.113-19.776,26.908-19.996,27.023L163.937,476.902z"/>
			</g>
		</g>
		<polygon style="fill:#FFFFFF;" points="103.121,395.734 119.347,443.232 135.714,395.734 		"/>
		<path style="fill:#AFA2A0;" d="M135.637,400.982l-0.174-0.084c-10.197-4.909-22.074-4.907-32.269,0.005l-0.163,0.078l4.473,12.982
			l11.83-8.755l11.83,8.755L135.637,400.982z"/>
		<polygon style="fill:#070404;" points="122.683,433.513 119.333,443.235 116.012,433.511 119.403,395.737 119.403,395.737 		"/>
		<path style="fill:#070404;" d="M119.319,409.247h0.056c1.651,0,3.105-1.087,3.573-2.67l1.856-6.287
			c0.705-2.387-1.084-4.78-3.573-4.78h-3.769c-2.489,0-4.277,2.394-3.573,4.78l1.856,6.287
			C116.214,408.161,117.668,409.247,119.319,409.247z"/>
		<path style="fill:#FFFFFF;" d="M135.714,395.734l-0.174-0.084c-10.197-4.909-22.074-4.907-32.269,0.005l-0.163,0.079l4.473,12.982
			l11.83-7.787l11.83,7.787L135.714,395.734z"/>
		<polygon style="fill:#323244;" points="119.333,443.235 135.714,392.761 147.469,397.921 140.364,407.405 135.714,409.222 
			137.669,415.486 		"/>
		<polygon style="fill:#323244;" points="119.333,443.236 102.953,392.762 91.197,397.233 98.302,407.407 102.953,409.223 
			100.997,415.488 		"/>
		<g>
			<path style="fill:#323244;" d="M118.381,445.551c0,18.097,0,36.194,0,54.291c0,1.243,1.933,1.246,1.933,0
				c0-18.097,0-36.194,0-54.291C120.313,444.307,118.381,444.305,118.381,445.551L118.381,445.551z"/>
		</g>
		<path style="fill:#774320;" d="M81.65,367.282c0,0-26.785-45.055,0.036-57.309c6.317-24.259,39.316-18.136,47.379-15.857
			c8.063,2.279,12.842-1.859,12.842-1.859c2.698,2.439,2.961,7.559,2.961,7.559l6.234-8.152c8.264,5.173,12.86,18.493,1.267,37.464
			L81.65,367.282z"/>
		<path style="fill:#FF9E5C;" d="M127.946,392.783c0,4.252-3.447,7.699-7.699,7.699h-1.925c-4.252,0-7.699-3.447-7.699-7.699
			v-13.061c0-4.252,3.447-7.699,7.699-7.699h1.925c4.252,0,7.699,3.447,7.699,7.699V392.783z"/>
		<path style="fill:#FFB37B;" d="M124.785,308.206l-21.884,1.772c-14.206,1.15-24.746,14.129-23.543,28.99l0.518,6.399
			c0.006,0.07-0.048,0.127-0.115,0.123c-0.448-0.028-0.901-0.035-1.361,0.002l-0.256,0.021c-5.593,0.453-9.743,5.563-9.27,11.414
			l0.017,0.214c0.473,5.847,5.388,10.219,10.977,9.767l0.263-0.021c0.47-0.038,0.926-0.12,1.373-0.223
			c0.063-0.015,0.122,0.03,0.13,0.097c1.69,14.262,13.862,24.779,27.668,23.662l21.994-1.781
			c14.206-1.15,24.746-14.129,23.543-28.989l-2.155-26.621C151.481,318.17,138.99,307.056,124.785,308.206z"/>
		<g>
			<path style="fill:#774320;" d="M88.994,353.233c-1.025-12.662-4.959-28.379,5.501-37.892c5.297-4.817,11.536-5.301,18.166-5.838
				c5.399-0.437,10.791-0.972,16.198-1.311c5.833-0.366,5.111-9.668-0.76-9.39c-5.921,0.281-11.815,0.957-17.722,1.435
				c-8.434,0.683-16.08,2.496-22.5,8.701c-7.144,6.905-10.151,16.704-9.338,26.743c0.493,6.093,0.987,12.186,1.48,18.279
				C80.509,360.015,89.484,359.288,88.994,353.233L88.994,353.233z"/>
		</g>
		<path style="fill:#774320;" d="M150.056,300.56c0,0,1.565,14.221-26.806,16.518c-28.371,2.297-38.897,1.612-36.792,27.609
			c0,0-8.721-37.703,15.766-43.266C126.71,295.858,136.568,307.252,150.056,300.56z"/>
		<g>
			<path style="fill:#131516;" d="M112.418,346.569c0.023,2.101-1.191,3.818-2.712,3.835c-1.521,0.017-2.773-1.673-2.796-3.773
				c-0.023-2.101,1.191-3.818,2.712-3.835C111.143,342.779,112.395,344.469,112.418,346.569z"/>
			<path style="fill:#131516;" d="M140.127,345.294c0.023,2.072-1.174,3.765-2.675,3.782c-1.5,0.017-2.735-1.65-2.758-3.722
				c-0.023-2.072,1.174-3.766,2.675-3.782C138.869,341.555,140.104,343.221,140.127,345.294z"/>
			<g>
				<path style="fill:#774320;" d="M115.226,336.907c-3.951,0.319-7.903,0.637-11.854,0.956c-1.961,0.158-1.49,3.175,0.457,3.018
					c3.951-0.319,7.903-0.637,11.854-0.955C117.645,339.767,117.174,336.75,115.226,336.907L115.226,336.907z"/>
			</g>
			<g>
				<path style="fill:#774320;" d="M132.728,338.7c4.008,0.268,8.016,0.536,12.024,0.805c1.949,0.13,2.34-2.898,0.372-3.03
					c-4.008-0.268-8.016-0.536-12.024-0.804C131.151,335.539,130.761,338.568,132.728,338.7L132.728,338.7z"/>
			</g>
		</g>
	</g>
	<g>
		<g style="opacity:0.44;">
			<image style="overflow:visible;" width="476" height="210" xlink:href="EBAD2AEE.png"  transform="matrix(1 0 0 1 545.5 691)">
			</image>
		</g>
		<path style="fill:#808080;" d="M1017.747,855.062H671.13c-12.888,0-23.336-10.448-23.336-23.336l-16.894-88.138h342.458
			c15.674,0,28.379,12.706,28.379,28.379L1017.747,855.062z"/>
		<g>
			<path style="fill:#FFFFFF;" d="M764.12,766.147l9.164,25.195h-3.464l-3.244-8.913h-6.677l-3.228,8.913h-3.48l9.165-25.195H764.12
				z M765.396,779.171l-2.157-5.905l-2.142,5.905H765.396z"/>
			<path style="fill:#FFFFFF;" d="M790.496,776.257v-10.109h3.275v25.195h-3.275v-2.016c-1.574,1.627-3.406,2.44-5.495,2.44
				c-2.479,0-4.591-0.876-6.339-2.629c-1.747-1.754-2.621-3.869-2.621-6.347s0.874-4.593,2.621-6.346
				c1.748-1.753,3.86-2.63,6.339-2.63C787.09,773.816,788.922,774.63,790.496,776.257z M790.496,784.005v-2.409
				c-0.188-1.019-0.698-1.942-1.527-2.771c-1.092-1.103-2.415-1.653-3.968-1.653c-1.554,0-2.88,0.551-3.977,1.653
				s-1.646,2.425-1.646,3.968c0,1.554,0.549,2.877,1.646,3.969s2.423,1.638,3.977,1.638c1.553,0,2.876-0.546,3.968-1.638
				C789.798,785.932,790.308,785.013,790.496,784.005z"/>
			<path style="fill:#FFFFFF;" d="M798.496,775.14h3.26v1.512c0.63-1.585,1.842-2.378,3.637-2.378c1.785,0,2.787,0.902,3.008,2.708
				c0.515-1.806,1.932-2.708,4.252-2.708c2.288,0,3.433,1.391,3.433,4.173v12.896h-3.275v-11.4c0-1.596-0.646-2.394-1.937-2.394
				c-0.535,0-0.998,0.188-1.386,0.566c-0.389,0.378-0.583,1.648-0.583,3.811v9.417h-3.26l0.017-11.4
				c0-1.596-0.651-2.394-1.953-2.394c-0.535,0-0.997,0.188-1.386,0.566c-0.336,0.325-0.525,1.187-0.566,2.583v10.645h-3.26V775.14z"
				/>
			<path style="fill:#FFFFFF;" d="M824.337,769.14c0.451,0.441,0.677,0.981,0.677,1.622s-0.226,1.181-0.677,1.622
				c-0.452,0.44-0.992,0.661-1.622,0.661c-0.62,0-1.155-0.221-1.606-0.661c-0.451-0.441-0.677-0.981-0.677-1.622
				s0.226-1.181,0.677-1.622c0.451-0.44,0.986-0.661,1.606-0.661C823.345,768.479,823.885,768.699,824.337,769.14z M824.353,775.14
				v16.203h-3.26V775.14H824.353z"/>
			<path style="fill:#FFFFFF;" d="M832.619,779.485v11.857h-3.275V775.14h3.275v1.89c0.682-1.848,2.052-2.771,4.109-2.771
				c1.753,0,3.146,0.622,4.181,1.865c1.034,1.244,1.567,2.806,1.599,4.686v10.534h-3.26v-10.408c0-0.935-0.341-1.735-1.023-2.402
				c-0.683-0.666-1.496-0.999-2.44-0.999c-0.935,0-1.743,0.325-2.425,0.976C832.981,778.897,832.734,779.223,832.619,779.485z"/>
			<path style="fill:#FFFFFF;" d="M850.791,769.14c0.451,0.441,0.677,0.981,0.677,1.622s-0.226,1.181-0.677,1.622
				c-0.452,0.44-0.992,0.661-1.622,0.661c-0.62,0-1.155-0.221-1.606-0.661c-0.451-0.441-0.677-0.981-0.677-1.622
				s0.226-1.181,0.677-1.622c0.451-0.44,0.986-0.661,1.606-0.661C849.799,768.479,850.339,768.699,850.791,769.14z M850.807,775.14
				v16.203h-3.26V775.14H850.807z"/>
			<path style="fill:#FFFFFF;" d="M859.074,787.862c0.388,0.378,0.85,0.567,1.386,0.567c0.535,0,0.994-0.189,1.378-0.567
				c0.383-0.378,0.574-0.845,0.574-1.401c0-0.535-0.188-0.992-0.566-1.37c-0.263-0.262-0.824-0.666-1.686-1.212
				c-1.176-0.641-2.01-1.207-2.504-1.701c-0.86-0.86-1.291-1.895-1.291-3.102c0-1.218,0.431-2.26,1.291-3.126
				c0.861-0.866,1.9-1.299,3.118-1.299s2.23,0.409,3.039,1.228c0.577,0.578,0.945,1.224,1.103,1.938l-3.165,0.913
				c-0.073-0.263-0.147-0.436-0.221-0.52c-0.188-0.189-0.44-0.283-0.756-0.283c-0.314,0-0.585,0.112-0.811,0.338
				c-0.227,0.227-0.339,0.496-0.339,0.812c0,0.314,0.11,0.582,0.331,0.803c0.199,0.189,0.65,0.51,1.354,0.961
				c1.302,0.714,2.247,1.364,2.835,1.952c1.018,1.029,1.527,2.252,1.527,3.669c0,1.449-0.507,2.686-1.52,3.709
				c-1.014,1.023-2.244,1.535-3.692,1.535c-1.438,0-2.667-0.515-3.686-1.543c-0.703-0.703-1.165-1.58-1.386-2.63l3.244-0.693
				C858.728,787.322,858.874,787.663,859.074,787.862z"/>
			<path style="fill:#FFFFFF;" d="M871.892,775.14v-6.079h3.26v6.079h2.913v3.259h-2.913v12.944h-3.26v-12.944h-2.913v-3.259
				H871.892z"/>
			<path style="fill:#FFFFFF;" d="M885.119,777.328c1.217-1.648,2.713-2.514,4.487-2.599v3.386
				c-1.187,0.063-2.131,0.446-2.834,1.149c-1.061,1.05-1.612,2.3-1.653,3.748v8.33h-3.26V775.14h3.26V777.328z"/>
			<path style="fill:#FFFFFF;" d="M906.818,776.273v-1.134h3.275v16.219h-3.275v-2.031c-1.574,1.627-3.401,2.44-5.479,2.44
				c-2.479,0-4.591-0.874-6.339-2.621c-1.747-1.748-2.621-3.861-2.621-6.339s0.874-4.59,2.621-6.338
				c1.748-1.748,3.86-2.622,6.339-2.622C903.417,773.848,905.244,774.656,906.818,776.273z M906.818,784.005v-2.394
				c-0.188-1.019-0.692-1.942-1.512-2.771c-1.103-1.092-2.425-1.638-3.968-1.638c-1.554,0-2.88,0.546-3.977,1.638
				s-1.646,2.415-1.646,3.968c0,1.544,0.549,2.864,1.646,3.961s2.423,1.646,3.977,1.646c1.543,0,2.865-0.546,3.968-1.638
				C906.126,785.947,906.63,785.023,906.818,784.005z"/>
			<path style="fill:#FFFFFF;" d="M916.88,775.14v-6.079h3.26v6.079h2.913v3.259h-2.913v12.944h-3.26v-12.944h-2.913v-3.259H916.88z
				"/>
			<path style="fill:#FFFFFF;" d="M930.36,769.14c0.451,0.441,0.677,0.981,0.677,1.622s-0.226,1.181-0.677,1.622
				c-0.452,0.44-0.992,0.661-1.622,0.661c-0.62,0-1.155-0.221-1.606-0.661c-0.451-0.441-0.677-0.981-0.677-1.622
				s0.226-1.181,0.677-1.622c0.451-0.44,0.986-0.661,1.606-0.661C929.368,768.479,929.908,768.699,930.36,769.14z M930.376,775.14
				v16.203h-3.26V775.14H930.376z"/>
			<path style="fill:#FFFFFF;" d="M941.524,791.343l-7.732-16.203h3.685l4.866,10.519l4.882-10.519h3.685l-7.748,16.203H941.524z"/>
			<path style="fill:#FFFFFF;" d="M967.648,776.273v-1.134h3.275v16.219h-3.275v-2.031c-1.574,1.627-3.401,2.44-5.479,2.44
				c-2.479,0-4.591-0.874-6.339-2.621c-1.747-1.748-2.621-3.861-2.621-6.339s0.874-4.59,2.621-6.338
				c1.748-1.748,3.86-2.622,6.339-2.622C964.247,773.848,966.074,774.656,967.648,776.273z M967.648,784.005v-2.394
				c-0.188-1.019-0.692-1.942-1.512-2.771c-1.103-1.092-2.425-1.638-3.968-1.638c-1.554,0-2.88,0.546-3.977,1.638
				s-1.646,2.415-1.646,3.968c0,1.544,0.549,2.864,1.646,3.961s2.423,1.646,3.977,1.646c1.543,0,2.865-0.546,3.968-1.638
				C966.956,785.947,967.46,785.023,967.648,784.005z"/>
			<path style="fill:#FFFFFF;" d="M758.75,835.49h-3.448l4.314-9.055l-6.031-12.597h3.669l4.11,8.865l4.11-8.865h3.653
				L758.75,835.49z"/>
			<path style="fill:#FFFFFF;" d="M795.977,804.847v3.26h-8.865v7.7h8.865v3.26h-8.865v10.976h-3.26v-25.195H795.977z"/>
			<path style="fill:#FFFFFF;" d="M803.251,807.839c0.451,0.441,0.677,0.981,0.677,1.622s-0.226,1.181-0.677,1.622
				c-0.452,0.44-0.992,0.661-1.622,0.661c-0.62,0-1.155-0.221-1.606-0.661c-0.451-0.441-0.677-0.981-0.677-1.622
				s0.226-1.181,0.677-1.622c0.451-0.44,0.986-0.661,1.606-0.661C802.259,807.178,802.799,807.398,803.251,807.839z
				 M803.267,813.839v16.203h-3.26v-16.203H803.267z"/>
			<path style="fill:#FFFFFF;" d="M811.534,818.185v11.857h-3.275v-16.203h3.275v1.89c0.682-1.848,2.052-2.771,4.109-2.771
				c1.753,0,3.146,0.622,4.181,1.865c1.034,1.244,1.567,2.806,1.599,4.686v10.534h-3.26v-10.408c0-0.935-0.341-1.735-1.023-2.402
				c-0.683-0.666-1.496-0.999-2.44-0.999c-0.935,0-1.743,0.325-2.425,0.976C811.896,817.597,811.649,817.922,811.534,818.185z"/>
			<path style="fill:#FFFFFF;" d="M840.24,814.973v-1.134h3.275v16.219h-3.275v-2.031c-1.574,1.627-3.401,2.44-5.479,2.44
				c-2.479,0-4.591-0.874-6.339-2.621c-1.747-1.748-2.621-3.861-2.621-6.339s0.874-4.59,2.621-6.338
				c1.748-1.748,3.86-2.622,6.339-2.622C836.839,812.547,838.666,813.355,840.24,814.973z M840.24,822.704v-2.394
				c-0.188-1.019-0.692-1.942-1.512-2.771c-1.103-1.092-2.425-1.638-3.968-1.638c-1.554,0-2.88,0.546-3.977,1.638
				s-1.646,2.415-1.646,3.968c0,1.544,0.549,2.864,1.646,3.961s2.423,1.646,3.977,1.646c1.543,0,2.865-0.546,3.968-1.638
				C839.548,824.646,840.052,823.723,840.24,822.704z"/>
			<path style="fill:#FFFFFF;" d="M851.531,818.185v11.857h-3.275v-16.203h3.275v1.89c0.682-1.848,2.052-2.771,4.109-2.771
				c1.753,0,3.146,0.622,4.181,1.865c1.034,1.244,1.567,2.806,1.599,4.686v10.534h-3.26v-10.408c0-0.935-0.341-1.735-1.023-2.402
				c-0.683-0.666-1.496-0.999-2.44-0.999c-0.935,0-1.743,0.325-2.425,0.976C851.894,817.597,851.646,817.922,851.531,818.185z"/>
			<path style="fill:#FFFFFF;" d="M879.024,824.483l3.26,1.165c-0.798,1.103-1.375,1.832-1.731,2.189
				c-1.754,1.753-3.869,2.629-6.347,2.629c-2.467,0-4.577-0.876-6.33-2.629c-1.753-1.754-2.63-3.869-2.63-6.347
				s0.877-4.593,2.63-6.346s3.863-2.63,6.33-2.63c2.478,0,4.593,0.877,6.347,2.63c0.356,0.357,0.934,1.076,1.731,2.157l-3.26,1.197
				c-0.42-0.515-0.703-0.846-0.85-0.992c-1.092-1.092-2.415-1.638-3.969-1.638c-1.543,0-2.863,0.549-3.96,1.646
				c-1.098,1.097-1.646,2.422-1.646,3.976c0,1.543,0.548,2.863,1.646,3.961c1.097,1.097,2.417,1.646,3.96,1.646
				c1.554,0,2.882-0.546,3.984-1.638C878.326,825.313,878.604,824.987,879.024,824.483z"/>
			<path style="fill:#FFFFFF;" d="M889.576,807.839c0.451,0.441,0.677,0.981,0.677,1.622s-0.226,1.181-0.677,1.622
				c-0.452,0.44-0.992,0.661-1.622,0.661c-0.62,0-1.155-0.221-1.606-0.661c-0.451-0.441-0.677-0.981-0.677-1.622
				s0.226-1.181,0.677-1.622c0.451-0.44,0.986-0.661,1.606-0.661C888.584,807.178,889.124,807.398,889.576,807.839z
				 M889.592,813.839v16.203h-3.26v-16.203H889.592z"/>
			<path style="fill:#FFFFFF;" d="M899.622,826.373c0.545,0.483,1.537,0.725,2.976,0.725c1.554,0,2.882-0.546,3.984-1.638
				c0.136-0.147,0.414-0.473,0.834-0.977l3.26,1.165c-0.798,1.103-1.375,1.832-1.731,2.189c-1.754,1.753-3.869,2.629-6.347,2.629
				c-2.467,0-4.577-0.876-6.33-2.629c-1.753-1.754-2.63-3.869-2.63-6.347s0.877-4.593,2.63-6.346s3.863-2.63,6.33-2.63
				c2.121,0,3.979,0.641,5.574,1.921c0.263,0.221,0.521,0.457,0.772,0.709c0.104,0.105,0.403,0.436,0.897,0.992l-1.638,1.653
				L899.622,826.373z M905.07,816.295c-0.368-0.283-1.191-0.425-2.473-0.425c-1.543,0-2.863,0.549-3.96,1.646
				c-1.098,1.097-1.646,2.422-1.646,3.976c0,1.271,0.142,2.095,0.425,2.473L905.07,816.295z"/>
			<path style="fill:#FFFFFF;" d="M917.716,816.027c1.217-1.648,2.713-2.514,4.487-2.599v3.386
				c-1.187,0.063-2.131,0.446-2.834,1.149c-1.061,1.05-1.612,2.3-1.653,3.748v8.33h-3.26v-16.203h3.26V816.027z"/>
			<path style="fill:#FFFFFF;" d="M939.414,814.973v-1.134h3.275v16.219h-3.275v-2.031c-1.574,1.627-3.401,2.44-5.479,2.44
				c-2.479,0-4.591-0.874-6.339-2.621c-1.747-1.748-2.621-3.861-2.621-6.339s0.874-4.59,2.621-6.338
				c1.748-1.748,3.86-2.622,6.339-2.622C936.013,812.547,937.84,813.355,939.414,814.973z M939.414,822.704v-2.394
				c-0.188-1.019-0.692-1.942-1.512-2.771c-1.103-1.092-2.425-1.638-3.968-1.638c-1.554,0-2.88,0.546-3.977,1.638
				s-1.646,2.415-1.646,3.968c0,1.544,0.549,2.864,1.646,3.961s2.423,1.646,3.977,1.646c1.543,0,2.865-0.546,3.968-1.638
				C938.722,824.646,939.226,823.723,939.414,822.704z"/>
		</g>
		<circle style="fill:#FFFFFF;" cx="654.567" cy="789.345" r="71.82"/>
		<g>
			<path style="fill:#FF0000;" d="M663.166,754.166h7.781v41.314h6.062v8.898h-6.062v18.572h-8.899v-18.572h-28.159L663.166,754.166
				z M662.048,774.242l-12.682,21.238h12.682V774.242z"/>
		</g>
	</g>
	<g style="opacity:0.4;">
		<image style="overflow:visible;" width="483" height="210" xlink:href="EBAD2AEF.png"  transform="matrix(1 0 0 1 309.5 115)">
		</image>
	</g>
	<path style="fill:#808080;" d="M780.747,268.578H434.13c-12.888,0-23.336-10.448-23.336-23.336l-16.895-88.138h342.458
		c15.674,0,28.379,12.706,28.379,28.379L780.747,268.578z"/>
	<g>
		<path style="fill:#FFFFFF;" d="M530.525,197.409v3.259h-10.313v7.7h10.313v3.26h-10.313v7.7h10.313v3.275h-13.573v-25.195H530.525
			z"/>
		<path style="fill:#FFFFFF;" d="M538.131,219.124c0.388,0.378,0.85,0.567,1.386,0.567c0.535,0,0.994-0.189,1.378-0.567
			c0.383-0.378,0.574-0.845,0.574-1.401c0-0.536-0.188-0.992-0.566-1.37c-0.263-0.262-0.824-0.667-1.686-1.212
			c-1.176-0.64-2.01-1.207-2.504-1.701c-0.86-0.861-1.291-1.895-1.291-3.102c0-1.218,0.431-2.26,1.291-3.126
			c0.861-0.866,1.9-1.299,3.118-1.299s2.23,0.41,3.039,1.229c0.577,0.578,0.945,1.223,1.103,1.937l-3.165,0.913
			c-0.073-0.262-0.147-0.436-0.221-0.52c-0.188-0.189-0.44-0.284-0.756-0.284c-0.314,0-0.585,0.113-0.811,0.339
			c-0.227,0.226-0.339,0.496-0.339,0.811s0.11,0.583,0.331,0.803c0.199,0.189,0.65,0.509,1.354,0.961
			c1.302,0.714,2.247,1.365,2.835,1.952c1.018,1.029,1.527,2.252,1.527,3.669c0,1.449-0.507,2.685-1.52,3.708
			c-1.014,1.024-2.244,1.536-3.692,1.536c-1.438,0-2.667-0.514-3.686-1.543c-0.703-0.703-1.165-1.58-1.386-2.629l3.244-0.693
			C537.785,218.583,537.931,218.925,538.131,219.124z"/>
		<path style="fill:#FFFFFF;" d="M550.949,206.4v-6.078h3.26v6.078h2.913v3.26h-2.913v12.944h-3.26V209.66h-2.913v-3.26H550.949z"/>
		<path style="fill:#FFFFFF;" d="M564.176,208.589c1.217-1.648,2.713-2.514,4.487-2.598v3.385c-1.187,0.063-2.131,0.446-2.834,1.15
			c-1.061,1.05-1.612,2.299-1.653,3.748v8.33h-3.26V206.4h3.26V208.589z"/>
		<path style="fill:#FFFFFF;" d="M585.875,207.534V206.4h3.275v16.219h-3.275v-2.031c-1.574,1.627-3.401,2.441-5.479,2.441
			c-2.479,0-4.591-0.874-6.339-2.622c-1.747-1.748-2.621-3.86-2.621-6.338s0.874-4.59,2.621-6.338
			c1.748-1.748,3.86-2.622,6.339-2.622C582.474,205.109,584.301,205.918,585.875,207.534z M585.875,215.266v-2.394
			c-0.188-1.018-0.692-1.942-1.512-2.771c-1.103-1.092-2.425-1.638-3.968-1.638c-1.554,0-2.88,0.546-3.977,1.638
			s-1.646,2.415-1.646,3.968c0,1.543,0.549,2.863,1.646,3.96c1.097,1.097,2.423,1.646,3.977,1.646c1.543,0,2.865-0.546,3.968-1.638
			C585.183,217.208,585.687,216.284,585.875,215.266z"/>
		<path style="fill:#FFFFFF;" d="M595.937,206.4v-6.078h3.26v6.078h2.913v3.26h-2.913v12.944h-3.26V209.66h-2.913v-3.26H595.937z"/>
		<path style="fill:#FFFFFF;" d="M610.945,218.935c0.545,0.483,1.537,0.724,2.976,0.724c1.554,0,2.882-0.545,3.984-1.638
			c0.136-0.146,0.414-0.472,0.834-0.976l3.26,1.165c-0.798,1.103-1.375,1.832-1.731,2.189c-1.754,1.753-3.869,2.63-6.347,2.63
			c-2.467,0-4.577-0.876-6.33-2.63c-1.753-1.753-2.63-3.868-2.63-6.346c0-2.477,0.877-4.592,2.63-6.346
			c1.753-1.753,3.863-2.63,6.33-2.63c2.121,0,3.979,0.641,5.574,1.921c0.263,0.22,0.521,0.457,0.772,0.708
			c0.104,0.105,0.403,0.436,0.897,0.992l-1.638,1.653L610.945,218.935z M616.393,208.857c-0.368-0.283-1.191-0.425-2.473-0.425
			c-1.543,0-2.863,0.549-3.96,1.646c-1.098,1.097-1.646,2.423-1.646,3.976c0,1.271,0.142,2.095,0.425,2.473L616.393,208.857z
			 M614.44,200.448h3.969l-4.283,4.393h-3.103L614.44,200.448z"/>
		<path style="fill:#FFFFFF;" d="M639.839,207.519V206.4h3.275v12.046c0,3.149-0.855,5.58-2.566,7.291
			c-1.754,1.543-3.869,2.314-6.347,2.314s-4.593-0.771-6.346-2.314c-0.356-0.357-0.929-1.082-1.716-2.173l3.243-1.165
			c0.42,0.504,0.703,0.829,0.851,0.976c1.103,1.092,2.425,1.638,3.968,1.638c2.594,0,4.389-1.701,5.386-5.102
			c-1.019,1.974-2.767,2.96-5.243,2.96c-2.479,0-4.591-0.85-6.339-2.551c-1.747-1.701-2.621-3.79-2.621-6.268
			c0-2.477,0.874-4.59,2.621-6.338c1.748-1.748,3.86-2.622,6.339-2.622C636.433,205.093,638.265,205.902,639.839,207.519z
			 M639.824,212.794c-0.199-0.998-0.703-1.9-1.512-2.708c-1.092-1.103-2.415-1.654-3.968-1.654c-1.554,0-2.88,0.551-3.977,1.654
			c-1.097,1.102-1.646,2.425-1.646,3.968c0,1.554,0.549,2.879,1.646,3.976c1.097,1.097,2.423,1.646,3.977,1.646
			c1.553,0,2.876-0.546,3.968-1.638c0.809-0.809,1.313-1.701,1.512-2.677V212.794z"/>
		<path style="fill:#FFFFFF;" d="M651.415,200.401c0.451,0.441,0.676,0.982,0.676,1.622s-0.226,1.181-0.676,1.622
			c-0.452,0.441-0.992,0.662-1.622,0.662c-0.62,0-1.155-0.221-1.606-0.662s-0.677-0.981-0.677-1.622s0.226-1.181,0.677-1.622
			s0.986-0.661,1.606-0.661C650.422,199.74,650.962,199.96,651.415,200.401z M651.43,206.4v16.204h-3.26V206.4H651.43z"/>
		<path style="fill:#FFFFFF;" d="M669.254,217.045l3.26,1.165c-0.798,1.103-1.375,1.832-1.731,2.189
			c-1.754,1.753-3.869,2.63-6.347,2.63c-2.467,0-4.577-0.876-6.33-2.63c-1.753-1.753-2.63-3.868-2.63-6.346
			c0-2.477,0.877-4.592,2.63-6.346c1.753-1.753,3.863-2.63,6.33-2.63c2.478,0,4.593,0.877,6.347,2.63
			c0.356,0.357,0.934,1.076,1.731,2.157l-3.26,1.197c-0.42-0.514-0.703-0.845-0.85-0.992c-1.092-1.091-2.415-1.638-3.969-1.638
			c-1.543,0-2.863,0.549-3.96,1.646c-1.098,1.097-1.646,2.423-1.646,3.976c0,1.543,0.548,2.864,1.646,3.96
			c1.097,1.097,2.417,1.646,3.96,1.646c1.554,0,2.882-0.545,3.984-1.638C668.556,217.875,668.834,217.549,669.254,217.045z"/>
		<path style="fill:#FFFFFF;" d="M684.309,205.078c2.478,0,4.591,0.877,6.338,2.63c1.748,1.753,2.622,3.869,2.622,6.346
			c0,2.478-0.874,4.593-2.622,6.346c-1.747,1.753-3.86,2.63-6.338,2.63c-2.467,0-4.577-0.876-6.33-2.63
			c-1.753-1.753-2.63-3.868-2.63-6.346c0-2.477,0.877-4.592,2.63-6.346C679.731,205.955,681.842,205.078,684.309,205.078z
			 M680.333,210.085c-1.098,1.102-1.646,2.425-1.646,3.968c0,1.554,0.548,2.877,1.646,3.968c1.097,1.092,2.422,1.638,3.976,1.638
			s2.879-0.545,3.977-1.638c1.097-1.091,1.646-2.414,1.646-3.968c0-1.543-0.549-2.866-1.646-3.968
			c-1.098-1.103-2.423-1.654-3.977-1.654S681.43,208.983,680.333,210.085z"/>
	</g>
	<circle style="fill:#FFFFFF;" cx="417.567" cy="212.655" r="71.82"/>
	<g>
		<path style="fill:#FF0000;" d="M427.843,177.475v68.786h-8.899v-57.178h-6.578l9.028-11.608H427.843z"/>
	</g>
	<g style="opacity:0.4;">
		<image style="overflow:visible;" width="483" height="210" xlink:href="EBAD2AEA.png"  transform="matrix(1 0 0 1 783.5 115)">
		</image>
	</g>
	<path style="fill:#808080;" d="M1254.747,268.578H908.13c-12.888,0-23.336-10.448-23.336-23.336l-16.894-88.138h342.458
		c15.673,0,28.379,12.706,28.379,28.379L1254.747,268.578z"/>
	<g>
		<path style="fill:#FFFFFF;" d="M1010.445,216.604l2.441,2.189c-2.982,2.719-6.137,4.078-9.464,4.078
			c-3.56,0-6.593-1.254-9.103-3.763c-2.509-2.509-3.763-5.543-3.763-9.102c0-3.548,1.254-6.582,3.763-9.102
			c2.51-2.52,5.543-3.779,9.103-3.779c3.327,0,6.481,1.36,9.464,4.079l-2.441,2.22c-2.246-1.995-4.588-2.992-7.022-2.992
			c-2.636,0-4.89,0.934-6.764,2.803s-2.811,4.125-2.811,6.771c0,2.656,0.937,4.918,2.811,6.787s4.128,2.803,6.764,2.803
			C1005.857,219.596,1008.199,218.599,1010.445,216.604z"/>
		<path style="fill:#FFFFFF;" d="M1030.854,207.534V206.4h3.275v16.219h-3.275v-2.031c-1.574,1.627-3.401,2.441-5.479,2.441
			c-2.479,0-4.591-0.874-6.339-2.622c-1.747-1.748-2.621-3.86-2.621-6.338s0.874-4.59,2.621-6.338
			c1.748-1.748,3.86-2.622,6.339-2.622C1027.452,205.109,1029.279,205.918,1030.854,207.534z M1030.854,215.266v-2.394
			c-0.188-1.018-0.692-1.942-1.512-2.771c-1.103-1.092-2.425-1.638-3.968-1.638c-1.554,0-2.88,0.546-3.977,1.638
			s-1.646,2.415-1.646,3.968c0,1.543,0.549,2.863,1.646,3.96c1.097,1.097,2.423,1.646,3.977,1.646c1.543,0,2.865-0.546,3.968-1.638
			C1030.161,217.208,1030.665,216.284,1030.854,215.266z"/>
		<path style="fill:#FFFFFF;" d="M1042.145,197.393v25.211h-3.275v-25.211H1042.145z"/>
		<path style="fill:#FFFFFF;" d="M1050.38,200.401c0.451,0.441,0.677,0.982,0.677,1.622s-0.226,1.181-0.677,1.622
			c-0.452,0.441-0.992,0.662-1.622,0.662c-0.62,0-1.155-0.221-1.606-0.662s-0.677-0.981-0.677-1.622s0.226-1.181,0.677-1.622
			s0.986-0.661,1.606-0.661C1049.388,199.74,1049.928,199.96,1050.38,200.401z M1050.396,206.4v16.204h-3.26V206.4H1050.396z"/>
		<path style="fill:#FFFFFF;" d="M1069.449,207.519v-10.109h3.275v25.195h-3.275v-2.016c-1.574,1.627-3.406,2.441-5.495,2.441
			c-2.479,0-4.591-0.876-6.339-2.63c-1.747-1.753-2.621-3.868-2.621-6.346c0-2.477,0.874-4.592,2.621-6.346
			c1.748-1.753,3.86-2.63,6.339-2.63C1066.043,205.078,1067.875,205.892,1069.449,207.519z M1069.449,215.266v-2.409
			c-0.188-1.019-0.698-1.942-1.527-2.771c-1.092-1.103-2.415-1.654-3.968-1.654c-1.554,0-2.88,0.551-3.977,1.654
			c-1.097,1.102-1.646,2.425-1.646,3.968c0,1.554,0.549,2.877,1.646,3.968c1.097,1.092,2.423,1.638,3.977,1.638
			c1.553,0,2.876-0.545,3.968-1.638C1068.751,217.192,1069.261,216.274,1069.449,215.266z"/>
		<path style="fill:#FFFFFF;" d="M1091.495,207.534V206.4h3.275v16.219h-3.275v-2.031c-1.574,1.627-3.401,2.441-5.479,2.441
			c-2.479,0-4.591-0.874-6.339-2.622c-1.747-1.748-2.621-3.86-2.621-6.338s0.874-4.59,2.621-6.338
			c1.748-1.748,3.86-2.622,6.339-2.622C1088.094,205.109,1089.921,205.918,1091.495,207.534z M1091.495,215.266v-2.394
			c-0.188-1.018-0.692-1.942-1.512-2.771c-1.103-1.092-2.425-1.638-3.968-1.638c-1.554,0-2.88,0.546-3.977,1.638
			s-1.646,2.415-1.646,3.968c0,1.543,0.549,2.863,1.646,3.96c1.097,1.097,2.423,1.646,3.977,1.646c1.543,0,2.865-0.546,3.968-1.638
			C1090.803,217.208,1091.307,216.284,1091.495,215.266z"/>
		<path style="fill:#FFFFFF;" d="M1113.571,207.519v-10.109h3.275v25.195h-3.275v-2.016c-1.574,1.627-3.406,2.441-5.495,2.441
			c-2.479,0-4.591-0.876-6.339-2.63c-1.747-1.753-2.621-3.868-2.621-6.346c0-2.477,0.874-4.592,2.621-6.346
			c1.748-1.753,3.86-2.63,6.339-2.63C1110.165,205.078,1111.997,205.892,1113.571,207.519z M1113.571,215.266v-2.409
			c-0.188-1.019-0.698-1.942-1.527-2.771c-1.092-1.103-2.415-1.654-3.968-1.654c-1.554,0-2.88,0.551-3.977,1.654
			c-1.097,1.102-1.646,2.425-1.646,3.968c0,1.554,0.549,2.877,1.646,3.968c1.097,1.092,2.423,1.638,3.977,1.638
			c1.553,0,2.876-0.545,3.968-1.638C1112.873,217.192,1113.383,216.274,1113.571,215.266z"/>
	</g>
	<circle style="fill:#FFFFFF;" cx="891.567" cy="212.655" r="71.82"/>
	<g>
		<path style="fill:#FF0000;" d="M879.444,224.572c4.671-3.482,8.655-6.455,11.951-8.92c3.296-2.465,6.24-5.116,8.835-7.954
			c2.593-2.837,3.891-5.99,3.891-9.458c0-3.467-1.226-6.419-3.676-8.856c-2.451-2.436-5.41-3.654-8.878-3.654
			c-3.411,0-6.349,1.219-8.813,3.654c-2.092,2.092-3.396,5.704-3.912,10.833l-8.898-3.224c0.917-5.961,3.052-10.633,6.405-14.015
			c4.213-4.241,9.286-6.363,15.219-6.363c5.99,0,11.084,2.107,15.283,6.32c4.198,4.213,6.298,9.315,6.298,15.305
			c0,5.905-2.035,11.049-6.104,15.434c-2.579,2.78-5.582,5.453-9.007,8.018c-3.425,2.565-7.229,5.424-11.414,8.577
			c-3.669,2.723-5.718,5.073-6.147,7.051h32.673v8.942h-43.119C871.634,235.284,874.772,228.054,879.444,224.572z"/>
	</g>
	<g>
		<path style="fill:#6B2A18;" d="M1486.27,607.298l0.374-1.486c1.5-5.957-2.114-12.003-8.071-13.503l-9.166-2.308
			c-2.121-0.534-3.408-2.686-2.874-4.807l0.02-0.078c0.534-2.121-0.753-4.273-2.874-4.807l-18.699-4.708
			c-2.121-0.534-4.273,0.753-4.807,2.874l-3.007,11.944c-0.59,2.346,0.832,4.726,3.178,5.317l12.79,3.22l0.51-2.024l3.749,3.096
			L1486.27,607.298z"/>
		<path style="fill:#FFB37B;" d="M1361.047,472.096c1.298-0.295,3.144,0.604,5.404,1.074c0,0,6.84-1.675,5.86,1.526
			c-1.023,3.338-3.626,4.261-6.264,4.227c2.538,3.845,6.638,7.509,4.72,10.245c-3.651,5.208-11.054-5.163-11.054-5.163
			s1.778,3.265,4.803,6.151c4.689,4.475-3.193,7.364-7.624,3.065c0.843,5.459-5.694,7.473-7.45-5.597
			c-0.674-5.01,2.113-9.001,4.658-11.85C1355.831,473.837,1358.756,472.128,1361.047,472.096z"/>
		<g>
			<path style="fill:#FF9E5C;" d="M1476.867,296.251c1.937,8.934-4.257,11.585-10.756,11.585s-11.768-4.844-11.768-10.82
				c0-5.976,5.269-10.82,11.768-10.82S1475.601,290.411,1476.867,296.251z"/>
			<path style="fill:#FFB37B;" d="M1473.139,287.214c0,3.556-2.085,6.439-4.658,6.439c-2.572,0-4.657-2.883-4.657-6.439
				c0-3.556,2.085-6.439,4.657-6.439C1471.053,280.775,1473.139,283.658,1473.139,287.214z"/>
			<path style="fill:#FFB37B;" d="M1459.048,302.464c-5.764-4.803-2.882-20.706,4.323-21.64c7.204-0.934,5.141,11.943,0,12.514
				c-4.323,0.48-3.362-5.764-3.362-5.764"/>
			<path style="fill:#FFB37B;" d="M1457.508,285.701c-7.306,1.977-3.782,22.344,6.229,22.133c10.01-0.211,6.922-18.758-2.388-12.806
				C1461.349,295.028,1461.049,284.743,1457.508,285.701z"/>
			<path style="fill:#FFB37B;" d="M1477.135,290.286c-1.046,3.051-3.683,4.911-5.89,4.154c-2.207-0.757-3.147-3.843-2.101-6.894
				c1.046-3.051,3.683-4.911,5.89-4.154C1477.24,284.149,1478.181,287.236,1477.135,290.286z"/>
			<path style="fill:#FFB37B;" d="M1480.236,292.15c-0.882,2.572-3.105,4.14-4.965,3.502c-1.86-0.638-2.653-3.24-1.771-5.812
				c0.882-2.572,3.105-4.14,4.965-3.502C1480.325,286.976,1481.118,289.578,1480.236,292.15z"/>
			<polygon style="fill:#FFFFFF;" points="1471.411,315.904 1451.669,309.335 1454.558,300.49 1474.3,307.059 			"/>
		</g>
		<g>
			
				<rect x="1344" y="469.294" transform="matrix(0.829 -0.5593 0.5593 0.829 -33.6201 837.9461)" style="fill:#FFFFFF;" width="18.687" height="9.305"/>
		</g>
		<g>
			<path style="fill:#252533;" d="M1343.562,479.957c-1.074-1.472-26.093-36.382-7.289-64.576
				c19.5-29.238,72.324-17.37,101.382,2.01l-11.969,12.685c-32.609-3.788-28.247-7.495-42.425-9.159
				c-6.556-0.77-22.423-1.627-28.181,7.007c-9.885,14.821,6.595,38.501,6.764,38.737L1343.562,479.957z"/>
		</g>
		
			<line style="fill:none;stroke:#252533;stroke-width:18.4526;stroke-miterlimit:10;" x1="1425.98" y1="415.303" x2="1463.44" y2="307.814"/>
		<path style="fill:#6B2A18;" d="M1372.434,617.255c0,0-2.563,9.592,11.431,23.876c12.67,12.934,16.812,2.735,16.127-2.388
			c-1.012-7.579-5.854-16.145-5.568-18.061c0,0,2.322-3.303,1.772-5.505c-4.556-18.224-16.5-20.317-22.679-17.114
			C1366.328,601.788,1366.355,609.96,1372.434,617.255z"/>
		<g>
			<path style="fill:#252533;" d="M1373.205,494.948C1373.114,494.733,1373.093,494.686,1373.205,494.948L1373.205,494.948z"/>
			<path style="fill:#252533;" d="M1476.722,526.279c-0.491-5.555-2.952-9.478-6.341-13.718
				c-9.73-12.175-22.475-22.403-34.524-32.261c-2.523-2.696-6.104-4.391-10.089-4.391h-38.618c-6.828,0-12.486,4.953-13.612,11.458
				c-0.849,2.61-0.734,5.53,0.135,8.366c0.053,0.184,0.109,0.366,0.174,0.544c0.158,0.463,0.33,0.924,0.528,1.38
				c-0.683-1.572-1.031-2.381-1.17-2.708c0.156,0.37,0.516,1.239,0.748,1.872c0.648,1.77,1.206,3.571,1.736,5.379
				c0.828,2.825,1.514,5.69,2.138,8.566c0.429,1.977,0.795,3.968,1.141,5.961c0.192,1.101,0.359,2.206,0.527,3.312
				c0.033,0.214,0.059,0.386,0.083,0.54c0.025,0.219,0.062,0.532,0.118,0.994c3.241,26.503,0.023,53.236-6.909,78.896
				c-4.076,15.089,19.27,21.484,23.336,6.434c7.472-27.657,11.053-56.759,7.774-85.33c-0.641-5.585-1.47-11.175-2.628-16.686h26.43
				c7.92,6.735,15.646,13.753,22.649,21.366c0.634,0.69,1.245,1.399,1.854,2.112c0.047,0.055,0.076,0.088,0.116,0.134
				c0.059,0.837,0.14,1.925,0.073,2.622c-0.012,0.129-0.02,0.219-0.03,0.324c-0.038,0.212-0.088,0.511-0.157,0.954
				c-0.203,1.288-0.446,2.57-0.685,3.852c-2.075,11.102-4.95,22.134-8.239,32.937c-4.559,14.969,18.803,21.319,23.336,6.433
				c3.423-11.241,6.328-22.707,8.486-34.258C1476.009,536.511,1477.161,531.243,1476.722,526.279z"/>
		</g>
		<path style="fill:#252533;" d="M1405.833,396.603c-37.813,0-33.122,19.129-33.122,19.129v74.567
			c16.207,8.29,54.422,9.579,65.935-5.762v-74.489C1438.646,410.048,1443.646,396.603,1405.833,396.603z"/>
		<polygon style="fill:#FFFFFF;" points="1389.606,400.586 1413.943,440.899 1423.396,400.586 		"/>
		<path style="fill:#AFA2A0;" d="M1424.147,405.04l-0.194-0.071c-11.348-4.166-23.661-4.164-33.453,0.005l-0.157,0.067l6.691,11.018
			l10.879-7.431l13.65,7.431L1424.147,405.04z"/>
		<polygon style="fill:#070404;" points="1415.864,432.651 1413.929,440.902 1408.947,432.649 1406.487,400.589 1406.487,400.589 		
			"/>
		<path style="fill:#070404;" d="M1408.537,412.056h0.058c1.712,0,3.047-0.922,3.281-2.266l0.93-5.336
			c0.353-2.026-1.88-4.057-4.46-4.057h-3.908c-2.58,0-4.056,2.031-2.948,4.057l2.919,5.336
			C1405.146,411.133,1406.825,412.056,1408.537,412.056z"/>
		<path style="fill:#FFFFFF;" d="M1423.395,400.586l-0.194-0.071c-11.348-4.166-23.661-4.164-33.453,0.005l-0.156,0.067
			l6.691,11.018l11.032-6.609l13.496,6.609L1423.395,400.586z"/>
		<polygon style="fill:#323244;" points="1413.929,440.902 1422.925,398.063 1435.928,402.442 1430.064,410.492 1425.53,412.034 
			1428.548,417.351 		"/>
		<polygon style="fill:#323244;" points="1413.93,440.903 1388.962,398.065 1377.482,401.859 1386.457,410.494 1391.566,412.035 
			1390.53,417.352 		"/>
		<path style="fill:#774320;" d="M1373.281,379.797c0,0-23.026-38.731,0.031-49.265c5.431-20.854,33.797-15.591,40.729-13.631
			c6.931,1.96,11.04-1.598,11.04-1.598c2.32,2.097,2.546,6.498,2.546,6.498l5.359-7.008c7.104,4.447,11.055,15.897,1.089,32.205
			L1373.281,379.797z"/>
		<path style="fill:#FF9E5C;" d="M1413.079,397.971c0,3.655-2.963,6.618-6.618,6.618h-1.654c-3.655,0-6.618-2.963-6.618-6.618
			v-11.227c0-3.655,2.963-6.618,6.618-6.618h1.654c3.655,0,6.618,2.963,6.618,6.618V397.971z"/>
		<path style="fill:#FFB37B;" d="M1410.362,329.013l-18.813,1.523c-12.212,0.989-21.273,12.146-20.239,24.921l0.445,5.501
			c0.005,0.06-0.041,0.109-0.099,0.105c-0.385-0.024-0.775-0.03-1.17,0.002l-0.22,0.018c-4.808,0.389-8.376,4.782-7.969,9.812
			l0.015,0.184c0.407,5.026,4.631,8.785,9.436,8.396l0.226-0.018c0.404-0.033,0.796-0.103,1.18-0.192
			c0.054-0.012,0.105,0.026,0.112,0.083c1.453,12.26,11.917,21.301,23.784,20.341l18.907-1.531
			c12.212-0.989,21.273-12.146,20.238-24.92l-1.853-22.884C1433.311,337.579,1422.573,328.024,1410.362,329.013z"/>
		<g>
			<path style="fill:#774320;" d="M1379.595,367.72c-0.881-10.884-4.263-24.396,4.729-32.573c4.554-4.141,9.917-4.557,15.616-5.018
				c4.641-0.376,9.277-0.836,13.924-1.127c5.014-0.314,4.393-8.311-0.654-8.072c-5.089,0.241-10.156,0.822-15.235,1.234
				c-7.25,0.587-13.823,2.146-19.341,7.48c-6.141,5.936-8.726,14.36-8.028,22.989c0.424,5.238,0.848,10.476,1.272,15.713
				C1372.301,373.549,1380.016,372.925,1379.595,367.72L1379.595,367.72z"/>
		</g>
		<path style="fill:#131516;" d="M1400.843,364.495c0.13,1.606-0.707,2.985-1.87,3.079c-1.163,0.094-2.211-1.132-2.341-2.738
			c-0.13-1.607,0.707-2.985,1.87-3.08C1399.664,361.663,1400.713,362.889,1400.843,364.495z"/>
		<path style="fill:#131516;" d="M1424.511,362.579c0.13,1.607-0.707,2.985-1.87,3.079s-2.211-1.132-2.341-2.738
			c-0.13-1.606,0.707-2.985,1.87-3.079C1423.333,359.746,1424.381,360.973,1424.511,362.579z"/>
		<g>
			<path style="fill:#774320;" d="M1426.631,352.003c-3.077-3.438-7.888-3.249-10.365,0.732c-0.561,0.901,0.861,1.727,1.419,0.83
				c1.936-3.11,5.428-3.031,7.783-0.399C1426.176,353.955,1427.335,352.79,1426.631,352.003L1426.631,352.003z"/>
		</g>
		<g>
			<path style="fill:#774320;" d="M1394.04,355.648c1.904-3.002,5.333-3.484,7.756-0.735c0.701,0.795,1.86-0.371,1.162-1.162
				c-3.13-3.551-7.89-2.791-10.338,1.068C1392.052,355.715,1393.474,356.54,1394.04,355.648L1394.04,355.648z"/>
		</g>
		<path style="fill:#774320;" d="M1432.086,322.44c0,0,1.346,12.225-23.044,14.199c-24.389,1.975-33.437,1.386-31.628,23.734
			c0,0-7.497-32.411,13.553-37.193C1412.017,318.398,1420.491,328.193,1432.086,322.44z"/>
		<path style="fill:#FFFFFF;" d="M1400.648,378.726c0.495,6.11,5.848,10.661,11.958,10.167c6.109-0.495,10.661-5.848,10.167-11.958
			L1400.648,378.726z"/>
		<g>
			<path style="fill:#E21717;" d="M1410.368,267.575c0-3.841,0-7.682,0-11.524c0-4.018-6.245-4.025-6.245,0
				c0,3.841,0,7.682,0,11.524C1404.123,271.594,1410.368,271.6,1410.368,267.575L1410.368,267.575z"/>
		</g>
		<g>
			<path style="fill:#E21717;" d="M1410.368,296.482c0-1.077,0-2.154,0-3.231c0-1.633-1.436-3.198-3.123-3.123
				c-1.692,0.076-3.123,1.372-3.123,3.123c0,1.077,0,2.154,0,3.231c0,1.633,1.436,3.198,3.123,3.123
				C1408.937,299.529,1410.368,298.233,1410.368,296.482L1410.368,296.482z"/>
		</g>
		<g>
			<path style="fill:#E21717;" d="M1508.296,312.433c4.019,0,4.025-6.245,0-6.245
				C1504.278,306.187,1504.271,312.433,1508.296,312.433L1508.296,312.433z"/>
		</g>
		<g>
			<path style="fill:#FFDD50;" d="M1490.801,329.928c4.018,0,4.025-6.245,0-6.245
				C1486.782,323.683,1486.775,329.928,1490.801,329.928L1490.801,329.928z"/>
		</g>
		<g>
			<path style="fill:#E21717;" d="M1482.987,339.035c3.34-3.341,6.681-6.681,10.021-10.022c2.846-2.846-1.569-7.263-4.416-4.416
				c-3.34,3.34-6.681,6.681-10.022,10.022C1475.725,337.465,1480.14,341.882,1482.987,339.035L1482.987,339.035z"/>
		</g>
		<g>
			<path style="fill:#E21717;" d="M1303.986,312.056c3.629,3.629,7.259,7.259,10.888,10.888c2.846,2.846,7.263-1.569,4.416-4.416
				c-3.629-3.629-7.259-7.259-10.888-10.888C1305.557,304.794,1301.139,309.209,1303.986,312.056L1303.986,312.056z"/>
		</g>
		<g>
			<path style="fill:#E21717;" d="M1543.896,415.822c3.042,0,6.085,0,9.127,0c4.019,0,4.025-6.245,0-6.245c-3.042,0-6.085,0-9.127,0
				C1539.878,409.577,1539.871,415.822,1543.896,415.822L1543.896,415.822z"/>
		</g>
		<g>
			<path style="fill:#E21717;" d="M1543.896,415.822c4.019,0,4.025-6.245,0-6.245
				C1539.878,409.577,1539.871,415.822,1543.896,415.822L1543.896,415.822z"/>
		</g>
		<g>
			<path style="fill:#FFDD50;" d="M1514.696,415.822c4.018,0,4.025-6.245,0-6.245
				C1510.678,409.577,1510.671,415.822,1514.696,415.822L1514.696,415.822z"/>
		</g>
		<g>
			<path style="fill:#E21717;" d="M1496.068,415.822c6.21,0,12.419,0,18.629,0c4.018,0,4.025-6.245,0-6.245
				c-6.21,0-12.419,0-18.629,0C1492.049,409.577,1492.042,415.822,1496.068,415.822L1496.068,415.822z"/>
		</g>
		<g>
			<path style="fill:#E21717;" d="M1462.16,470.569c5.47,5.47,10.94,10.94,16.411,16.411c2.846,2.846,7.263-1.569,4.416-4.416
				c-5.47-5.47-10.941-10.94-16.411-16.411C1463.731,463.307,1459.313,467.722,1462.16,470.569L1462.16,470.569z"/>
		</g>
		<g>
			<path style="fill:#E21717;" d="M1266.768,409.577c-5.443,0-10.887,0-16.33,0c-4.019,0-4.025,6.245,0,6.245
				c5.443,0,10.887,0,16.33,0C1270.786,415.822,1270.793,409.577,1266.768,409.577L1266.768,409.577z"/>
		</g>
		<g>
			<path style="fill:#E21717;" d="M1317.73,497.799c-4.581,4.581-9.162,9.163-13.744,13.744c-2.845,2.846,1.569,7.263,4.416,4.416
				c4.581-4.581,9.162-9.163,13.744-13.744C1324.992,499.369,1320.577,494.952,1317.73,497.799L1317.73,497.799z"/>
		</g>
		<g>
			<path style="fill:#E21717;" d="M1295.589,409.577c-1.28,0-2.56,0-3.84,0c-1.633,0-3.198,1.436-3.123,3.123
				c0.076,1.692,1.372,3.123,3.123,3.123c1.28,0,2.56,0,3.84,0c1.633,0,3.198-1.436,3.123-3.123
				C1298.635,411.007,1297.339,409.577,1295.589,409.577L1295.589,409.577z"/>
		</g>
	</g>
	<g>
		<path style="fill:#774320;" d="M112.784,367.451c7.206,5.952,17.052,5.448,23.442-1.451c0.872-0.942-0.536-2.357-1.412-1.412
			c-5.6,6.047-14.217,6.738-20.618,1.451C113.212,365.227,111.792,366.632,112.784,367.451L112.784,367.451z"/>
	</g>
	<g style="opacity:0.34;">
		<image style="overflow:visible;" width="703" height="287" xlink:href="EBAD2AE5.png"  transform="matrix(1 0 0 1 444.5 366)">
		</image>
	</g>
	<path style="fill:#FF0000;" d="M1115.365,596.072H584.866c-19.725,0-35.716-15.991-35.716-35.716l-25.857-134.895h524.133
		c23.988,0,43.435,19.446,43.435,43.435L1115.365,596.072z"/>
	<g>
		<path style="fill:#FFFFFF;" d="M744.474,525.709v-38.561h4.988v33.548h13.786v5.013H744.474z"/>
		<path style="fill:#FFFFFF;" d="M789.012,502.645v-1.735h5.013v24.824h-5.013v-3.109c-2.41,2.491-5.206,3.735-8.388,3.735
			c-3.792,0-7.025-1.337-9.7-4.013c-2.675-2.675-4.013-5.908-4.013-9.7s1.338-7.025,4.013-9.7c2.675-2.676,5.908-4.013,9.7-4.013
			C783.806,498.934,786.602,500.171,789.012,502.645z M789.012,514.479v-3.664c-0.29-1.558-1.061-2.972-2.314-4.241
			c-1.687-1.671-3.711-2.507-6.073-2.507c-2.378,0-4.406,0.836-6.085,2.507c-1.68,1.671-2.519,3.695-2.519,6.073
			c0,2.362,0.839,4.383,2.519,6.062c1.679,1.679,3.707,2.519,6.085,2.519c2.362,0,4.387-0.836,6.073-2.507
			C787.951,517.451,788.722,516.037,789.012,514.479z"/>
		<path style="fill:#FFFFFF;" d="M806.388,522.624v3.085h-4.988v-38.561h4.988v15.473c2.41-2.491,5.214-3.736,8.411-3.736
			c3.792,0,7.025,1.342,9.701,4.025c2.675,2.684,4.013,5.921,4.013,9.712c0,3.792-1.338,7.029-4.013,9.713
			c-2.676,2.684-5.909,4.024-9.701,4.024C811.602,526.359,808.798,525.115,806.388,522.624z M806.388,510.694v3.88
			c0.306,1.511,1.076,2.885,2.314,4.121c1.687,1.672,3.719,2.507,6.097,2.507s4.406-0.835,6.086-2.507
			c1.679-1.671,2.519-3.695,2.519-6.073c0-2.361-0.84-4.386-2.519-6.073c-1.68-1.687-3.708-2.53-6.086-2.53s-4.41,0.844-6.097,2.53
			C807.464,507.786,806.693,509.168,806.388,510.694z"/>
		<path style="fill:#FFFFFF;" d="M847.406,498.885c3.792,0,7.025,1.342,9.701,4.025c2.675,2.684,4.013,5.921,4.013,9.712
			c0,3.792-1.338,7.029-4.013,9.713c-2.676,2.684-5.909,4.024-9.701,4.024c-3.775,0-7.005-1.341-9.688-4.024
			c-2.684-2.684-4.025-5.921-4.025-9.713c0-3.791,1.342-7.028,4.025-9.712C840.401,500.227,843.631,498.885,847.406,498.885z
			 M841.321,506.549c-1.679,1.688-2.519,3.712-2.519,6.073c0,2.378,0.84,4.402,2.519,6.073c1.679,1.672,3.707,2.507,6.085,2.507
			s4.406-0.835,6.086-2.507c1.679-1.671,2.519-3.695,2.519-6.073c0-2.361-0.84-4.386-2.519-6.073c-1.68-1.687-3.708-2.53-6.086-2.53
			S843,504.862,841.321,506.549z"/>
		<path style="fill:#FFFFFF;" d="M871.893,504.26c1.864-2.522,4.153-3.848,6.869-3.977v5.182c-1.815,0.096-3.262,0.683-4.338,1.759
			c-1.623,1.607-2.467,3.519-2.531,5.736v12.749h-4.988v-24.8h4.988V504.26z"/>
		<path style="fill:#FFFFFF;" d="M905.104,502.645v-1.735h5.013v24.824h-5.013v-3.109c-2.41,2.491-5.206,3.735-8.388,3.735
			c-3.792,0-7.025-1.337-9.7-4.013c-2.675-2.675-4.013-5.908-4.013-9.7s1.338-7.025,4.013-9.7c2.675-2.676,5.908-4.013,9.7-4.013
			C899.898,498.934,902.694,500.171,905.104,502.645z M905.104,514.479v-3.664c-0.29-1.558-1.061-2.972-2.314-4.241
			c-1.687-1.671-3.711-2.507-6.073-2.507c-2.378,0-4.406,0.836-6.085,2.507c-1.68,1.671-2.519,3.695-2.519,6.073
			c0,2.362,0.839,4.383,2.519,6.062c1.679,1.679,3.707,2.519,6.085,2.519c2.362,0,4.387-0.836,6.073-2.507
			C904.044,517.451,904.814,516.037,905.104,514.479z"/>
		<path style="fill:#FFFFFF;" d="M920.505,500.909v-9.303h4.988v9.303h4.459v4.989h-4.459v19.811h-4.988v-19.811h-4.459v-4.989
			H920.505z"/>
		<path style="fill:#FFFFFF;" d="M948.026,498.885c3.792,0,7.025,1.342,9.701,4.025c2.675,2.684,4.013,5.921,4.013,9.712
			c0,3.792-1.338,7.029-4.013,9.713c-2.676,2.684-5.909,4.024-9.701,4.024c-3.775,0-7.005-1.341-9.688-4.024
			c-2.684-2.684-4.025-5.921-4.025-9.713c0-3.791,1.342-7.028,4.025-9.712C941.021,500.227,944.251,498.885,948.026,498.885z
			 M941.941,506.549c-1.679,1.688-2.519,3.712-2.519,6.073c0,2.378,0.84,4.402,2.519,6.073c1.679,1.672,3.707,2.507,6.085,2.507
			s4.406-0.835,6.086-2.507c1.679-1.671,2.519-3.695,2.519-6.073c0-2.361-0.84-4.386-2.519-6.073c-1.68-1.687-3.708-2.53-6.086-2.53
			S943.62,504.862,941.941,506.549z"/>
		<path style="fill:#FFFFFF;" d="M972.513,504.26c1.864-2.522,4.153-3.848,6.869-3.977v5.182c-1.815,0.096-3.262,0.683-4.338,1.759
			c-1.623,1.607-2.467,3.519-2.531,5.736v12.749h-4.988v-24.8h4.988V504.26z"/>
		<path style="fill:#FFFFFF;" d="M990.082,491.728c0.69,0.675,1.036,1.502,1.036,2.482c0,0.979-0.346,1.807-1.036,2.481
			s-1.519,1.013-2.482,1.013c-0.948,0-1.768-0.338-2.458-1.013c-0.691-0.675-1.036-1.502-1.036-2.481
			c0-0.98,0.345-1.808,1.036-2.482c0.69-0.675,1.51-1.013,2.458-1.013C988.563,490.715,989.392,491.053,990.082,491.728z
			 M990.106,500.909v24.8h-4.989v-24.8H990.106z"/>
		<path style="fill:#FFFFFF;" d="M1010.014,498.885c3.792,0,7.025,1.342,9.701,4.025c2.675,2.684,4.013,5.921,4.013,9.712
			c0,3.792-1.338,7.029-4.013,9.713c-2.676,2.684-5.909,4.024-9.701,4.024c-3.775,0-7.005-1.341-9.688-4.024
			c-2.684-2.684-4.025-5.921-4.025-9.713c0-3.791,1.342-7.028,4.025-9.712C1003.009,500.227,1006.238,498.885,1010.014,498.885z
			 M1003.929,506.549c-1.679,1.688-2.519,3.712-2.519,6.073c0,2.378,0.84,4.402,2.519,6.073c1.679,1.672,3.707,2.507,6.085,2.507
			s4.406-0.835,6.086-2.507c1.679-1.671,2.519-3.695,2.519-6.073c0-2.361-0.84-4.386-2.519-6.073c-1.68-1.687-3.708-2.53-6.086-2.53
			S1005.607,504.862,1003.929,506.549z"/>
	</g>
	<circle style="fill:#FFFFFF;" cx="592.479" cy="506.349" r="107.349"/>
	<g>
		<path style="fill:#FF0000;" d="M588.945,503.631l-8.032-0.192v-13.173c5.826-0.086,9.66-0.482,11.502-1.189
			c1.841-0.706,3.855-2.217,6.04-4.53c2.185-2.313,3.277-4.969,3.277-7.968c0-2.956-1.028-5.451-3.084-7.486
			c-2.056-2.034-4.563-3.052-7.518-3.052c-2.914,0-5.398,1.007-7.454,3.02c-1.157,1.2-2.485,3.813-3.984,7.84l-12.402-4.884
			c1.841-5.783,4.09-9.938,6.747-12.466c4.755-4.712,10.452-7.068,17.093-7.068c6.768,0,12.508,2.378,17.221,7.133
			c4.712,4.755,7.068,10.409,7.068,16.964c0,6.683-3.963,13.131-11.888,19.342c3.812,0.257,7.817,2.421,12.016,6.49
			c6.126,6.598,9.189,14.309,9.189,23.133c0,8.911-3.139,16.525-9.414,22.844c-6.276,6.319-13.891,9.479-22.844,9.479
			c-8.868,0-16.45-3.17-22.748-9.51c-5.012-5.055-8.204-12.059-9.574-21.013l13.301-4.819c0.771,7.711,2.72,13.131,5.848,16.257
			c3.684,3.642,8.075,5.462,13.173,5.462c5.183,0,9.607-1.82,13.27-5.462c3.663-3.641,5.494-8.053,5.494-13.237
			c0-5.226-1.832-9.831-5.494-13.815S596.485,505.045,588.945,503.631z"/>
	</g>
	<g>
		<path style="fill:#FFFFFF;" d="M28.844,643.405h2.953l10.313,17.844v-17.844h3.25v25h-2.828l-10.453-18.063v18.063h-3.234V643.405
			z"/>
		<path style="fill:#FFFFFF;" d="M55.047,664.765c0.542,0.479,1.526,0.719,2.953,0.719c1.542,0,2.859-0.541,3.953-1.625
			c0.135-0.146,0.411-0.469,0.828-0.969l3.234,1.156c-0.792,1.094-1.365,1.818-1.719,2.172c-1.74,1.74-3.839,2.609-6.297,2.609
			c-2.448,0-4.542-0.869-6.281-2.609c-1.74-1.739-2.609-3.838-2.609-6.297c0-2.458,0.87-4.557,2.609-6.297
			c1.739-1.739,3.833-2.609,6.281-2.609c2.104,0,3.948,0.636,5.531,1.906c0.26,0.219,0.516,0.453,0.766,0.703
			c0.104,0.104,0.401,0.433,0.891,0.984l-1.625,1.641L55.047,664.765z M60.453,654.765c-0.365-0.281-1.183-0.422-2.453-0.422
			c-1.531,0-2.841,0.545-3.93,1.633c-1.089,1.089-1.633,2.404-1.633,3.945c0,1.261,0.141,2.078,0.422,2.453L60.453,654.765z"/>
		<path style="fill:#FFFFFF;" d="M82.5,662.89l3.234,1.156c-0.792,1.094-1.365,1.818-1.719,2.172
			c-1.74,1.74-3.839,2.609-6.297,2.609c-2.448,0-4.542-0.869-6.281-2.609c-1.74-1.739-2.609-3.838-2.609-6.297
			c0-2.458,0.87-4.557,2.609-6.297c1.739-1.739,3.833-2.609,6.281-2.609c2.458,0,4.557,0.87,6.297,2.609
			c0.354,0.354,0.927,1.068,1.719,2.141l-3.234,1.188c-0.417-0.51-0.698-0.838-0.844-0.984c-1.083-1.083-2.396-1.625-3.938-1.625
			c-1.531,0-2.841,0.545-3.93,1.633c-1.089,1.089-1.633,2.404-1.633,3.945c0,1.531,0.544,2.842,1.633,3.93
			c1.088,1.089,2.398,1.633,3.93,1.633c1.542,0,2.859-0.541,3.953-1.625C81.807,663.713,82.083,663.39,82.5,662.89z"/>
		<path style="fill:#FFFFFF;" d="M94.484,664.765c0.542,0.479,1.526,0.719,2.953,0.719c1.542,0,2.859-0.541,3.953-1.625
			c0.135-0.146,0.411-0.469,0.828-0.969l3.234,1.156c-0.792,1.094-1.365,1.818-1.719,2.172c-1.74,1.74-3.839,2.609-6.297,2.609
			c-2.448,0-4.542-0.869-6.281-2.609c-1.74-1.739-2.609-3.838-2.609-6.297c0-2.458,0.87-4.557,2.609-6.297
			c1.739-1.739,3.833-2.609,6.281-2.609c2.104,0,3.948,0.636,5.531,1.906c0.26,0.219,0.516,0.453,0.766,0.703
			c0.104,0.104,0.401,0.433,0.891,0.984L103,656.249L94.484,664.765z M99.891,654.765c-0.365-0.281-1.183-0.422-2.453-0.422
			c-1.531,0-2.841,0.545-3.93,1.633c-1.089,1.089-1.633,2.404-1.633,3.945c0,1.261,0.141,2.078,0.422,2.453L99.891,654.765z"/>
		<path style="fill:#FFFFFF;" d="M112.453,664.952c0.385,0.375,0.844,0.563,1.375,0.563s0.987-0.188,1.367-0.563
			c0.38-0.375,0.57-0.838,0.57-1.391c0-0.531-0.188-0.984-0.563-1.359c-0.261-0.26-0.818-0.661-1.672-1.203
			c-1.167-0.635-1.995-1.197-2.484-1.688c-0.854-0.854-1.281-1.88-1.281-3.078c0-1.208,0.427-2.242,1.281-3.102
			c0.854-0.859,1.885-1.289,3.094-1.289c1.208,0,2.213,0.406,3.016,1.219c0.573,0.573,0.938,1.214,1.094,1.922l-3.141,0.906
			c-0.073-0.26-0.146-0.432-0.219-0.516c-0.188-0.188-0.438-0.281-0.75-0.281s-0.581,0.112-0.805,0.336
			c-0.224,0.225-0.336,0.492-0.336,0.805s0.109,0.578,0.328,0.797c0.198,0.188,0.646,0.506,1.344,0.953
			c1.292,0.709,2.229,1.354,2.813,1.938c1.01,1.021,1.516,2.234,1.516,3.641c0,1.438-0.503,2.664-1.508,3.68
			c-1.005,1.016-2.227,1.523-3.664,1.523c-1.427,0-2.646-0.51-3.656-1.531c-0.698-0.697-1.156-1.567-1.375-2.609l3.219-0.688
			C112.109,664.416,112.255,664.755,112.453,664.952z"/>
		<path style="fill:#FFFFFF;" d="M126.469,646.374c0.448,0.438,0.672,0.975,0.672,1.609c0,0.636-0.224,1.172-0.672,1.609
			c-0.448,0.438-0.984,0.656-1.609,0.656c-0.615,0-1.146-0.219-1.594-0.656c-0.448-0.438-0.672-0.974-0.672-1.609
			c0-0.635,0.224-1.172,0.672-1.609c0.448-0.438,0.979-0.656,1.594-0.656C125.484,645.718,126.021,645.937,126.469,646.374z
			 M126.484,652.327v16.078h-3.234v-16.078H126.484z"/>
		<path style="fill:#FFFFFF;" d="M145.391,653.437v-10.031h3.25v25h-3.25v-2c-1.563,1.615-3.38,2.422-5.453,2.422
			c-2.458,0-4.555-0.869-6.289-2.609c-1.734-1.739-2.602-3.838-2.602-6.297c0-2.458,0.867-4.557,2.602-6.297
			c1.734-1.739,3.831-2.609,6.289-2.609C142.01,651.015,143.828,651.822,145.391,653.437z M145.391,661.124v-2.391
			c-0.188-1.01-0.693-1.927-1.516-2.75c-1.083-1.094-2.396-1.641-3.938-1.641c-1.542,0-2.857,0.547-3.945,1.641
			c-1.089,1.094-1.633,2.406-1.633,3.938c0,1.542,0.544,2.854,1.633,3.938c1.088,1.084,2.403,1.625,3.945,1.625
			c1.542,0,2.854-0.541,3.938-1.625C144.698,663.036,145.203,662.124,145.391,661.124z"/>
		<path style="fill:#FFFFFF;" d="M167.266,653.452v-1.125h3.25v16.094h-3.25v-2.016c-1.563,1.615-3.375,2.422-5.438,2.422
			c-2.458,0-4.555-0.867-6.289-2.602s-2.602-3.83-2.602-6.289c0-2.458,0.867-4.555,2.602-6.289s3.831-2.602,6.289-2.602
			C163.891,651.046,165.703,651.849,167.266,653.452z M167.266,661.124v-2.375c-0.188-1.01-0.688-1.927-1.5-2.75
			c-1.094-1.083-2.406-1.625-3.938-1.625c-1.542,0-2.857,0.542-3.945,1.625c-1.089,1.084-1.633,2.396-1.633,3.938
			c0,1.531,0.544,2.842,1.633,3.93c1.088,1.089,2.403,1.633,3.945,1.633c1.531,0,2.844-0.541,3.938-1.625
			C166.578,663.052,167.078,662.135,167.266,661.124z"/>
		<path style="fill:#FFFFFF;" d="M189.172,653.437v-10.031h3.25v25h-3.25v-2c-1.563,1.615-3.38,2.422-5.453,2.422
			c-2.458,0-4.555-0.869-6.289-2.609c-1.734-1.739-2.602-3.838-2.602-6.297c0-2.458,0.867-4.557,2.602-6.297
			c1.734-1.739,3.831-2.609,6.289-2.609C185.792,651.015,187.609,651.822,189.172,653.437z M189.172,661.124v-2.391
			c-0.188-1.01-0.693-1.927-1.516-2.75c-1.083-1.094-2.396-1.641-3.938-1.641c-1.542,0-2.857,0.547-3.945,1.641
			c-1.089,1.094-1.633,2.406-1.633,3.938c0,1.542,0.544,2.854,1.633,3.938c1.088,1.084,2.403,1.625,3.945,1.625
			c1.542,0,2.854-0.541,3.938-1.625C188.479,663.036,188.984,662.124,189.172,661.124z"/>
		<path style="fill:#FFFFFF;" d="M202.109,664.765c0.542,0.479,1.526,0.719,2.953,0.719c1.542,0,2.859-0.541,3.953-1.625
			c0.135-0.146,0.411-0.469,0.828-0.969l3.234,1.156c-0.792,1.094-1.365,1.818-1.719,2.172c-1.74,1.74-3.839,2.609-6.297,2.609
			c-2.448,0-4.542-0.869-6.281-2.609c-1.74-1.739-2.609-3.838-2.609-6.297c0-2.458,0.87-4.557,2.609-6.297
			c1.739-1.739,3.833-2.609,6.281-2.609c2.104,0,3.948,0.636,5.531,1.906c0.26,0.219,0.516,0.453,0.766,0.703
			c0.104,0.104,0.401,0.433,0.891,0.984l-1.625,1.641L202.109,664.765z M207.516,654.765c-0.365-0.281-1.183-0.422-2.453-0.422
			c-1.531,0-2.841,0.545-3.93,1.633c-1.089,1.089-1.633,2.404-1.633,3.945c0,1.261,0.141,2.078,0.422,2.453L207.516,654.765z"/>
		<path style="fill:#FFFFFF;" d="M220.078,664.952c0.385,0.375,0.844,0.563,1.375,0.563s0.987-0.188,1.367-0.563
			c0.38-0.375,0.57-0.838,0.57-1.391c0-0.531-0.188-0.984-0.563-1.359c-0.261-0.26-0.818-0.661-1.672-1.203
			c-1.167-0.635-1.995-1.197-2.484-1.688c-0.854-0.854-1.281-1.88-1.281-3.078c0-1.208,0.427-2.242,1.281-3.102
			c0.854-0.859,1.885-1.289,3.094-1.289c1.208,0,2.213,0.406,3.016,1.219c0.573,0.573,0.938,1.214,1.094,1.922l-3.141,0.906
			c-0.073-0.26-0.146-0.432-0.219-0.516c-0.188-0.188-0.438-0.281-0.75-0.281s-0.581,0.112-0.805,0.336
			c-0.224,0.225-0.336,0.492-0.336,0.805s0.109,0.578,0.328,0.797c0.198,0.188,0.646,0.506,1.344,0.953
			c1.292,0.709,2.229,1.354,2.813,1.938c1.01,1.021,1.516,2.234,1.516,3.641c0,1.438-0.503,2.664-1.508,3.68
			c-1.005,1.016-2.227,1.523-3.664,1.523c-1.427,0-2.646-0.51-3.656-1.531c-0.698-0.697-1.156-1.567-1.375-2.609l3.219-0.688
			C219.734,664.416,219.88,664.755,220.078,664.952z"/>
		<path style="fill:#FFFFFF;" d="M255.625,653.437v-10.031h3.25v25h-3.25v-2c-1.563,1.615-3.38,2.422-5.453,2.422
			c-2.458,0-4.555-0.869-6.289-2.609c-1.734-1.739-2.602-3.838-2.602-6.297c0-2.458,0.867-4.557,2.602-6.297
			c1.734-1.739,3.831-2.609,6.289-2.609C252.245,651.015,254.063,651.822,255.625,653.437z M255.625,661.124v-2.391
			c-0.188-1.01-0.693-1.927-1.516-2.75c-1.083-1.094-2.396-1.641-3.938-1.641c-1.542,0-2.857,0.547-3.945,1.641
			c-1.089,1.094-1.633,2.406-1.633,3.938c0,1.542,0.544,2.854,1.633,3.938c1.088,1.084,2.403,1.625,3.945,1.625
			c1.542,0,2.854-0.541,3.938-1.625C254.932,663.036,255.438,662.124,255.625,661.124z"/>
		<path style="fill:#FFFFFF;" d="M268.563,664.765c0.542,0.479,1.526,0.719,2.953,0.719c1.542,0,2.859-0.541,3.953-1.625
			c0.135-0.146,0.411-0.469,0.828-0.969l3.234,1.156c-0.792,1.094-1.365,1.818-1.719,2.172c-1.74,1.74-3.839,2.609-6.297,2.609
			c-2.448,0-4.542-0.869-6.281-2.609c-1.74-1.739-2.609-3.838-2.609-6.297c0-2.458,0.87-4.557,2.609-6.297
			c1.739-1.739,3.833-2.609,6.281-2.609c2.104,0,3.948,0.636,5.531,1.906c0.26,0.219,0.516,0.453,0.766,0.703
			c0.104,0.104,0.401,0.433,0.891,0.984l-1.625,1.641L268.563,664.765z M273.969,654.765c-0.365-0.281-1.183-0.422-2.453-0.422
			c-1.531,0-2.841,0.545-3.93,1.633c-1.089,1.089-1.633,2.404-1.633,3.945c0,1.261,0.141,2.078,0.422,2.453L273.969,654.765z"/>
		<path style="fill:#FFFFFF;" d="M297.594,643.39v25.016h-3.25V643.39H297.594z"/>
		<path style="fill:#FFFFFF;" d="M316.219,653.452v-1.125h3.25v16.094h-3.25v-2.016c-1.563,1.615-3.375,2.422-5.438,2.422
			c-2.458,0-4.555-0.867-6.289-2.602s-2.602-3.83-2.602-6.289c0-2.458,0.867-4.555,2.602-6.289s3.831-2.602,6.289-2.602
			C312.844,651.046,314.656,651.849,316.219,653.452z M316.219,661.124v-2.375c-0.188-1.01-0.688-1.927-1.5-2.75
			c-1.094-1.083-2.406-1.625-3.938-1.625c-1.542,0-2.857,0.542-3.945,1.625c-1.089,1.084-1.633,2.396-1.633,3.938
			c0,1.531,0.544,2.842,1.633,3.93c1.088,1.089,2.403,1.633,3.945,1.633c1.531,0,2.844-0.541,3.938-1.625
			C315.531,663.052,316.031,662.135,316.219,661.124z"/>
		<path style="fill:#FFFFFF;" d="M327.422,664.952c0.385,0.375,0.844,0.563,1.375,0.563s0.987-0.188,1.367-0.563
			c0.38-0.375,0.57-0.838,0.57-1.391c0-0.531-0.188-0.984-0.563-1.359c-0.261-0.26-0.818-0.661-1.672-1.203
			c-1.167-0.635-1.995-1.197-2.484-1.688c-0.854-0.854-1.281-1.88-1.281-3.078c0-1.208,0.427-2.242,1.281-3.102
			c0.854-0.859,1.885-1.289,3.094-1.289c1.208,0,2.213,0.406,3.016,1.219c0.573,0.573,0.938,1.214,1.094,1.922l-3.141,0.906
			c-0.073-0.26-0.146-0.432-0.219-0.516c-0.188-0.188-0.438-0.281-0.75-0.281s-0.581,0.112-0.805,0.336
			c-0.224,0.225-0.336,0.492-0.336,0.805s0.109,0.578,0.328,0.797c0.198,0.188,0.646,0.506,1.344,0.953
			c1.292,0.709,2.229,1.354,2.813,1.938c1.01,1.021,1.516,2.234,1.516,3.641c0,1.438-0.503,2.664-1.508,3.68
			c-1.005,1.016-2.227,1.523-3.664,1.523c-1.427,0-2.646-0.51-3.656-1.531c-0.698-0.697-1.156-1.567-1.375-2.609l3.219-0.688
			C327.078,664.416,327.224,664.755,327.422,664.952z"/>
		<path style="fill:#FFFFFF;" d="M32.078,704.806v7.406h-3.234v-21.484h3.234v1.453c1.563-1.833,3.38-2.75,5.453-2.75
			c2.458,0,4.555,0.867,6.289,2.602s2.602,3.831,2.602,6.289c0,2.459-0.867,4.558-2.602,6.297c-1.734,1.74-3.831,2.609-6.289,2.609
			C35.458,707.228,33.641,706.421,32.078,704.806z M32.078,697.071v2.516c0.198,0.99,0.703,1.886,1.516,2.688
			c1.083,1.084,2.396,1.625,3.938,1.625c1.542,0,2.856-0.544,3.945-1.633c1.088-1.088,1.633-2.403,1.633-3.945
			c0-1.531-0.544-2.844-1.633-3.938c-1.089-1.094-2.404-1.641-3.945-1.641c-1.542,0-2.854,0.547-3.938,1.641
			C32.781,695.187,32.276,696.082,32.078,697.071z"/>
		<path style="fill:#FFFFFF;" d="M64.266,691.853v-1.125h3.25v16.094h-3.25v-2.016c-1.563,1.615-3.375,2.422-5.438,2.422
			c-2.458,0-4.555-0.867-6.289-2.602s-2.602-3.83-2.602-6.289c0-2.458,0.867-4.555,2.602-6.289s3.831-2.602,6.289-2.602
			C60.891,689.446,62.703,690.249,64.266,691.853z M64.266,699.524v-2.375c-0.188-1.01-0.688-1.927-1.5-2.75
			c-1.094-1.083-2.406-1.625-3.938-1.625c-1.542,0-2.857,0.542-3.945,1.625c-1.089,1.084-1.633,2.396-1.633,3.938
			c0,1.531,0.544,2.842,1.633,3.93c1.088,1.089,2.403,1.633,3.945,1.633c1.531,0,2.844-0.541,3.938-1.625
			C63.578,701.452,64.078,700.535,64.266,699.524z"/>
		<path style="fill:#FFFFFF;" d="M75.453,692.899c1.208-1.635,2.692-2.494,4.453-2.578v3.359c-1.177,0.063-2.115,0.443-2.813,1.141
			c-1.052,1.042-1.599,2.281-1.641,3.719v8.266h-3.234v-16.078h3.234V692.899z"/>
		<path style="fill:#FFFFFF;" d="M85.625,690.728v-6.031h3.234v6.031h2.891v3.234h-2.891v12.844h-3.234v-12.844h-2.891v-3.234
			H85.625z"/>
		<path style="fill:#FFFFFF;" d="M100.516,703.165c0.542,0.479,1.526,0.719,2.953,0.719c1.542,0,2.859-0.541,3.953-1.625
			c0.135-0.146,0.411-0.469,0.828-0.969l3.234,1.156c-0.792,1.094-1.365,1.818-1.719,2.172c-1.74,1.74-3.839,2.609-6.297,2.609
			c-2.448,0-4.542-0.869-6.281-2.609c-1.74-1.739-2.609-3.838-2.609-6.297c0-2.458,0.87-4.557,2.609-6.297
			c1.739-1.739,3.833-2.609,6.281-2.609c2.104,0,3.948,0.636,5.531,1.906c0.26,0.219,0.516,0.453,0.766,0.703
			c0.104,0.104,0.401,0.433,0.891,0.984l-1.625,1.641L100.516,703.165z M105.922,693.165c-0.365-0.281-1.183-0.422-2.453-0.422
			c-1.531,0-2.841,0.545-3.93,1.633c-1.089,1.089-1.633,2.404-1.633,3.945c0,1.261,0.141,2.078,0.422,2.453L105.922,693.165z"/>
		<path style="fill:#FFFFFF;" d="M118.484,703.353c0.385,0.375,0.844,0.563,1.375,0.563s0.987-0.188,1.367-0.563
			c0.38-0.375,0.57-0.838,0.57-1.391c0-0.531-0.188-0.984-0.563-1.359c-0.261-0.26-0.818-0.661-1.672-1.203
			c-1.167-0.635-1.995-1.197-2.484-1.688c-0.854-0.854-1.281-1.88-1.281-3.078c0-1.208,0.427-2.242,1.281-3.102
			c0.854-0.859,1.885-1.289,3.094-1.289c1.208,0,2.213,0.406,3.016,1.219c0.573,0.573,0.938,1.214,1.094,1.922l-3.141,0.906
			c-0.073-0.26-0.146-0.432-0.219-0.516c-0.188-0.188-0.438-0.281-0.75-0.281s-0.581,0.112-0.805,0.336
			c-0.224,0.225-0.336,0.492-0.336,0.805s0.109,0.578,0.328,0.797c0.198,0.188,0.646,0.506,1.344,0.953
			c1.292,0.709,2.229,1.354,2.813,1.938c1.01,1.021,1.516,2.234,1.516,3.641c0,1.438-0.503,2.664-1.508,3.68
			c-1.005,1.016-2.227,1.523-3.664,1.523c-1.427,0-2.646-0.51-3.656-1.531c-0.698-0.697-1.156-1.567-1.375-2.609l3.219-0.688
			C118.141,702.816,118.286,703.155,118.484,703.353z"/>
		<path style="fill:#FFFFFF;" d="M143.563,684.774c0.448,0.438,0.672,0.975,0.672,1.609c0,0.636-0.224,1.172-0.672,1.609
			c-0.448,0.438-0.984,0.656-1.609,0.656c-0.615,0-1.146-0.219-1.594-0.656c-0.448-0.438-0.672-0.974-0.672-1.609
			c0-0.635,0.224-1.172,0.672-1.609c0.448-0.438,0.979-0.656,1.594-0.656C142.578,684.118,143.114,684.337,143.563,684.774z
			 M143.578,690.728v16.078h-3.234v-16.078H143.578z"/>
		<path style="fill:#FFFFFF;" d="M151.781,695.04v11.766h-3.25v-16.078h3.25v1.875c0.677-1.833,2.036-2.75,4.078-2.75
			c1.739,0,3.122,0.617,4.148,1.852c1.026,1.234,1.555,2.784,1.586,4.648v10.453h-3.234v-10.328c0-0.927-0.339-1.721-1.016-2.383
			c-0.677-0.661-1.484-0.992-2.422-0.992c-0.927,0-1.729,0.323-2.406,0.969C152.141,694.457,151.896,694.78,151.781,695.04z"/>
		<path style="fill:#FFFFFF;" d="M168.281,690.728v-6.031h3.234v6.031h2.891v3.234h-2.891v12.844h-3.234v-12.844h-2.891v-3.234
			H168.281z"/>
		<path style="fill:#FFFFFF;" d="M183.172,703.165c0.542,0.479,1.526,0.719,2.953,0.719c1.542,0,2.859-0.541,3.953-1.625
			c0.135-0.146,0.411-0.469,0.828-0.969l3.234,1.156c-0.792,1.094-1.365,1.818-1.719,2.172c-1.74,1.74-3.839,2.609-6.297,2.609
			c-2.448,0-4.542-0.869-6.281-2.609c-1.74-1.739-2.609-3.838-2.609-6.297c0-2.458,0.87-4.557,2.609-6.297
			c1.739-1.739,3.833-2.609,6.281-2.609c2.104,0,3.948,0.636,5.531,1.906c0.26,0.219,0.516,0.453,0.766,0.703
			c0.104,0.104,0.401,0.433,0.891,0.984l-1.625,1.641L183.172,703.165z M188.578,693.165c-0.365-0.281-1.183-0.422-2.453-0.422
			c-1.531,0-2.841,0.545-3.93,1.633c-1.089,1.089-1.633,2.404-1.633,3.945c0,1.261,0.141,2.078,0.422,2.453L188.578,693.165z"/>
		<path style="fill:#FFFFFF;" d="M201.125,692.899c1.208-1.635,2.692-2.494,4.453-2.578v3.359c-1.177,0.063-2.115,0.443-2.813,1.141
			c-1.052,1.042-1.599,2.281-1.641,3.719v8.266h-3.234v-16.078h3.234V692.899z"/>
		<path style="fill:#FFFFFF;" d="M213.656,703.165c0.542,0.479,1.526,0.719,2.953,0.719c1.542,0,2.859-0.541,3.953-1.625
			c0.135-0.146,0.411-0.469,0.828-0.969l3.234,1.156c-0.792,1.094-1.365,1.818-1.719,2.172c-1.74,1.74-3.839,2.609-6.297,2.609
			c-2.448,0-4.542-0.869-6.281-2.609c-1.74-1.739-2.609-3.838-2.609-6.297c0-2.458,0.87-4.557,2.609-6.297
			c1.739-1.739,3.833-2.609,6.281-2.609c2.104,0,3.948,0.636,5.531,1.906c0.26,0.219,0.516,0.453,0.766,0.703
			c0.104,0.104,0.401,0.433,0.891,0.984l-1.625,1.641L213.656,703.165z M219.063,693.165c-0.365-0.281-1.183-0.422-2.453-0.422
			c-1.531,0-2.841,0.545-3.93,1.633c-1.089,1.089-1.633,2.404-1.633,3.945c0,1.261,0.141,2.078,0.422,2.453L219.063,693.165z"/>
		<path style="fill:#FFFFFF;" d="M231.625,703.353c0.385,0.375,0.844,0.563,1.375,0.563s0.987-0.188,1.367-0.563
			c0.38-0.375,0.57-0.838,0.57-1.391c0-0.531-0.188-0.984-0.563-1.359c-0.261-0.26-0.818-0.661-1.672-1.203
			c-1.167-0.635-1.995-1.197-2.484-1.688c-0.854-0.854-1.281-1.88-1.281-3.078c0-1.208,0.427-2.242,1.281-3.102
			c0.854-0.859,1.885-1.289,3.094-1.289c1.208,0,2.213,0.406,3.016,1.219c0.573,0.573,0.938,1.214,1.094,1.922l-3.141,0.906
			c-0.073-0.26-0.146-0.432-0.219-0.516c-0.188-0.188-0.438-0.281-0.75-0.281s-0.581,0.112-0.805,0.336
			c-0.224,0.225-0.336,0.492-0.336,0.805s0.109,0.578,0.328,0.797c0.198,0.188,0.646,0.506,1.344,0.953
			c1.292,0.709,2.229,1.354,2.813,1.938c1.01,1.021,1.516,2.234,1.516,3.641c0,1.438-0.503,2.664-1.508,3.68
			c-1.005,1.016-2.227,1.523-3.664,1.523c-1.427,0-2.646-0.51-3.656-1.531c-0.698-0.697-1.156-1.567-1.375-2.609l3.219-0.688
			C231.281,702.816,231.427,703.155,231.625,703.353z"/>
		<path style="fill:#FFFFFF;" d="M256.094,691.853v-1.125h3.25v16.094h-3.25v-2.016c-1.563,1.615-3.375,2.422-5.438,2.422
			c-2.458,0-4.555-0.867-6.289-2.602s-2.602-3.83-2.602-6.289c0-2.458,0.867-4.555,2.602-6.289s3.831-2.602,6.289-2.602
			C252.719,689.446,254.531,690.249,256.094,691.853z M256.094,699.524v-2.375c-0.188-1.01-0.688-1.927-1.5-2.75
			c-1.094-1.083-2.406-1.625-3.938-1.625c-1.542,0-2.857,0.542-3.945,1.625c-1.089,1.084-1.633,2.396-1.633,3.938
			c0,1.531,0.544,2.842,1.633,3.93c1.088,1.089,2.403,1.633,3.945,1.633c1.531,0,2.844-0.541,3.938-1.625
			C255.406,701.452,255.906,700.535,256.094,699.524z"/>
		<path style="fill:#FFFFFF;" d="M278,691.837v-10.031h3.25v25H278v-2c-1.563,1.615-3.38,2.422-5.453,2.422
			c-2.458,0-4.555-0.869-6.289-2.609c-1.734-1.739-2.602-3.838-2.602-6.297c0-2.458,0.867-4.557,2.602-6.297
			c1.734-1.739,3.831-2.609,6.289-2.609C274.62,689.415,276.438,690.223,278,691.837z M278,699.524v-2.391
			c-0.188-1.01-0.693-1.927-1.516-2.75c-1.083-1.094-2.396-1.641-3.938-1.641c-1.542,0-2.857,0.547-3.945,1.641
			c-1.089,1.094-1.633,2.406-1.633,3.938c0,1.542,0.544,2.854,1.633,3.938c1.088,1.084,2.403,1.625,3.945,1.625
			c1.542,0,2.854-0.541,3.938-1.625C277.307,701.437,277.813,700.524,278,699.524z"/>
		<path style="fill:#FFFFFF;" d="M299.875,691.853v-1.125h3.25v16.094h-3.25v-2.016c-1.563,1.615-3.375,2.422-5.438,2.422
			c-2.458,0-4.555-0.867-6.289-2.602s-2.602-3.83-2.602-6.289c0-2.458,0.867-4.555,2.602-6.289s3.831-2.602,6.289-2.602
			C296.5,689.446,298.313,690.249,299.875,691.853z M299.875,699.524v-2.375c-0.188-1.01-0.688-1.927-1.5-2.75
			c-1.094-1.083-2.406-1.625-3.938-1.625c-1.542,0-2.857,0.542-3.945,1.625c-1.089,1.084-1.633,2.396-1.633,3.938
			c0,1.531,0.544,2.842,1.633,3.93c1.088,1.089,2.403,1.633,3.945,1.633c1.531,0,2.844-0.541,3.938-1.625
			C299.188,701.452,299.688,700.535,299.875,699.524z"/>
		<path style="fill:#FFFFFF;" d="M311.078,703.353c0.385,0.375,0.844,0.563,1.375,0.563s0.987-0.188,1.367-0.563
			c0.38-0.375,0.57-0.838,0.57-1.391c0-0.531-0.188-0.984-0.563-1.359c-0.261-0.26-0.818-0.661-1.672-1.203
			c-1.167-0.635-1.995-1.197-2.484-1.688c-0.854-0.854-1.281-1.88-1.281-3.078c0-1.208,0.427-2.242,1.281-3.102
			c0.854-0.859,1.885-1.289,3.094-1.289c1.208,0,2.213,0.406,3.016,1.219c0.573,0.573,0.938,1.214,1.094,1.922l-3.141,0.906
			c-0.073-0.26-0.146-0.432-0.219-0.516c-0.188-0.188-0.438-0.281-0.75-0.281s-0.581,0.112-0.805,0.336
			c-0.224,0.225-0.336,0.492-0.336,0.805s0.109,0.578,0.328,0.797c0.198,0.188,0.646,0.506,1.344,0.953
			c1.292,0.709,2.229,1.354,2.813,1.938c1.01,1.021,1.516,2.234,1.516,3.641c0,1.438-0.503,2.664-1.508,3.68
			c-1.005,1.016-2.227,1.523-3.664,1.523c-1.427,0-2.646-0.51-3.656-1.531c-0.698-0.697-1.156-1.567-1.375-2.609l3.219-0.688
			C310.734,702.816,310.88,703.155,311.078,703.353z"/>
	</g>
</g>
<g id="Layer_3">
	<g>
		<path style="fill:#444444;" d="M1123.414,38.594l12.216,21.113l12.169-21.113h4.449v37.66h-4.873V49.044l-11.745,20.336
			l-11.792-20.336v27.209h-4.873v-37.66H1123.414z"/>
		<path style="fill:#444444;" d="M1181.458,53.729v-1.695h4.896v24.244h-4.896v-3.036c-2.354,2.432-5.084,3.648-8.191,3.648
			c-3.703,0-6.861-1.307-9.474-3.919c-2.612-2.612-3.919-5.77-3.919-9.474c0-3.703,1.307-6.861,3.919-9.474s5.771-3.919,9.474-3.919
			C1176.374,50.104,1179.104,51.312,1181.458,53.729z M1181.458,65.285v-3.578c-0.282-1.522-1.036-2.903-2.26-4.143
			c-1.647-1.632-3.625-2.448-5.932-2.448c-2.322,0-4.304,0.816-5.943,2.448c-1.64,1.632-2.459,3.609-2.459,5.932
			c0,2.307,0.819,4.28,2.459,5.919c1.64,1.64,3.621,2.46,5.943,2.46c2.307,0,4.284-0.816,5.932-2.448
			C1180.422,68.188,1181.176,66.808,1181.458,65.285z"/>
		<path style="fill:#444444;" d="M1198.782,73.241v11.157h-4.873V52.034h4.873v2.189c2.354-2.762,5.092-4.143,8.214-4.143
			c3.703,0,6.861,1.306,9.475,3.919c2.612,2.613,3.919,5.771,3.919,9.474s-1.307,6.865-3.919,9.485
			c-2.613,2.621-5.771,3.931-9.475,3.931C1203.874,76.89,1201.136,75.673,1198.782,73.241z M1198.782,61.59v3.79
			c0.298,1.491,1.059,2.84,2.283,4.048c1.632,1.632,3.608,2.448,5.931,2.448s4.304-0.82,5.943-2.46
			c1.64-1.639,2.46-3.621,2.46-5.943c0-2.307-0.82-4.284-2.46-5.932c-1.64-1.648-3.621-2.472-5.943-2.472s-4.299,0.824-5.931,2.472
			C1199.841,58.75,1199.08,60.099,1198.782,61.59z"/>
		<path style="fill:#444444;" d="M1247.27,53.729v-1.695h4.896v24.244h-4.896v-3.036c-2.354,2.432-5.084,3.648-8.191,3.648
			c-3.703,0-6.861-1.307-9.474-3.919c-2.612-2.612-3.919-5.77-3.919-9.474c0-3.703,1.307-6.861,3.919-9.474s5.771-3.919,9.474-3.919
			C1242.186,50.104,1244.916,51.312,1247.27,53.729z M1247.27,65.285v-3.578c-0.282-1.522-1.036-2.903-2.26-4.143
			c-1.647-1.632-3.625-2.448-5.932-2.448c-2.322,0-4.304,0.816-5.943,2.448c-1.64,1.632-2.459,3.609-2.459,5.932
			c0,2.307,0.819,4.28,2.459,5.919c1.64,1.64,3.621,2.46,5.943,2.46c2.307,0,4.284-0.816,5.932-2.448
			C1246.233,68.188,1246.987,66.808,1247.27,65.285z"/>
		<path style="fill:#444444;" d="M1296.934,53.705V38.594h4.896v37.66h-4.896v-3.013c-2.354,2.432-5.092,3.648-8.215,3.648
			c-3.703,0-6.861-1.31-9.474-3.931c-2.612-2.62-3.919-5.782-3.919-9.485s1.307-6.865,3.919-9.486s5.771-3.931,9.474-3.931
			C1291.842,50.057,1294.58,51.272,1296.934,53.705z M1296.934,65.285v-3.601c-0.282-1.522-1.044-2.903-2.283-4.143
			c-1.632-1.648-3.609-2.472-5.932-2.472s-4.304,0.824-5.943,2.472c-1.64,1.647-2.459,3.625-2.459,5.932
			c0,2.322,0.819,4.299,2.459,5.931c1.64,1.632,3.621,2.448,5.943,2.448s4.3-0.816,5.932-2.448
			C1295.89,68.165,1296.651,66.792,1296.934,65.285z"/>
		<path style="fill:#444444;" d="M1316.423,70.77c0.816,0.722,2.299,1.083,4.449,1.083c2.321,0,4.307-0.816,5.955-2.448
			c0.203-0.219,0.619-0.706,1.247-1.459l4.872,1.742c-1.192,1.647-2.056,2.738-2.589,3.271c-2.621,2.621-5.782,3.931-9.485,3.931
			c-3.688,0-6.842-1.31-9.463-3.931c-2.62-2.62-3.931-5.782-3.931-9.485s1.311-6.865,3.931-9.486
			c2.621-2.621,5.774-3.931,9.463-3.931c3.169,0,5.946,0.957,8.332,2.872c0.392,0.329,0.776,0.683,1.153,1.059
			c0.156,0.157,0.604,0.651,1.342,1.483l-2.448,2.471L1316.423,70.77z M1324.567,55.706c-0.55-0.424-1.781-0.636-3.695-0.636
			c-2.307,0-4.28,0.82-5.92,2.46s-2.46,3.621-2.46,5.943c0,1.898,0.212,3.13,0.636,3.695L1324.567,55.706z"/>
		<path style="fill:#444444;" d="M1360.133,64.203v12.051h-4.873v-37.66h10.687c3.028,0.408,5.586,1.656,7.673,3.742
			c2.495,2.511,3.743,5.524,3.743,9.039c0,3.546-1.248,6.571-3.743,9.074c-2.494,2.503-5.508,3.754-9.038,3.754H1360.133z
			 M1360.133,43.489v15.817h4.448c2.165,0,4.021-0.772,5.566-2.318c1.546-1.545,2.318-3.417,2.318-5.614
			c0-2.181-0.772-4.041-2.318-5.579c-1.546-1.538-3.401-2.307-5.566-2.307H1360.133z"/>
		<path style="fill:#444444;" d="M1386.236,55.305c1.819-2.463,4.056-3.758,6.708-3.884v5.061c-1.773,0.094-3.186,0.667-4.237,1.718
			c-1.585,1.569-2.408,3.437-2.471,5.602v12.452h-4.873v-24.22h4.873V55.305z"/>
		<path style="fill:#444444;" d="M1409.186,50.057c3.703,0,6.861,1.31,9.474,3.931s3.919,5.783,3.919,9.486
			s-1.307,6.865-3.919,9.485c-2.612,2.621-5.771,3.931-9.474,3.931c-3.688,0-6.842-1.31-9.463-3.931
			c-2.62-2.62-3.931-5.782-3.931-9.485s1.311-6.865,3.931-9.486C1402.344,51.367,1405.497,50.057,1409.186,50.057z M1403.242,57.542
			c-1.641,1.647-2.46,3.625-2.46,5.932c0,2.322,0.819,4.299,2.46,5.931c1.64,1.632,3.62,2.448,5.943,2.448
			c2.321,0,4.303-0.816,5.943-2.448c1.639-1.632,2.459-3.609,2.459-5.931c0-2.307-0.82-4.284-2.459-5.932
			c-1.641-1.648-3.622-2.472-5.943-2.472C1406.862,55.07,1404.882,55.894,1403.242,57.542z"/>
		<path style="fill:#444444;" d="M1447.41,67.945l4.872,1.742c-1.192,1.647-2.056,2.738-2.589,3.271
			c-2.621,2.621-5.782,3.931-9.485,3.931c-3.688,0-6.842-1.31-9.463-3.931c-2.62-2.62-3.931-5.782-3.931-9.485
			s1.311-6.865,3.931-9.486c2.621-2.621,5.774-3.931,9.463-3.931c3.703,0,6.864,1.31,9.485,3.931
			c0.533,0.534,1.396,1.608,2.589,3.225l-4.872,1.789c-0.628-0.769-1.052-1.263-1.271-1.483c-1.632-1.632-3.609-2.448-5.931-2.448
			c-2.307,0-4.28,0.82-5.92,2.46s-2.46,3.621-2.46,5.943c0,2.307,0.82,4.28,2.46,5.919c1.64,1.64,3.613,2.46,5.92,2.46
			c2.321,0,4.307-0.816,5.955-2.448C1446.366,69.185,1446.782,68.698,1447.41,67.945z"/>
		<path style="fill:#444444;" d="M1465.464,70.77c0.816,0.722,2.299,1.083,4.449,1.083c2.321,0,4.307-0.816,5.955-2.448
			c0.203-0.219,0.619-0.706,1.247-1.459l4.872,1.742c-1.192,1.647-2.056,2.738-2.589,3.271c-2.621,2.621-5.782,3.931-9.485,3.931
			c-3.688,0-6.842-1.31-9.463-3.931c-2.62-2.62-3.931-5.782-3.931-9.485s1.311-6.865,3.931-9.486
			c2.621-2.621,5.774-3.931,9.463-3.931c3.169,0,5.946,0.957,8.332,2.872c0.392,0.329,0.776,0.683,1.153,1.059
			c0.156,0.157,0.604,0.651,1.342,1.483l-2.448,2.471L1465.464,70.77z M1473.608,55.706c-0.55-0.424-1.781-0.636-3.695-0.636
			c-2.307,0-4.28,0.82-5.92,2.46s-2.46,3.621-2.46,5.943c0,1.898,0.212,3.13,0.636,3.695L1473.608,55.706z"/>
		<path style="fill:#444444;" d="M1492.532,71.052c0.58,0.565,1.271,0.847,2.071,0.847c0.8,0,1.486-0.282,2.06-0.847
			c0.572-0.565,0.858-1.263,0.858-2.095c0-0.8-0.282-1.483-0.847-2.047c-0.393-0.392-1.232-0.997-2.519-1.813
			c-1.758-0.957-3.005-1.805-3.742-2.542c-1.287-1.287-1.931-2.833-1.931-4.637c0-1.82,0.644-3.377,1.931-4.672
			c1.286-1.294,2.84-1.942,4.66-1.942s3.334,0.612,4.543,1.836c0.862,0.863,1.412,1.829,1.647,2.896l-4.731,1.365
			c-0.109-0.392-0.22-0.651-0.329-0.777c-0.282-0.283-0.659-0.424-1.13-0.424s-0.875,0.169-1.212,0.506
			c-0.338,0.337-0.507,0.741-0.507,1.212s0.165,0.871,0.494,1.201c0.299,0.282,0.974,0.761,2.024,1.436
			c1.946,1.067,3.358,2.04,4.237,2.919c1.521,1.538,2.283,3.366,2.283,5.484c0,2.166-0.758,4.013-2.271,5.543
			c-1.515,1.53-3.354,2.295-5.52,2.295c-2.15,0-3.986-0.769-5.508-2.307c-1.052-1.051-1.742-2.362-2.071-3.931l4.849-1.036
			C1492.014,70.244,1492.233,70.754,1492.532,71.052z"/>
		<path style="fill:#444444;" d="M1520.378,50.057c3.703,0,6.861,1.31,9.474,3.931s3.919,5.783,3.919,9.486
			s-1.307,6.865-3.919,9.485c-2.612,2.621-5.771,3.931-9.474,3.931c-3.688,0-6.842-1.31-9.463-3.931
			c-2.62-2.62-3.931-5.782-3.931-9.485s1.311-6.865,3.931-9.486C1513.536,51.367,1516.689,50.057,1520.378,50.057z M1514.435,57.542
			c-1.641,1.647-2.46,3.625-2.46,5.932c0,2.322,0.819,4.299,2.46,5.931c1.64,1.632,3.62,2.448,5.943,2.448
			c2.321,0,4.303-0.816,5.943-2.448c1.639-1.632,2.459-3.609,2.459-5.931c0-2.307-0.82-4.284-2.459-5.932
			c-1.641-1.648-3.622-2.472-5.943-2.472C1518.055,55.07,1516.074,55.894,1514.435,57.542z"/>
		<path style="fill:#444444;" d="M1544.315,71.052c0.58,0.565,1.271,0.847,2.071,0.847c0.8,0,1.486-0.282,2.06-0.847
			c0.572-0.565,0.858-1.263,0.858-2.095c0-0.8-0.282-1.483-0.847-2.047c-0.393-0.392-1.232-0.997-2.519-1.813
			c-1.758-0.957-3.005-1.805-3.742-2.542c-1.287-1.287-1.931-2.833-1.931-4.637c0-1.82,0.644-3.377,1.931-4.672
			c1.286-1.294,2.84-1.942,4.66-1.942s3.334,0.612,4.543,1.836c0.862,0.863,1.412,1.829,1.647,2.896l-4.731,1.365
			c-0.109-0.392-0.22-0.651-0.329-0.777c-0.282-0.283-0.659-0.424-1.13-0.424s-0.875,0.169-1.212,0.506
			c-0.338,0.337-0.507,0.741-0.507,1.212s0.165,0.871,0.494,1.201c0.299,0.282,0.974,0.761,2.024,1.436
			c1.946,1.067,3.358,2.04,4.237,2.919c1.521,1.538,2.283,3.366,2.283,5.484c0,2.166-0.758,4.013-2.271,5.543
			c-1.515,1.53-3.354,2.295-5.52,2.295c-2.15,0-3.986-0.769-5.508-2.307c-1.052-1.051-1.742-2.362-2.071-3.931l4.849-1.036
			C1543.797,70.244,1544.017,70.754,1544.315,71.052z"/>
	</g>
</g>
</svg>
