<?xml version="1.0" encoding="utf-8"?>
<!-- Generator: Adobe Illustrator 22.1.0, SVG Export Plug-In . SVG Version: 6.00 Build 0)  -->
<svg version="1.1" xmlns="http://www.w3.org/2000/svg" xmlns:xlink="http://www.w3.org/1999/xlink" x="0px" y="0px"
	 viewBox="0 0 939.6 218.3" style="enable-background:new 0 0 939.6 218.3;" xml:space="preserve">
<style type="text/css">
	.st0{fill:#3F3F3E;}
	.st1{fill:url(#SVGID_1_);}
	.st2{fill:url(#SVGID_2_);}
	.st3{fill:#FFFFFF;}
	.st4{fill:url(#SVGID_3_);}
	.st5{fill:#EC6907;}
	.st6{fill:#E84621;}
	.st7{fill:#F6A000;}
	.st8{fill:url(#SVGID_4_);}
	.st9{fill:url(#SVGID_5_);}
	.st10{fill:url(#SVGID_6_);}
	.st11{fill:url(#SVGID_7_);}
	.st12{display:none;}
	.st13{display:inline;fill:#EDEDED;}
	.st14{display:inline;fill:#E84621;}
	.st15{display:inline;fill:#F6A000;}
</style>
<g id="Capa_1">
</g>
<g id="Capa_2">
</g>
<g id="campo_de_seguridad" class="st12">
</g>
<g id="Capa_4">
	<g>
		<g>
			<path class="st3" d="M289.9,138.8V73.1L272,138.8h-19.9l-17.8-65.4v65.4h-18.6V42.9h29.4l17.3,70.3l17.3-70.3h28.9v95.8H289.9z"
				/>
			<path class="st3" d="M363.3,138.8v-10c-4.8,7.9-12.2,11.8-22.1,11.8c-3.6,0-6.8-0.6-9.7-1.9c-2.9-1.2-5.5-3-7.6-5.3
				c-2.1-2.3-3.8-5.1-5-8.2c-1.2-3.2-1.8-6.7-1.8-10.7V67.8h18.8v43.9c0,8.9,4,13.3,12,13.3c4.8,0,8.4-1.5,10.9-4.5
				c2.5-3,3.7-6.9,3.7-11.6v-41h18.6v71H363.3z"/>
			<path class="st3" d="M389.5,138.8V42.9h18.8v95.9H389.5z"/>
			<path class="st3" d="M456.9,92h17.5v20.2c0,3.8-0.6,7.3-1.7,10.8c-1.1,3.4-2.8,6.4-5.2,9.1c-2.4,2.6-5.3,4.7-8.9,6.3
				c-3.6,1.5-7.9,2.3-12.9,2.3c-5.2,0-9.6-0.8-13.3-2.3c-3.7-1.5-6.7-3.6-9-6.2c-2.4-2.6-4.1-5.6-5.1-9.1c-1.1-3.5-1.6-7.1-1.6-11
				V42.9h18.5v24.9h39.3V81h-39.3v29.2c0,4.5,0.8,8,2.5,10.5c1.7,2.5,4.4,3.7,8.3,3.7c3.8,0,6.5-1.2,8.3-3.6
				c1.8-2.4,2.7-5.8,2.7-10.2V92z"/>
			<path class="st3" d="M482.8,59.2V42.9h18.8v16.3H482.8z M482.8,138.8v-71h18.8v71H482.8z"/>
			<path class="st3" d="M509.9,138.8v-71h17.6v8.5c1.5-2.4,3.2-4.3,4.8-5.6c1.7-1.3,3.4-2.4,5.2-3.1c1.8-0.7,3.6-1.2,5.4-1.4
				c1.8-0.2,3.7-0.3,5.6-0.3h2.5v19.2c-1.7-0.3-3.5-0.4-5.2-0.4c-11.5,0-17.2,5.7-17.2,17.2v36.9H509.9z"/>
			<path class="st3" d="M601.6,138.8c-0.6-1.8-1-3.9-1.2-6.4c-2.2,2.5-5.1,4.5-8.8,6c-3.7,1.5-7.9,2.2-12.7,2.2
				c-8.2,0-14.2-1.8-18-5.4c-3.8-3.6-5.7-8.3-5.7-14.1c0-5.1,0.8-9.2,2.5-12.2c1.6-3,3.9-5.4,6.8-7.1c2.9-1.7,6.3-3,10.3-3.8
				c4-0.8,8.3-1.6,13.1-2.2c4.7-0.7,7.9-1.6,9.5-2.7c1.6-1.1,2.5-2.9,2.5-5.4c0-2.3-1.1-4.1-3.2-5.4c-2.2-1.3-5.1-1.9-8.7-1.9
				c-4.3,0-7.4,1-9.3,2.9c-1.9,1.9-3.1,4.5-3.5,7.6h-17.5c0.1-3.7,0.7-7,1.8-10.1c1.1-3.1,2.9-5.7,5.3-7.9c2.5-2.2,5.7-3.9,9.6-5.1
				c3.9-1.2,8.8-1.8,14.4-1.8c5.6,0,10.3,0.6,14.2,1.9c3.9,1.3,7,3.1,9.4,5.4c2.4,2.4,4.1,5.3,5.1,8.8c1.1,3.5,1.6,7.5,1.6,11.9
				v44.9H601.6z M600.3,104c-1,1-2.4,1.7-4.2,2.3c-1.8,0.6-4.5,1.2-7.9,1.9c-5.4,1.1-9.1,2.4-11.1,4c-2,1.6-3,4-3,7.1
				c0,5.3,3,7.9,9.1,7.9c2.4,0,4.6-0.4,6.7-1.2c2.1-0.8,3.8-1.9,5.3-3.3c1.5-1.4,2.7-3,3.6-4.9c0.9-1.9,1.4-3.9,1.4-6L600.3,104z"/>
			<path class="st3" d="M692.7,113.1c-0.5,4.1-1.7,7.9-3.5,11.3c-1.9,3.4-4.3,6.3-7.1,8.7c-2.9,2.4-6.2,4.3-9.9,5.6
				c-3.7,1.3-7.7,2-12.1,2c-4.8,0-9.2-0.8-13.2-2.4c-4-1.6-7.4-4-10.3-7.2c-2.9-3.2-5.1-7.2-6.7-12c-1.6-4.8-2.4-10.3-2.4-16.7
				s0.8-11.8,2.4-16.5s3.8-8.4,6.7-11.3c2.9-2.9,6.4-5.1,10.5-6.6c4.1-1.4,8.6-2.2,13.6-2.2c4.6,0,8.8,0.6,12.6,1.9
				c3.8,1.3,7.1,3.1,10,5.5c2.8,2.4,5.1,5.3,6.7,8.7c1.6,3.4,2.6,7.1,2.9,11.3h-18.9c-0.5-3.7-1.9-6.5-4.4-8.6
				c-2.5-2.1-5.5-3.1-9-3.1c-2,0-3.9,0.3-5.6,1c-1.7,0.7-3.2,1.8-4.5,3.4c-1.3,1.6-2.3,3.7-3.1,6.4c-0.8,2.6-1.2,5.9-1.2,9.7
				c0,7.8,1.4,13.6,4.2,17.3c2.8,3.8,6,5.6,9.7,5.6c3.7,0,6.8-1,9.4-3c2.6-2,4.1-5,4.5-8.8H692.7z"/>
			<path class="st3" d="M742.1,92h17.5v20.2c0,3.8-0.6,7.3-1.7,10.8c-1.1,3.4-2.8,6.4-5.2,9.1c-2.4,2.6-5.3,4.7-8.9,6.3
				c-3.6,1.5-7.9,2.3-12.9,2.3c-5.2,0-9.6-0.8-13.3-2.3c-3.7-1.5-6.7-3.6-9-6.2c-2.4-2.6-4.1-5.6-5.1-9.1c-1.1-3.5-1.6-7.1-1.6-11
				V42.9h18.5v24.9h39.3V81h-39.3v29.2c0,4.5,0.8,8,2.5,10.5c1.7,2.5,4.4,3.7,8.3,3.7c3.8,0,6.5-1.2,8.3-3.6
				c1.8-2.4,2.7-5.8,2.7-10.2V92z"/>
			<path class="st3" d="M768,59.2V42.9h18.8v16.3H768z M768,138.8v-71h18.8v71H768z"/>
			<path class="st3" d="M816.3,138.8l-25.4-71h20.9l14.9,46.9l15-46.9h19.8l-25.5,71H816.3z"/>
			<path class="st3" d="M905.8,138.8c-0.6-1.8-1-3.9-1.2-6.4c-2.2,2.5-5.1,4.5-8.8,6c-3.7,1.5-7.9,2.2-12.7,2.2
				c-8.2,0-14.2-1.8-18-5.4c-3.8-3.6-5.7-8.3-5.7-14.1c0-5.1,0.8-9.2,2.5-12.2c1.6-3,3.9-5.4,6.8-7.1c2.9-1.7,6.3-3,10.3-3.8
				c4-0.8,8.3-1.6,13.1-2.2c4.7-0.7,7.9-1.6,9.5-2.7c1.6-1.1,2.5-2.9,2.5-5.4c0-2.3-1.1-4.1-3.2-5.4c-2.2-1.3-5.1-1.9-8.7-1.9
				c-4.3,0-7.4,1-9.3,2.9c-1.9,1.9-3.1,4.5-3.5,7.6h-17.5c0.1-3.7,0.7-7,1.8-10.1c1.1-3.1,2.9-5.7,5.3-7.9c2.5-2.2,5.7-3.9,9.6-5.1
				c3.9-1.2,8.8-1.8,14.4-1.8c5.6,0,10.3,0.6,14.2,1.9c3.9,1.3,7,3.1,9.4,5.4c2.4,2.4,4.1,5.3,5.1,8.8c1.1,3.5,1.6,7.5,1.6,11.9
				v44.9H905.8z M904.5,104c-1,1-2.4,1.7-4.2,2.3c-1.8,0.6-4.5,1.2-7.9,1.9c-5.4,1.1-9.1,2.4-11.1,4c-2,1.6-3,4-3,7.1
				c0,5.3,3,7.9,9.1,7.9c2.4,0,4.6-0.4,6.7-1.2c2.1-0.8,3.8-1.9,5.3-3.3c1.5-1.4,2.7-3,3.6-4.9c0.9-1.9,1.4-3.9,1.4-6L904.5,104z"/>
		</g>
		<g>
			<path class="st3" d="M232.5,176.6H222l-2.5,7.1h-3.8l10-27.7h3.2l9.8,27.7h-3.8L232.5,176.6z M223.1,173.4h8.3l-4-11.9h-0.1
				L223.1,173.4z"/>
			<path class="st3" d="M270.1,180c-0.7,1-1.8,2-3.4,2.8c-1.6,0.9-3.7,1.3-6.3,1.3c-3.2,0-5.8-1.1-7.9-3.2c-2.1-2.1-3.1-4.9-3.1-8.2
				V167c0-3.4,1-6.1,3-8.2c2-2.1,4.6-3.2,7.8-3.2c3.1,0,5.5,0.8,7.3,2.5c1.8,1.6,2.7,3.7,2.6,6.3l0,0.1h-3.6c0-1.7-0.5-3.1-1.6-4.2
				s-2.6-1.7-4.6-1.7c-2.1,0-3.8,0.8-5.1,2.4c-1.3,1.6-1.9,3.6-1.9,6v5.7c0,2.5,0.7,4.5,2.1,6.1c1.4,1.6,3.1,2.4,5.2,2.4
				c1.6,0,2.9-0.2,3.9-0.6s1.7-0.9,2.1-1.5v-6.2h-6.3v-2.9h10V180z"/>
			<path class="st3" d="M299.4,170.9H288v9.9h13.3v2.9h-17.1V156h16.9v2.9H288v9h11.4V170.9z"/>
			<path class="st3" d="M334.9,183.7h-3.7l-13.3-21.2l-0.1,0v21.1h-3.7V156h3.7l13.3,21.1l0.1,0V156h3.7V183.7z"/>
			<path class="st3" d="M369.2,174.8l0,0.1c0.1,2.6-0.9,4.8-2.7,6.5c-1.9,1.8-4.4,2.6-7.4,2.6c-3.1,0-5.7-1.1-7.7-3.3
				c-2-2.2-3-5-3-8.4v-4.9c0-3.4,1-6.2,3-8.5c2-2.2,4.5-3.3,7.7-3.3s5.6,0.8,7.5,2.5c1.9,1.7,2.8,3.9,2.7,6.6l0,0.1h-3.6
				c0-1.9-0.6-3.5-1.7-4.6c-1.1-1.1-2.8-1.7-4.8-1.7c-2.1,0-3.8,0.8-5,2.5c-1.2,1.7-1.9,3.8-1.9,6.3v5c0,2.5,0.6,4.6,1.9,6.3
				c1.2,1.7,2.9,2.5,5,2.5c2.1,0,3.7-0.6,4.8-1.7c1.1-1.1,1.7-2.7,1.7-4.7H369.2z"/>
			<path class="st3" d="M386.1,183.7h-3.8V156h3.8V183.7z"/>
			<path class="st3" d="M415.5,176.6h-10.4l-2.5,7.1h-3.8l10-27.7h3.2l9.8,27.7h-3.8L415.5,176.6z M406.1,173.4h8.3l-4-11.9h-0.1
				L406.1,173.4z"/>
			<path class="st3" d="M452.7,183.7V156h8.7c3.6,0,6.5,1.1,8.7,3.3c2.2,2.2,3.3,5.1,3.3,8.6v3.8c0,3.5-1.1,6.4-3.3,8.6
				c-2.2,2.2-5.1,3.3-8.7,3.3H452.7z M456.5,159v21.8h5c2.6,0,4.6-0.8,6.1-2.5s2.2-3.8,2.2-6.5v-3.8c0-2.6-0.7-4.8-2.2-6.4
				s-3.5-2.5-6.1-2.5H456.5z"/>
			<path class="st3" d="M502.1,170.9h-11.4v9.9H504v2.9h-17.1V156h16.9v2.9h-13.1v9h11.4V170.9z"/>
			<path class="st3" d="M535.3,183.7V156h8.7c3.6,0,6.5,1.1,8.7,3.3s3.3,5.1,3.3,8.6v3.8c0,3.5-1.1,6.4-3.3,8.6s-5.1,3.3-8.7,3.3
				H535.3z M539.1,159v21.8h5c2.6,0,4.6-0.8,6.1-2.5c1.5-1.7,2.2-3.8,2.2-6.5v-3.8c0-2.6-0.7-4.8-2.2-6.4c-1.5-1.7-3.5-2.5-6.1-2.5
				H539.1z"/>
			<path class="st3" d="M573.6,183.7h-3.8V156h3.8V183.7z"/>
			<path class="st3" d="M602.7,176.7c0-1.3-0.5-2.3-1.4-3.2s-2.5-1.6-4.8-2.2c-2.8-0.7-5-1.7-6.6-3.1c-1.6-1.4-2.4-3.1-2.4-5.1
				c0-2.2,0.8-4,2.5-5.4c1.7-1.4,3.9-2.2,6.6-2.2c2.9,0,5.2,0.8,7,2.5c1.7,1.7,2.6,3.6,2.5,5.8l-0.1,0.1h-3.6c0-1.6-0.5-2.9-1.6-3.9
				s-2.5-1.5-4.2-1.5c-1.8,0-3.1,0.4-4,1.3c-0.9,0.8-1.4,2-1.4,3.3c0,1.2,0.5,2.2,1.5,3s2.7,1.5,5,2.1c2.8,0.7,4.9,1.8,6.4,3.2
				c1.5,1.4,2.2,3.1,2.2,5.2c0,2.2-0.9,4-2.6,5.4c-1.8,1.4-4,2-6.9,2c-2.7,0-5-0.7-7.1-2.2c-2-1.5-3-3.5-3-6l0-0.1h3.6
				c0,1.7,0.7,3.1,2,4c1.3,0.9,2.8,1.4,4.5,1.4c1.8,0,3.2-0.4,4.2-1.2C602.1,179.2,602.7,178.1,602.7,176.7z"/>
			<path class="st3" d="M634.8,170.9h-11.4v9.9h13.3v2.9h-17.1V156h16.9v2.9h-13.1v9h11.4V170.9z"/>
			<path class="st3" d="M670.3,183.7h-3.7l-13.3-21.2l-0.1,0v21.1h-3.7V156h3.7l13.3,21.1l0.1,0V156h3.7V183.7z M666.4,148.6
				c0,1.2-0.4,2.2-1.1,3c-0.8,0.8-1.7,1.2-2.8,1.2c-0.9,0-1.8-0.3-2.8-0.9s-1.8-0.9-2.4-0.9c-0.5,0-1,0.2-1.4,0.6
				c-0.4,0.4-0.6,0.9-0.6,1.5l-2.1-0.5c0-1.2,0.4-2.2,1.1-3.1c0.7-0.9,1.7-1.3,2.9-1.3c0.7,0,1.6,0.3,2.7,0.9s1.9,0.9,2.6,0.9
				c0.5,0,1-0.2,1.4-0.6c0.4-0.4,0.6-0.9,0.6-1.5L666.4,148.6z"/>
			<path class="st3" d="M706,172.3c0,3.4-1,6.2-3.1,8.4s-4.8,3.3-8.2,3.3c-3.2,0-5.9-1.1-7.9-3.3s-3-5-3-8.4v-4.9c0-3.4,1-6.2,3-8.4
				c2-2.2,4.7-3.4,7.9-3.4c3.3,0,6.1,1.1,8.2,3.4s3.1,5,3.1,8.4V172.3z M702.2,167.4c0-2.5-0.7-4.6-2.1-6.2
				c-1.4-1.6-3.2-2.4-5.5-2.4c-2.2,0-3.9,0.8-5.2,2.4s-2,3.7-2,6.2v5c0,2.6,0.7,4.7,2,6.3s3,2.4,5.2,2.4c2.3,0,4.2-0.8,5.5-2.4
				c1.4-1.6,2-3.7,2-6.3V167.4z"/>
			<path class="st3" d="M738.3,183.7V156h8.7c3.6,0,6.5,1.1,8.7,3.3s3.3,5.1,3.3,8.6v3.8c0,3.5-1.1,6.4-3.3,8.6s-5.1,3.3-8.7,3.3
				H738.3z M742,159v21.8h5c2.6,0,4.6-0.8,6.1-2.5c1.5-1.7,2.2-3.8,2.2-6.5v-3.8c0-2.6-0.7-4.8-2.2-6.4c-1.5-1.7-3.5-2.5-6.1-2.5
				H742z"/>
			<path class="st3" d="M776.5,183.7h-3.8V156h3.8V183.7z"/>
			<path class="st3" d="M811.2,180c-0.7,1-1.8,2-3.4,2.8c-1.6,0.9-3.7,1.3-6.3,1.3c-3.2,0-5.8-1.1-7.9-3.2c-2.1-2.1-3.1-4.9-3.1-8.2
				V167c0-3.4,1-6.1,3-8.2s4.6-3.2,7.8-3.2c3.1,0,5.5,0.8,7.3,2.5c1.8,1.6,2.7,3.7,2.6,6.3l0,0.1h-3.6c0-1.7-0.5-3.1-1.6-4.2
				s-2.6-1.7-4.6-1.7c-2.1,0-3.8,0.8-5.1,2.4c-1.3,1.6-1.9,3.6-1.9,6v5.7c0,2.5,0.7,4.5,2.1,6.1c1.4,1.6,3.1,2.4,5.3,2.4
				c1.6,0,2.9-0.2,3.9-0.6c1-0.4,1.7-0.9,2.1-1.5v-6.2h-6.3v-2.9h10V180z"/>
			<path class="st3" d="M829.4,183.7h-3.8V156h3.8V183.7z"/>
			<path class="st3" d="M863.8,159h-9.1v24.7h-3.7V159h-9V156h21.9V159z"/>
			<path class="st3" d="M887.2,176.6h-10.4l-2.5,7.1h-3.8l10-27.7h3.2l9.8,27.7h-3.8L887.2,176.6z M877.9,173.4h8.3l-4-11.9H882
				L877.9,173.4z"/>
			<path class="st3" d="M909.6,180.8h13.5v2.9h-17.3V156h3.7V180.8z"/>
		</g>
		<g>
			<path class="st3" d="M105.7,71.6L90.9,11.5H13v189.1h184.4V11.5h-76.9L105.7,71.6z M180.5,28.4v155.3h-30.4V77.2l-29,106.4H88.9
				L60.1,77.7v105.9H29.9V28.4h47.7l28.1,113.9l28.1-113.9H180.5z"/>
		</g>
	</g>
</g>
</svg>
