<?xml version="1.0" encoding="iso-8859-1"?>
<!-- Generator: Adobe Illustrator 22.1.0, SVG Export Plug-In . SVG Version: 6.00 Build 0)  -->
<svg version="1.1" id="Layer_1" xmlns="http://www.w3.org/2000/svg" xmlns:xlink="http://www.w3.org/1999/xlink" x="0px" y="0px"
	 viewBox="0 0 340.157 226.772" style="enable-background:new 0 0 340.157 226.772;" xml:space="preserve">
<g>
	<g>
		<path style="fill:#FFFFFF;" d="M232.839,140.462c-4.486-4.668-9.894-7.165-15.625-7.165c-5.686,0-11.142,2.449-15.81,7.12
			l-14.61,14.562c-1.203-0.648-2.404-1.248-3.56-1.849c-1.664-0.833-3.237-1.619-4.578-2.451
			c-13.684-8.691-26.12-20.019-38.047-34.673c-5.779-7.305-9.662-13.454-12.481-19.693c3.79-3.467,7.304-7.075,10.724-10.542
			c1.296-1.293,2.59-2.634,3.885-3.93c9.707-9.707,9.707-22.283,0-31.992l-12.623-12.621c-1.431-1.433-2.912-2.912-4.298-4.39
			c-2.774-2.867-5.686-5.826-8.691-8.601c-4.486-4.438-9.849-6.795-15.488-6.795c-5.641,0-11.095,2.357-15.718,6.795l-0.092,0.092
			l-15.72,15.858c-5.917,5.916-9.292,13.128-10.032,21.497c-1.108,13.499,2.867,26.075,5.919,34.303
			c7.488,20.203,18.678,38.926,35.367,58.992c20.249,24.179,44.612,43.271,72.443,56.725c10.632,5.039,24.827,11.002,40.682,12.018
			c0.973,0.047,1.989,0.092,2.914,0.092c10.68,0,19.648-3.835,26.675-11.465c0.046-0.092,0.138-0.138,0.186-0.23
			c2.404-2.912,5.176-5.549,8.09-8.368c1.986-1.897,4.02-3.883,6.009-5.964c4.578-4.761,6.98-10.309,6.98-15.995
			c0-5.731-2.449-11.235-7.117-15.858L232.839,140.462z M249.39,189.142C249.343,189.142,249.343,189.189,249.39,189.142
			c-1.804,1.944-3.653,3.7-5.641,5.641c-3.004,2.867-6.056,5.871-8.921,9.246c-4.67,4.994-10.171,7.35-17.384,7.35
			c-0.693,0-1.433,0-2.126-0.045c-13.729-0.878-26.49-6.242-36.059-10.817c-26.167-12.668-49.145-30.653-68.238-53.443
			c-15.763-19.002-26.305-36.569-33.284-55.431c-4.301-11.51-5.872-20.481-5.178-28.94c0.462-5.411,2.542-9.894,6.379-13.731
			l15.765-15.766c2.264-2.126,4.668-3.282,7.027-3.282c2.912,0,5.269,1.759,6.75,3.237l0.138,0.138
			c2.822,2.636,5.501,5.363,8.323,8.275c1.434,1.481,2.913,2.959,4.391,4.486l12.621,12.621c4.9,4.9,4.9,9.431,0,14.332
			c-1.341,1.341-2.635,2.682-3.975,3.975c-3.883,3.975-7.582,7.675-11.603,11.28c-0.092,0.092-0.185,0.14-0.232,0.23
			c-3.975,3.978-3.235,7.86-2.405,10.494l0.14,0.418c3.282,7.951,7.905,15.441,14.932,24.364l0.046,0.045
			c12.761,15.718,26.212,27.971,41.052,37.355c1.896,1.203,3.837,2.174,5.686,3.097c1.665,0.833,3.237,1.619,4.577,2.451
			c0.186,0.093,0.37,0.231,0.555,0.323c1.571,0.785,3.05,1.156,4.576,1.156c3.838,0,6.242-2.404,7.027-3.189l15.811-15.811
			c1.573-1.574,4.07-3.467,6.982-3.467c2.867,0,5.224,1.801,6.657,3.375l25.565,25.564
			C254.106,179.388,254.106,184.244,249.39,189.142L249.39,189.142z"/>
		<path style="fill:#FFFFFF;" d="M178.102,56.876c12.111,2.034,23.115,7.768,31.899,16.551c8.783,8.783,14.47,19.786,16.551,31.899
			c0.508,3.052,3.143,5.178,6.149,5.178c0.368,0,0.693-0.047,1.063-0.092c3.42-0.555,5.686-3.79,5.131-7.212
			c-2.497-14.655-9.432-28.016-20.019-38.603c-10.587-10.587-23.948-17.522-38.603-20.018c-3.42-0.553-6.609,1.711-7.212,5.086
			C172.462,53.039,174.68,56.321,178.102,56.876L178.102,56.876z"/>
		<path style="fill:#FFFFFF;" d="M278.514,101.396c-4.113-24.131-15.488-46.09-32.962-63.567
			c-17.474-17.474-39.434-28.846-63.567-32.962c-3.375-0.6-6.564,1.711-7.165,5.086c-0.555,3.42,1.709,6.612,5.131,7.213
			c21.544,3.652,41.192,13.869,56.818,29.45c15.625,15.625,25.797,35.274,29.45,56.818c0.508,3.049,3.142,5.176,6.147,5.176
			c0.37,0,0.695-0.045,1.063-0.092C276.806,108.008,279.117,104.771,278.514,101.396L278.514,101.396z"/>
	</g>
</g>
</svg>
