<svg xmlns="http://www.w3.org/2000/svg" viewBox="0 0 11.98 13.69"><defs><style>.cls-1{fill:#4d4d4d;}</style></defs><title>archivo</title><g id="Capa_2" data-name="Capa 2"><g id="Capa_1-2" data-name="Capa 1"><path class="cls-1" d="M11.12,1.71h-.85V.86A.85.85,0,0,0,9.41,0H.86A.85.85,0,0,0,0,.86V11.12A.85.85,0,0,0,.86,12h.85v.86a.85.85,0,0,0,.86.85h8.55a.85.85,0,0,0,.86-.85V2.57a.85.85,0,0,0-.86-.86ZM.86,11.12V.86H9.41V11.12Zm10.26,1.72H2.57V12H9.41a.85.85,0,0,0,.86-.86V2.57h.85Z"/><path class="cls-1" d="M8.13,2.57H3.85a.43.43,0,1,0,0,.85H8.13a.43.43,0,1,0,0-.85Z"/><path class="cls-1" d="M8.13,5.14h-6a.43.43,0,1,0,0,.85h6a.43.43,0,1,0,0-.85Z"/><path class="cls-1" d="M8.13,6.84h-6a.44.44,0,0,0-.43.44.42.42,0,0,0,.43.42h6a.42.42,0,0,0,.43-.42.44.44,0,0,0-.43-.44Z"/><path class="cls-1" d="M8.13,8.56h-6a.43.43,0,1,0,0,.85h6a.43.43,0,1,0,0-.85Z"/></g></g></svg>