<svg xmlns="http://www.w3.org/2000/svg" viewBox="0 0 12 13.55"><defs><style>.cls-1{fill:#39b54a;}</style></defs><title>excel</title><g id="Capa_2" data-name="Capa 2"><g id="Capa_1-2" data-name="Capa 1"><path class="cls-1" d="M11.24,4.85h-.32V3.25a.24.24,0,0,0-.06-.17L8.24.09h0s0,0-.05,0h0L8.11,0H1.62a.54.54,0,0,0-.54.53V4.85H.76A.76.76,0,0,0,0,5.61v4a.76.76,0,0,0,.76.75h.32V13a.54.54,0,0,0,.54.53h8.76a.54.54,0,0,0,.54-.53v-2.7h.32A.77.77,0,0,0,12,9.56V5.61a.76.76,0,0,0-.76-.76ZM1.62.53H7.77V3.25A.27.27,0,0,0,8,3.52h2.34V4.85H1.62ZM7,7.78c-.52-.19-.86-.47-.86-.93s.44-.95,1.19-.95a2,2,0,0,1,.8.16L8,6.63a1.52,1.52,0,0,0-.66-.15c-.31,0-.46.14-.46.31s.18.29.59.44.81.49.81.94-.4,1-1.26,1A2.08,2.08,0,0,1,6.09,9l.15-.59a1.76,1.76,0,0,0,.79.2c.32,0,.5-.14.5-.34S7.38,7.91,7,7.78ZM5.8,8.5v.6h-2V6h.72V8.5Zm-4.25.6H.74l.91-1.59L.78,6h.81l.28.58c.09.19.16.34.23.52h0c.08-.2.14-.34.22-.52L2.59,6H3.4L2.52,7.49,3.45,9.1H2.63l-.28-.57c-.12-.22-.19-.39-.28-.57h0c-.07.18-.15.35-.25.57Zm8.83,3.77H1.62V10.32h8.76Zm0-3.77-.29-.57L9.82,8h0c-.07.18-.15.35-.25.57l-.26.57H8.5l.91-1.59L8.53,6h.82l.27.58a4.74,4.74,0,0,1,.24.52h0c.08-.2.14-.34.22-.52L10.35,6h.81l-.88,1.54.93,1.61Z"/></g></g></svg>