<svg xmlns="http://www.w3.org/2000/svg" viewBox="0 0 11.4 14"><defs><style>.cls-1{fill:red;}</style></defs><title>pdf</title><g id="Capa_2" data-name="Capa 2"><g id="Capa_1-2" data-name="Capa 1"><path class="cls-1" d="M2.82,9c0-.24-.16-.37-.44-.37l-.24,0V9.4a.53.53,0,0,0,.19,0c.31,0,.49-.15.49-.41Z"/><path class="cls-1" d="M4.59,8.64a.75.75,0,0,0-.26,0v1.65h.2a.78.78,0,0,0,.85-.88.73.73,0,0,0-.79-.81Z"/><path class="cls-1" d="M7.86,0H2.24A1.49,1.49,0,0,0,.75,1.49V7H.6a.6.6,0,0,0-.6.6v3.64a.6.6,0,0,0,.6.6H.75v.67A1.49,1.49,0,0,0,2.24,14H9.91a1.49,1.49,0,0,0,1.49-1.49v-9ZM1.58,8.26a4.64,4.64,0,0,1,.77,0,1.18,1.18,0,0,1,.77.2A.72.72,0,0,1,3.39,9a.8.8,0,0,1-.23.6,1.16,1.16,0,0,1-.82.27h-.2v.9H1.58Zm8.33,4.83H2.24a.58.58,0,0,1-.58-.58v-.67H8.81a.6.6,0,0,0,.6-.6V7.6a.6.6,0,0,0-.6-.6H1.66V1.49A.58.58,0,0,1,2.24.91H7.52V2.86a1,1,0,0,0,1,1h1.91l0,8.62a.57.57,0,0,1-.57.58ZM3.75,10.74V8.26a4.51,4.51,0,0,1,.78,0,1.65,1.65,0,0,1,1,.26,1.14,1.14,0,0,1,.43,1,1.3,1.3,0,0,1-.42,1,1.83,1.83,0,0,1-1.17.33,4.83,4.83,0,0,1-.65,0ZM7.84,9.27v.46h-.9v1H6.36V8.22H7.91v.47h-1v.58Z"/></g></g></svg>