<svg xmlns="http://www.w3.org/2000/svg" viewBox="0 0 12.35 13.95"><defs><style>.cls-1{fill:#0071bc;}</style></defs><title>word</title><g id="Capa_2" data-name="Capa 2"><g id="Capa_1-2" data-name="Capa 1"><path class="cls-1" d="M11.57,5h-.33V3.37a0,0,0,0,0,0,0,.27.27,0,0,0-.06-.17L8.48.09h0l-.06,0h0L8.35,0H1.66a.55.55,0,0,0-.54.55V5H.78A.78.78,0,0,0,0,5.77V9.84a.78.78,0,0,0,.78.78h.34V13.4a.55.55,0,0,0,.54.55h9a.55.55,0,0,0,.55-.55V10.62h.33a.78.78,0,0,0,.78-.78V5.77A.78.78,0,0,0,11.57,5ZM1.66.55H8v2.8a.27.27,0,0,0,.27.27h2.42V5h-9Zm6.57,7a1.81,1.81,0,0,1-1.87,2A1.77,1.77,0,0,1,4.58,7.65a1.84,1.84,0,0,1,1.85-2,1.77,1.77,0,0,1,1.8,1.92ZM.84,9.5V5.78A7.72,7.72,0,0,1,2,5.7a2.46,2.46,0,0,1,1.55.4,1.67,1.67,0,0,1,.64,1.43,1.91,1.91,0,0,1-.63,1.54,2.72,2.72,0,0,1-1.75.49,6.92,6.92,0,0,1-1-.06Zm9.85,3.75h-9V10.62h9Zm0-4.38a2.11,2.11,0,0,0,.72-.13l.13.67a2.49,2.49,0,0,1-1,.16,1.79,1.79,0,0,1-2-1.89,1.93,1.93,0,0,1,2.07-2,2.2,2.2,0,0,1,.93.17l-.17.68a2,2,0,0,0-.72-.14A1.14,1.14,0,0,0,9.52,7.63a1.13,1.13,0,0,0,1.21,1.24Z"/><path class="cls-1" d="M3.28,7.56a1.08,1.08,0,0,0-1.19-1.2,1.67,1.67,0,0,0-.39,0V8.87a1.32,1.32,0,0,0,.3,0A1.18,1.18,0,0,0,3.28,7.56Z"/><path class="cls-1" d="M5.49,7.63c0,.75.35,1.27.92,1.27s.91-.55.91-1.29S7,6.34,6.4,6.34s-.91.56-.91,1.29Z"/></g></g></svg>